<mxfile host="8a9faaff-5b52-4368-a250-5ad3f06b7bc3" modified="2020-07-23T10:43:58.732Z" agent="5.0 (Macintosh; Intel Mac OS X 10_14_6) AppleWebKit/537.36 (KHTML, like Gecko) Code/1.47.1 Chrome/78.0.3904.130 Electron/7.3.2 Safari/537.36" etag="SVr-rFnlweAUKgU9ydYS" version="13.1.3">
    <diagram id="6hGFLwfOUW9BJ-s0fimq" name="Page-1">
        <mxGraphModel dx="1132" dy="569" grid="1" gridSize="10" guides="1" tooltips="1" connect="1" arrows="1" fold="1" page="1" pageScale="1" pageWidth="827" pageHeight="1169" math="0" shadow="0">
            <root>
                <mxCell id="0"/>
                <mxCell id="1" parent="0"/>
                <mxCell id="172" value="" style="rounded=0;whiteSpace=wrap;html=1;strokeColor=#080808;strokeWidth=2;fontSize=9;opacity=50;" parent="1" vertex="1">
                    <mxGeometry x="40" y="190" width="810" height="680" as="geometry"/>
                </mxCell>
                <mxCell id="51" value="" style="rounded=0;whiteSpace=wrap;html=1;" parent="1" vertex="1">
                    <mxGeometry x="60" y="260" width="600" height="580" as="geometry"/>
                </mxCell>
                <mxCell id="44" value="" style="verticalLabelPosition=bottom;verticalAlign=top;html=1;shape=mxgraph.basic.patternFillRect;fillStyle=diagGrid;step=5;fillStrokeWidth=0.2;fillStrokeColor=#dddddd;fillColor=#ffe6cc;strokeColor=#d79b00;" parent="1" vertex="1">
                    <mxGeometry x="451" y="311" width="190" height="510" as="geometry"/>
                </mxCell>
                <mxCell id="43" value="" style="verticalLabelPosition=bottom;verticalAlign=top;html=1;shape=mxgraph.basic.patternFillRect;fillStyle=diagGrid;step=5;fillStrokeWidth=0.2;fillStrokeColor=#dddddd;fillColor=#ffe6cc;strokeColor=#d79b00;" parent="1" vertex="1">
                    <mxGeometry x="110" y="310" width="190" height="510" as="geometry"/>
                </mxCell>
                <mxCell id="6" value="" style="rounded=0;whiteSpace=wrap;html=1;" parent="1" vertex="1">
                    <mxGeometry x="121" y="430" width="170" height="250" as="geometry"/>
                </mxCell>
                <mxCell id="8" value="" style="rounded=0;whiteSpace=wrap;html=1;" parent="1" vertex="1">
                    <mxGeometry x="505" y="130" width="300" height="50" as="geometry"/>
                </mxCell>
                <mxCell id="9" value="RDS Aurora&lt;br&gt;DB Master&lt;br&gt;(Multi-AZ)&amp;nbsp;&amp;nbsp;" style="rounded=0;whiteSpace=wrap;html=1;" parent="1" vertex="1">
                    <mxGeometry x="121" y="690" width="170" height="110" as="geometry"/>
                </mxCell>
                <mxCell id="12" value="Github Repos" style="rounded=0;whiteSpace=wrap;html=1;" parent="1" vertex="1">
                    <mxGeometry x="611" y="140" width="90" height="30" as="geometry"/>
                </mxCell>
                <mxCell id="13" value="GitHub Actions" style="rounded=0;whiteSpace=wrap;html=1;" parent="1" vertex="1">
                    <mxGeometry x="707" y="140" width="90" height="30" as="geometry"/>
                </mxCell>
                <mxCell id="15" value="" style="rounded=0;whiteSpace=wrap;html=1;" parent="1" vertex="1">
                    <mxGeometry x="463" y="430" width="170" height="250" as="geometry"/>
                </mxCell>
                <mxCell id="24" value="" style="endArrow=classic;startArrow=classic;html=1;" parent="1" edge="1">
                    <mxGeometry width="50" height="50" relative="1" as="geometry">
                        <mxPoint x="410.5" y="670" as="sourcePoint"/>
                        <mxPoint x="460.5" y="670" as="targetPoint"/>
                        <Array as="points">
                            <mxPoint x="410.5" y="670"/>
                        </Array>
                    </mxGeometry>
                </mxCell>
                <mxCell id="132" style="edgeStyle=orthogonalEdgeStyle;rounded=0;orthogonalLoop=1;jettySize=auto;html=1;exitX=0.75;exitY=0;exitDx=0;exitDy=0;entryX=0.426;entryY=0.175;entryDx=0;entryDy=0;entryPerimeter=0;" parent="1" source="27" target="43" edge="1">
                    <mxGeometry relative="1" as="geometry"/>
                </mxCell>
                <mxCell id="27" value="Private Subnet" style="text;html=1;strokeColor=none;fillColor=none;align=center;verticalAlign=middle;whiteSpace=wrap;rounded=0;" parent="1" vertex="1">
                    <mxGeometry x="104" y="430" width="120" height="20" as="geometry"/>
                </mxCell>
                <mxCell id="34" value="Private Subnet&amp;nbsp;" style="text;html=1;strokeColor=none;fillColor=none;align=center;verticalAlign=middle;whiteSpace=wrap;rounded=0;" parent="1" vertex="1">
                    <mxGeometry x="104" y="690" width="120" height="20" as="geometry"/>
                </mxCell>
                <mxCell id="105" value="AWS Services" style="text;html=1;strokeColor=none;fillColor=none;align=center;verticalAlign=middle;whiteSpace=wrap;rounded=0;" parent="1" vertex="1">
                    <mxGeometry x="674.5" y="270" width="120" height="20" as="geometry"/>
                </mxCell>
                <mxCell id="45" value="ap-southeast-a" style="text;html=1;strokeColor=none;fillColor=none;align=center;verticalAlign=middle;whiteSpace=wrap;rounded=0;" parent="1" vertex="1">
                    <mxGeometry x="96.5" y="290" width="120" height="20" as="geometry"/>
                </mxCell>
                <mxCell id="46" value="ap-southeast-b" style="text;html=1;strokeColor=none;fillColor=none;align=center;verticalAlign=middle;whiteSpace=wrap;rounded=0;" parent="1" vertex="1">
                    <mxGeometry x="441" y="290" width="120" height="20" as="geometry"/>
                </mxCell>
                <mxCell id="56" value="Docker Hub" style="rounded=0;whiteSpace=wrap;html=1;" parent="1" vertex="1">
                    <mxGeometry x="515" y="140" width="90" height="30" as="geometry"/>
                </mxCell>
                <mxCell id="60" value="" style="outlineConnect=0;dashed=0;verticalLabelPosition=bottom;verticalAlign=top;align=center;html=1;shape=mxgraph.aws3.virtual_private_cloud;fillColor=#F58534;gradientColor=none;" parent="1" vertex="1">
                    <mxGeometry x="90" y="240" width="56" height="34" as="geometry"/>
                </mxCell>
                <mxCell id="61" value="Users" style="outlineConnect=0;fontColor=#232F3E;gradientColor=none;strokeColor=#232F3E;fillColor=#ffffff;dashed=0;verticalLabelPosition=bottom;verticalAlign=top;align=center;html=1;fontSize=12;fontStyle=0;aspect=fixed;shape=mxgraph.aws4.resourceIcon;resIcon=mxgraph.aws4.users;" parent="1" vertex="1">
                    <mxGeometry x="339.25" y="60" width="60" height="60" as="geometry"/>
                </mxCell>
                <mxCell id="66" value="" style="outlineConnect=0;dashed=0;verticalLabelPosition=bottom;verticalAlign=top;align=center;html=1;shape=mxgraph.aws3.internet_gateway;fillColor=#F58534;gradientColor=none;" parent="1" vertex="1">
                    <mxGeometry x="498" y="237" width="44" height="40" as="geometry"/>
                </mxCell>
                <mxCell id="67" value="Internet Gateway" style="text;html=1;strokeColor=none;fillColor=none;align=center;verticalAlign=middle;whiteSpace=wrap;rounded=0;" parent="1" vertex="1">
                    <mxGeometry x="533" y="240" width="120" height="20" as="geometry"/>
                </mxCell>
                <mxCell id="72" value="" style="endArrow=classic;startArrow=classic;html=1;" parent="1" edge="1">
                    <mxGeometry width="50" height="50" relative="1" as="geometry">
                        <mxPoint x="289.5" y="671" as="sourcePoint"/>
                        <mxPoint x="339.5" y="671" as="targetPoint"/>
                        <Array as="points">
                            <mxPoint x="289.5" y="671"/>
                        </Array>
                    </mxGeometry>
                </mxCell>
                <mxCell id="73" value="" style="outlineConnect=0;dashed=0;verticalLabelPosition=bottom;verticalAlign=top;align=center;html=1;shape=mxgraph.aws3.route_53;fillColor=#F58536;gradientColor=none;" parent="1" vertex="1">
                    <mxGeometry x="347" y="210" width="35.25" height="30" as="geometry"/>
                </mxCell>
                <mxCell id="74" value="" style="endArrow=classic;startArrow=classic;html=1;" parent="1" target="73" edge="1">
                    <mxGeometry width="50" height="50" relative="1" as="geometry">
                        <mxPoint x="365" y="320" as="sourcePoint"/>
                        <mxPoint x="365" y="160" as="targetPoint"/>
                    </mxGeometry>
                </mxCell>
                <mxCell id="75" value="Route 53" style="text;html=1;strokeColor=none;fillColor=none;align=center;verticalAlign=middle;whiteSpace=wrap;rounded=0;" parent="1" vertex="1">
                    <mxGeometry x="372" y="220" width="68" height="20" as="geometry"/>
                </mxCell>
                <mxCell id="85" value="" style="outlineConnect=0;dashed=0;verticalLabelPosition=bottom;verticalAlign=top;align=center;html=1;shape=mxgraph.aws3.rds_db_instance;fillColor=#2E73B8;gradientColor=none;" parent="1" vertex="1">
                    <mxGeometry x="245.5" y="732" width="39.5" height="56" as="geometry"/>
                </mxCell>
                <mxCell id="86" value="RDS Aurora&lt;br&gt;DB Standby&lt;br&gt;(Multi-AZ)" style="rounded=0;whiteSpace=wrap;html=1;" parent="1" vertex="1">
                    <mxGeometry x="460" y="690" width="171" height="116" as="geometry"/>
                </mxCell>
                <mxCell id="87" value="Private Subnet&amp;nbsp;" style="text;html=1;strokeColor=none;fillColor=none;align=center;verticalAlign=middle;whiteSpace=wrap;rounded=0;" parent="1" vertex="1">
                    <mxGeometry x="447" y="690" width="120" height="20" as="geometry"/>
                </mxCell>
                <mxCell id="88" value="" style="outlineConnect=0;dashed=0;verticalLabelPosition=bottom;verticalAlign=top;align=center;html=1;shape=mxgraph.aws3.rds_db_instance_standby_multi_az;fillColor=#2E73B8;gradientColor=none;" parent="1" vertex="1">
                    <mxGeometry x="469" y="727" width="39.5" height="57" as="geometry"/>
                </mxCell>
                <mxCell id="92" value="Synchronous Replication" style="text;html=1;strokeColor=none;fillColor=none;align=center;verticalAlign=middle;whiteSpace=wrap;rounded=0;" parent="1" vertex="1">
                    <mxGeometry x="300" y="736" width="124.5" height="37" as="geometry"/>
                </mxCell>
                <mxCell id="91" style="edgeStyle=orthogonalEdgeStyle;rounded=0;orthogonalLoop=1;jettySize=auto;html=1;entryX=0;entryY=0.5;entryDx=0;entryDy=0;entryPerimeter=0;exitX=1;exitY=0.5;exitDx=0;exitDy=0;exitPerimeter=0;" parent="1" source="85" target="88" edge="1">
                    <mxGeometry relative="1" as="geometry">
                        <Array as="points">
                            <mxPoint x="285" y="756"/>
                            <mxPoint x="377" y="756"/>
                        </Array>
                    </mxGeometry>
                </mxCell>
                <mxCell id="69" value="" style="outlineConnect=0;dashed=0;verticalLabelPosition=bottom;verticalAlign=top;align=center;html=1;shape=mxgraph.aws3.application_load_balancer;fillColor=#F58534;gradientColor=none;" parent="1" vertex="1">
                    <mxGeometry x="340" y="321" width="49" height="42" as="geometry"/>
                </mxCell>
                <mxCell id="116" value="" style="rounded=0;whiteSpace=wrap;html=1;opacity=50;strokeWidth=2;perimeterSpacing=2;strokeColor=#080808;" parent="1" vertex="1">
                    <mxGeometry x="141.5" y="475.5" width="472.5" height="179" as="geometry"/>
                </mxCell>
                <mxCell id="114" value="" style="outlineConnect=0;fontColor=#232F3E;gradientColor=none;fillColor=#D05C17;strokeColor=none;dashed=0;verticalLabelPosition=bottom;verticalAlign=top;align=center;html=1;fontSize=12;fontStyle=0;aspect=fixed;pointerEvents=1;shape=mxgraph.aws4.ecs_service;" parent="1" vertex="1">
                    <mxGeometry x="169" y="507" width="76.31" height="93" as="geometry"/>
                </mxCell>
                <mxCell id="96" value="&lt;font style=&quot;font-size: 12px&quot;&gt;Fargate Cluster&lt;/font&gt;" style="outlineConnect=0;dashed=0;verticalLabelPosition=bottom;verticalAlign=top;align=center;html=1;shape=mxgraph.aws3.ecs;fillColor=#F58534;gradientColor=none;" parent="1" vertex="1">
                    <mxGeometry x="320" y="450" width="37.25" height="37.38" as="geometry"/>
                </mxCell>
                <mxCell id="93" value="ASG" style="shape=image;verticalLabelPosition=bottom;labelBackgroundColor=#ffffff;verticalAlign=top;aspect=fixed;imageAspect=0;image=data:image/png,iVBORw0KGgoAAAANSUhEUgAAAJwAAACOCAYAAADEpmHdAAAgAElEQVR4Ae29Z5NcVbou+GybmVVSqWSr5A0Cie4G4UGYNjSmMU3bcyJuzIf5MB8mYv7Y/IG5MXMj7j19upvTjWugAWGFJOTK+/TbTTzPu3ZmllSIEgKkkjqhlDu3XXutZ73+fZfXbrcL3MGfwkvgFYAHD/w3RwjAV49wv49M26kHFDwFHnyer2NApn3r60A7tQB0ba6Lcs+etb47bPyz2Lt39McTigxsReETTwAMDERV7qajx/3aFjpL9K3qO51CJBoyVx3jD16u23PbM9BeddJtvuNfgIMPAs1D4ACRoxBoMvvtBQYT4swr4BW5qFvh+YJlCSDhRFgkWK+mWkUPaoYoPvNOZC1X98xtPsOufD1RNQTIBRIHgiI38kPgOWrngWDrUyjuHyRkZMael/cYc3ld73m6l/tFlK5Cau+s237jjqdwhXil4YuUTSAixXPgIi6KohCYSkoohutlAKndVRAxxmn7c0fF7H5kqoOUzh59Z9G5fwGuhxgnt4n4UMDyJXQVTjnIKd+R3vXOJxvuX9PHXe+E/i6d55gJkexIo0Fz4LQ7YPOOBxyIKGQoyA4JriIAJF8ZdSJ8TCrzkXs5Mscag4LaaoSclO6qTx+IJfwKdxe7fDWlu+ry23jHHQ840h0DA0FC20c52jxCuSyDlwO+WGghCie2WETliQPfhBdv4KgZ5bxV4ppBd+CCO26z7Jk77sXLF/YyWt480DwS+D4oVxVFBtpDPMpuRYYAHaC7hLBoI8oShKSKXm4MldpqTphRrehvkyUXV7BOo3Z96le24U76vuMpXODT7GGifJZnAp7v++Cfl3bhpXU0Zy5ibvI8duzcjdruI6D0lnmU4LhVwPf5L+zbD5EXBYqc1NHo51UaK6EqGbFkuHcO5O54wInpFUBG+c0P4fk+8iyFl+fw8yay6TOY+eBvmL90GvnuQ9hTFIjGDiOMNwl0aUZNlQZjUjfTcvOsgOd78MVhezzaAduBTLsHj90ZoLvjAUflk0Dx/QCe56EocsSU7LsryGYvYOKff0Xj3IeoJU3UzyxjovCx934Pwd674BcJgqAiykbVgbJgkXsiXryX7it8mTxYGt9k+7vziJtm1L8AJ/ZGLwLNagRMChRdZDPnMPXen9H86n1UOsuIAg9J0kH37PuYzhLs8gsEu/YhCGJdQ/wQtIa2AL7nIS3SEmNrki8ycmPGax6+LXfe8YDL8wyBHyLLU1Q8AqCD9uXTmP/gL6ifeRfVvAGv6AApECMAkhUsn/sASUBK9xiCvQ8LaDQOm5JAKpmh8Eu/7GrclNTNpMbVx+6EX3c84IIiQFAK8EkD6cxZzHz0V9TP/AO1rA4v6yAgewzIIknGCsToonXuPSwmc/Ar+7B1+04EYexMIAXSIjfz3loIWsVKyWrXsuOtdeHtse9fZhEK+2kmF9XKwizOfPgOZs+cQiVvIcq7CH3KZD6yNIUfhkizFEXaRZw10Lj0OT459SEW52dRpImUDVqPLdTJtNe1YbIKdWufcpvu9TZ8PBw9AzSueok8lbnzjXIf49aKvBCFKlzUB2383EdTReDxnA68rI3s8sdYev8vWDrzHsKsLZCRTdK7wFnZc2P1PPYGmsILMXr4AQw99CKCsXvgVUaQBVUkWVfyGzVVKiL0XlgolM1xGVV8n5x61edKKF6px5YyX9ke2v420uc2YamlMZUG3H73c9MPLALEZCyqkh6CgPYzgjGDl7XQvnQGcx+/g8alLxHlCSh+paRotMfJlsb7Oy+EEOHAVjBEqcDE+S9Qi7Zij19FsOswCj9HGMfIe859UkmnUMiVxmeTRdOF0QeMu+sq30T/bW6PrQ0POFK23kdxbfbL+dpFXTjGivTwqT0CBdkiEkbCIbv8icC2+OW7iLrLCP1UNCMMacCVrYOwlWehxBx/C+KU7fwARdpC89z7mMxTjD3wC4R7jqLICDIqI6SpBkwzm/Bq82oUGVn56hnCECcpFu6l+gTb4Fi+60ajbGW7NzzgOJxGfXzHXByz0W6GFdEgm8ELaGcD8ixDhYPaWUFjcQ6d9/8TjUtnBbZakANZZkCTB6LsptXfJT3VXi9DlVQ0q2P5zPvIvAB7PR/BrgPwok0ksfJIkNWzLRldYkWBQDS2f1+12mGKoONnEHjmo10Nuv7VG2drwwNOA9kLjJRkpN4Xay0y+Ipx42DnoOsK/ENHdrbpD98EzvwTUZ6JshFsZKNku5nzFug+GmdHiTxGiVgcnACRJeZpQIaql6N99l1MZV3sfPAXiPbcAw81UH6k3Egxkv7anL5aR9lKWawPGTeBOI0GgefacKU5ZRWF7N/klt3a8IDrD495LPsBlcZ0MrqoPAIoReTlCNBG+/LnmPvnX1A/+yFGs7bEKEpSxkI9+H5k8pejkqUvVKHnpbGWsqAigzNzi2aFlJTQa6B+/iNkfow9fiSZLq6G6GQexEIDypmcIV+X1HA1FRObLZUDzoCe4nLL4uprG7bhAVcOj/JfOI5OKDeQ0EDhy68Z5Bn87grS6dOY/+h1LH35DjYVXTN5ZBkQBGJ/pGwU9smg8zyFFxB19JHyu//x3XNkNCbYPB9pRrkQiPMGWuffM5nuoV8iHD+KSmUYXbq96ACjna53z7WGoM+0y/cjJZQcqibw6vJIv00bYWutt90I7e61UaYP94ugYDiR6X0cEALFA7IugpzuqvOYfP/PqJ99H7W8iTBPxO7k93R4otOd2CLY/FBqhe5RZm/1720PzVLzwxIC1H55sZ93EXeWsPLVByiiKsYBhGNHEEY1FEUgTwS1VsFvFY49AdsrNR5TTXrvuorS9fZurI0NDziKQgoPolwl11QBY6OBgFJ4KYIiQTr5OSbe/U80z32Iato0PVPyVO7kNhs4k9kobxFClrllYDN7H88icWM+KiHtFYGx4l7kLxUV0AmGatbGyhdvCtg7TwDB+EH44TC8MEJCRYZCnYsy4X2pVFgwqLXF53HJe/Zb55SUbmMSOGX99t9mA27R7UT2QniU0RkhNVIK/1kXft7ByvlPsXjqdbQufIhK2kBU5EicgmDhcGRhRruMU/G3UUcDG4+JObuAc+soESfZ6fibvxSJ6Q7SsNzFUJ5g8ey7oPFmj/czBDsPoshq8OOKfK9KPSR4JdPRZkMQ8n/TZu2pfRbLm/cp3cZD3YancJkToPNcKqAoRJKloMxGj0E69YXA1jjzD8TdFdne4IUIyC4l83UEJsWRCyrG48ie+5TNhp05qaUCQVDYmdRqbYvehB4gpGESdAHibh3tc+9ipkix84FnEey5G8hCmVAkJ7JV0o4LZNKALQC09LPy7gat/pYe5Fpg2xvj3w0PuFL+8iX0e/IeRH4hBUEy23t/Ruv8B4g7yxgKPXSTBBktY2EFBaMuLeC3HFGN2lUKgtCVSwsVzAhGkSGizkKQ+nKXs58RcEJJjsgrEGUNuc26tNMFIYKdh+CHNBwbSEXDiN1MtA1smKJPfMqlPIdnONhJQ9oYALuylRsecBSY6KOUtSBLZWcLipa0USoIjTMfIE7q8puS8sE3WS9PE5OhSCF71Er8qjewBgVyS8KLA05t1BmGxUotwtdXBhePM7PLLtcvp3zwAX5ugZ2tc+9jQh6JXyJiuHo47DROelUDBEEEj9qs7mMAu3LQyt8WJuCoa7nzFv/e8IDLslzG1CJPREmQt9Ce+ALzH/4VK2feQy1ryf5GYxtNHhTSgyCwdD851TlCHFhzV5lRtxzEK8yqJZslQCnsK2eVQCmhSXOHbZvfwxQSaqM09rKzg4x2ulPI/Rh7iy6CvffBZ2hTnlv4U+mDKBhXV96tjyIZmzVBrg3G/hW31taGBxz1usCnwpAB3bo8CPMf/BVLX76LatZE4BVIqSB4ESi7MfwsU44z1YwufPHUnmRmTEsUy0DXq45EtxiPUpMU2ALklAUl1wE57TP6kLaFTq4L4Pv0cDAQAEgyRrQECIo6Ouf+gZXuHIp4DFt37EIQxaLUjCzhvJBMtxZWVuGM4N5Y8XTl1Fzr1TbEPrqulPSCAo35GXz1zzcwe+YDVLK2zBE0K1BjlVyfe/CjWKFCWZZY/BIZZc/uZaPZw06PuZqCQJseOTApG8FG8PjkoaRG1CpL47AexnAkUlW6y2jXs29uh8gRJ8uoXziFzz49hYXZacXYiZ7SFSfWbeaetQdhFerWPuUW3XvT4+EGvTQar1LrJEhcgRjILUV/JLESW1gPPQBejkraRdFZRjr5BZY+eB3zZ/6BatEV+8qyrgBC2uOFNLpyi2jpwvdZG4S/10poXv9oyfpPBYH3cqzO/BScy072o+1Z9kIhz+yFjGzJC7SiCrYe/DG2PPwCgu2H4dV2IfFigLJiZpSRxmIpERLsMhmXS2zb5KCEabRD9e562quHXHGAPkVXtaeQEmLypk77gbF7C7JUwUMOchIP9ged39ru2bxsv9LyOsvI5idx4Z9vo3HhSwyFMdJOohMCWva93GLbclLCDD6jLmUgZnmu74YdmcuJADaSaENvNjkZcrmfcpwG3UpJCKCkgDlw+fxZLBZ/w54TIar7tyjGjlpOGMXIGRzA6Bb1hHkyetOBc6f3wwBFA86Ve+23y7FwIoBhUr276g7f949bBnBG3UrR3QiRanwoudPGknU9ONetThuQJSna50/hzIfvon7+Y8RpAx0vk+0rZaRR0kUYkqoUCEKLdSTbYi04aZ7ECG94Q5/Vg2aUp4SBhUeJaBc+uvTTysAbmOzIoAJmihVdzH11CknhYywBRg//BHkwhCSh0sHGEbGMnctKQir48ckZE7apXOQWFyhK5yYmn1uqPZx4qz+8mjf/bibd6nt//a+bDjgzprKBRhfUSexfsiDFjpmQLiIht06qkHHOWkaAnH7/TZx668+oZW3ERSIfaCWKkSQJ6Npkyt+maoyx7dtQCUPHVvk8xpcTbVcOxNd31tpHHO2xBg5UV7Jn0E5IXbPdTTC7sIxGK0FKmdHJjSyGwwTsbgGcuTCDfZ0qTu45CkRD5i0R2PptJEx0Z/c8ZxE0H26P4vVgpgKKPJ+Kjj7uOvvxw/970wFHM4TYDdkGpzOd24SfjKsUzm3A+C+pB2vu0u4lSpED87PzmF9qwG+tIOQ9yDq9lnqSuaRe1sSOkRq2jm5FHCsGRP5JynNyJ91gn0t6unIQKcs5QKVMcw1CdPMCc0stzNfbSIpINkAadgM/RZpmyIMA7dBHZXEJSZEjYBBCYHKrwFkiTX3ARpduNKoY9jHq6cBWVut0x8pz7GfJXt3BH/DrpgPOhDS+sXWJLE+q2+HSS1wxQHa6LO4EFUHqk1qxCmWENAHIUeIolrudpRZoa0u6CaphBZkXKdybrFiah4Rve2I5jjfS59JOdW/yMOanlnzaDLgMNacrjWy+kwbo0tbGieRSGoo8RMH3YV0STiyvQBh6cvCvahfNNa6fjHXyccYSWeukf5TdyYnMPqU9z+Vw8GVJ6Vajb9Ujvu8fNx1wDCaSWMM3zR1FU+dZ7FhZU1cdIXQwZNs6U+xEgAzAojQZZR6FknsokhxxVFEKYJFacRmKK7qGcqH+Fym6sT42oU33KJy82bshB1aaMKkRC+VwInjwGU3MxGmOPL0KTMbJGRwKhAQsi+go+oWXW1vtnrwh395H7groUFknU+ek4kuRAxCE5hnh9ZQXaXg21s/b2RZPl2Wx19wfYuOmA66ccRoXkTu+tjMzyKzA7jFqoMwndXAKj/YAn2J0aFosYhlZ2YVil0GMTreNOIxQeDwWWscLdY4NDY7lDfZ2KSOZ96F/M1I22uDYJtrxaL+joC+lRag3uZJQSlKjVgqLV/INTS0lDaZLji9f/rZNuvX4bNvLvrI/I2PcW5pMHAhvcjHrmw44m33UIEPkGbUyskyyU+t8sQl5pAxIGtAgVN6ngiurNRSVISUqR5UYSbcLhidJCSkqlm0VUxuUYCgsi80w9Dw0bbUPj2+z5QDgBHYnmrsbmQeEbiwCx6/WkKUEQCx2x4z/jMZoUp0sRVjZBI8eh4BekQA5j/nmFhOQRJ2M5SoJJ6cXA9LE86SDUAGg1k9EIKlamVpUvplRPjJmM2IPEOjylO/1+6YDzus2EdJqn1P75HARHBmCkB3Hd2fPkcaZMGz/stMZFR5h77GfwBsaQZEkiEOrEaJARrEoMxd4y5cRJFPIixY8urccK1GOQY+C3Hg/l2DjoJZKg6JZWCsurmH30Z9gx8gBpNFm+VZNcQktCoWKQrWGrXsPAkGMjGAJImRKBOLESJ1JxANl1LxIwVRGKvd+mqDmpSi6KYowlrGXVI8JO6vjN9WhonnKG5Ni88OaRW66pyFqzmHy4kWMbt+O2tYdYL1JhuyUupeiYpmAIos5QZE4LuwhpX2ttYBuhzKPaZ0GUsouGSIOfLeJqU/fRuez1xE1piQjlYAQbbrKPnWdwHPaKIeSBtryMwi4dhEg3TSGzXc9hO33Pol8aJsT59kCgym9CjQWspxEPLwJhU9RgLmxlNgYpWIaOFmqJVVbmbGYuftZF/nCBSwtLmJ0/3GgOqKMfrF5x4IpfJBrSOmQlk9/L7XVHxZwN53CMT90+suPUL8c4ciPTyDYvh8+YqRykNM8QC7oZqZCkagFElwsQhMgHN6CyggpJN1H5l7ioDPJhQJ00V5GODSClqOeJGiMg+M3XUs9hbJEynV+U5RUSJL0AwoIpSjQBx+pKidMZXgLqtvHgKFtik5mI4rcNFbxevE3BhtYjJ3A5uQzlafQbKKSZexQclrWRL4whYlTb6LebGN092HJc2SZJk9aO6R7WDfaGw5uX+c738jpNx1wpFhBax7L509jNp3Hjgd+KdBBAxHBK1J1INek4qCJHqjjTThOM9P2KK+wg40SmsYXcfg1/gxmJABZqZyII8Uw2aukpN+2E6XncfCkoZptzPybNqIsJ6EYN3kJmBdrlMlAqgtNg6TWyXOVyshJRUWjr9WIgpOKMnKeSgh1VeZkTJ3H5GfvYe6zt1EZ3aV4QJmFosjMR9LoS4xRIHGT8iYBrhQ7vm1/3/h1foGo6CBuz2Phi3cx9cFfVXkyQoZIKXriVU4542wlYGgQNdmOZhCCjeq/JaWQtZEKUO5hHZFIA2MluYzVUh7U57uQ35RozdFzFI3NMsS5R7A+CRUDa6+xfEn/is8jAEjJ9A6uN5WPQQcc/b6cSCwJ4dn7UeONA6BStNGdu4jlT/6G+U/fgl+fkhwno4copxnKSTT73hwzidwkrOntbjqFY5krzmYKvlHeRv2zNxAWGbaf+AX80d3IgypynzYmki8Oj7OSC3jS3UyYdhiifkoZjTV6aY9iZC99qiY9q/69wJvLREwd+EY/BIN5OnknAouDTDuZjNV5BlHhnE8ymc2jzUzKAGsBm6tOuQzUSHPfCt1w0jBbXwoII0QiZ/AogNRqD89+/gGyT/+GqFlH5KXws46ZW1h6QhUG+EhnaxPKKMHZxJCJpZwkN9oF13H9jff3dTxsrVM5m1WunupCkSBsL2Lmiw9w5qO30aovgcZUWdVLGyr7UOXtmd3kACfjsdNqyS4p48nSnrvizhxom9eELDmVur10CKzVsPXu69kVyvvT+8F2cXAZf2dzmgK8Tw2ZECLnVZVzauSp7GuMCBbTZ+PYJ3Rr8ZZFjiiksdvej/ubi/O4/MWHmDn9T3iNOdT8RHm3eke5BM3AzLd089C9fu+X4xjW5vW+6ndxnnrDiTUaQGpNNkOp+UGCuapys/soZyj02RkhRXW+HZEs/ZiUrZAwPo2xtznioolg+TS8U3NI0ylUHngR4dZ9QLwJbZoDaOr1Y0VY8FIvN6MnWZKIHnKwNhJBWZpDyU4ZD8aoX1Yz4rMpK6nOiEaVOOgPxqqOLY+XO915orS8THIjgzGtH/yi7UpAMHqDgKLqEtN2gdxjpr/VEKa7i30deMPIUk4ptpHUkqUpiEi+RaHw8yRNQYdYxJook1+i8+HryE7/HTubC/D8igGVZiKvKiGPTWxnDF5wwQoUQUhwNe8MZF7BY3S9lS5E0h5OQ/ZP36yT8zhdakHoAkotgiXn+3B12fz64gnVS+o016HcFktSYkpJgNkOAxtPU/FkkXob5HIsruebnamPXppLc9D6XsjUwUpHRbeDidOfoOaPYPd9TyPavg8RAxNZAosyjavzxpg4fgwuvbvaHh5yjxGgetUpmT/AjjMZqbzaGnTFvxqkK/YN/CQ1ZRYYWVT5KIqXDDCQyUPvZ6OtenDlxOXwktRRLyh96exOGoNN05EdjuHxzEILihTZzCVMf/wels5+iqDVRqR701xCoPB5nESmxTNfV3ND7eBxEhJ+848fsmmSeM4Y/i73cxhKsQUIaQtkRSlSZIaBuggbzgljy3a39f7LqamPzSpzufT5LI2MBJjV5yA1yjVV2E7SD8/V3ljv49Y4j+YPQpyebbp8HLtkZ3krU+icfgvzRYIdJ55FuG0fUmU00YbEjnFaHN9BphIaUPhDXaNO1L19C//OGenrhaJwZGUEb0nZrBv6b66WCgAu3e8KSsdJyY8vCmFX61naxwQbWzmaNUfoKy1EiY2qEZDypvDbJc0wXk1zhwZgehpI7+UeocadIJs+h/lP3kL9s3fgL08hYhpuUIWHrsw8vA+VD1qRydD5Mc3c6Lz6hd1SDngPYEKOkT9Hvdl/JQVXP0k1dhODt5aft0CoSgF61Lr/MT5Qnt4LfbEh471ZL0NAU0y+yVukKgQb0Z6iW179Lb8J5kCRuOZNsMqQVNCYR5rUp7H0+TvIEWHXiacFOkZGIAyRJGUEr/WjZmaJGQnp5sxn+xXdqw63quUEgEZY+9j08sKB1+gdcxi2cRw4oaQLBrXSjWQcoxQQTSdmGzwF6Bkl1xNVasI8CAQoTR9shw02UwupkaZIZy9g7pO3sPTZPxC35qW90wMBKhiirnzywPPkZmbjy3tqPjobYfkSnDBOKRHAjNpzj/a7CVZiUARAx3iUVgD2V3mvVV1yzR8htZjex56ln7ypERAaGU3jo+ZHamuaGCMwqO6vMVC9G669UcpvPGqUwskFjDNSpEgg36KoA4vDtOax8tnriJFg9MTPEGw7gDSP4ZHFqogCG+5kCbEQkiYyOgKBuGKML+W28mlm+BU77Hkw1m6rBv8alM5yBnitDZ6NAakan8zdDLBk28h2eZaZsWW20fubTCnLNZNyvEhGYWrY1DyzmbOY/ehvWDz9NsL2nORDugFZHZj5qwzm9AP2A8WSQJNIrJNkVBhkOywiR2SEAZ/iDjzIjH8SDPEq923N1vvwvflCOt/aqZqdcpvFSMkxytPX+R0KowSNkn37V2loZN9KERYUWik8MnTGZqEafwWb6V+9zi0CoOggyDtuEQ3emwIqhXEjvkwB9JCgaM9j9rM30QkijP0YCLbuRxgFipS98mmkMPywM+j+opBENxFvTCc5DafWUQ4UV97gyt+Dp3Hb3Z+n8U68lw1MeYCTmCoQ34PkphRJeCkHzqgRRS9KEWSdZKOiLnmBCilh2kA2d0F2yeWz7yFfviw2yusL0I9qlNJjtIxEnRQxxydpoMga0MAyH5KfUvRQwx2BkYuFIolTGtaCjoaDLLd8VozCqyKla0xT2d3fnrKuf0OLiSfCrdsMzpyN1Jwyxcq35qfh1WcQMAuKwqNkynIUyu9veF4JzpJGu9OLxhTQmpdJRC4bZzbQIHEYmbkUEDgJ0F7E0udvIMhT7Lj/5/BHdgLxVhtu1wzP1QW3rjB2RgrQYr9xcQ/Gy1EwlexI+WaAwg+8grG1/o6vp3SkXhwZDpwDnBQI26bnI8lzdBOaSyyXQR4RncteLwePIKS9JkORt5DNfImFT97Aypm3EbbmZSEQxeZymkqvNeVAWVgWIQevO4/s4inki1NqeOkak31FnIhtKt/XQN9rs2OX/d/27pILg4j+IMQjYwi37oXnU9vXbOqFyvd76tpblJrtDGew7J/OSAs6KLuYO/85Fj57B2FnSXkC7CLJRbIhkZx/+0+VC6jVFyw7XqzLAwvUcGgsp9NcPgw5onqRNGaw8Pk7nOMY/8mjCHdsVrg5F6Hkq9CXaW9kAyjzQxijlTAoE6iEdHiZ8mNyyUDbOR4ijwQqWd8VM3hwbnGbxEvXcJvnWgqfNYTwIKmO0E6Ahk+/bQyEkd6DA0ZPAs00YRibaYQFeMhGZ78S2OY/fxNea1oaqkrB8jFu4irtkJRbwZYQq02WpnDxvT+jTcWIrRcPt8qcmQDHlhlFs3czE1jZA/a2JSDNR0yyk4cxEr+CnXc/jPHhLQiHtyOVe628cv3foXx04tUSMHQlrQUSYjlT8y7QWESwNIGwOYdAncrZaqDzHetb/yNXn8n70JJkbJDyIruilA+pRNMwyihZvjoNgxHSxhxWTr+D4XQZtUdHEW/ehjDahHbKsg+kzgx0LFydXkbHRjhzYRpjaGHz2CYQcpw5Sc5VZYxS6BkcJhEZ63QWJJTFYaDJV1E6mQvIJguJw/IYMB7P4yIiHjopMDHXwBx8HKCdTBScYKA7gjw1UIGdwAsd2L7E7Km/YemLtxCwv2XK4TygKYgNIcgokxHQJTvXdEOetJAtXrL1X9WnpgLIpOU4C6/jfTR3JGeWs0g3F1DL1xUOPA9dL9b6E15z3vmjqfW7tMfy8vKib/gOlcQi1b2cqpzbxDp/0x9psmc1z7SGQSBDYDbgL7yx8BZL0GUr7YXNp0j+52aahBwesyhgtrfqAWl9GsunG5ip7MKRHz8Cf2Qv4rCq6FdKOTKTUPRIC3S6GbppiMtzc4i9Lvbs2qbjDAWipipliJSDI5EVCKk9EhgpI4tLrXGgJwc62VNCtUWe8HraKMk6Gbyb5AFmF+s4+9VlVPb/BJSEeV8Ffio9kBOrQCWkRspC1+cxc+oNLJ95D15rDmHREcs1cLAOD7esbQS+KIvzs20AACAASURBVJLkKzdBYH7pMrZZferkN6NofMUywMD622kWWgCFb0hFSh9NCFZ3onmnQDdrI8rpOkslVlGhc3Ae6Jhv3mSYo/kZXZyO3omdTbIs9ZoyCl/NEwbIOQqWgqcrRhb7b37Itc7QLJVB0r2ojJl8HOtwEGdkqWRHAcMkZL8Se80T5PU5tL54E9NZA7tOPItg615Z9ZPcQ8iMLdclURgpJzRppbgwtyK9dveO7ajw1Z0binKi2JWiNEiB+tLOmuzVvZQAKQ+BMKzgSLLNdpJjen4Rl6YXlEmfdWn3M/cUx5TJP3y/IGtpGUyuXjh76i2sfP4OsDKNIEzhhQE8Jm8LT1SiDOkCmvrMKnFyt7N/WyPIfXiq4t5s7Mox8EX/eEMjK4mb8dzDM5X5ZT1vE1CilkWxiCrbkIhAEHJ2l/Lu3/xtgHOshKezE+j3s+E3v57izDh4fXLkjK72yG9+zLXPYOjRqpml0zl/qLFSwyT1CRS7RpOAtDoEAlW0chkLp7uy040/8FP4m8cQxkO6trTs0x4RxTU0vBBzTNNLM4RBjB3bRlGToZlyI4sHUiFiJIrlIDDezmjH17efsgxlJV4vRcQL0OoWmF6o4/LUHJZbtFRWUeF9CTAqoM5vyjcM0UY2dxkLH78peyMDUsMwk9buMCWgKTWSkBDmylaZJ4i0zghFb9SkJ6zZ6v5NrzpsoLtCkXKEnxNQKOaCKVo6gDvUmKvuc60dkrT54pwR1lye7pReTcUCedqR+YJ+N6XE+SwZby2RAfVaT/iGY1zLSnKJ4vwpf7EiJV9O81ht4Xul9AyQogYMtswMIPBQpem5MY36F3/HTNbBzoeeQzS6B4VfkfLhBaw0yTpJqep7VOJRNNoNnJ+aAyNxD22vKVSbrCbNmA9hEbWM1FjXh+cp74BcIUKrCDBByjY1i3bqI6HEGFUV2k45LWVUTGUI3bQjG2Y2+yVmP34fK5+9i7hBSa8rP7FRZxtQA5O1hpKbWLfrf+4V/KQBk3Q6wuQab7oo36UEaZ9tcg/XQuH9VbpWfU4gyC5ldxDHoZkASBMqkWQFLgReZ1yfSBUq68exTAFWLqKy0QRbF512HVm3hcyFI5tR8/rR7fpg9Rdv46JmzQljv232eEiZQa+lIcWHNLiKFmEfFqQQJPdA0phVia7MDzF+4qfwR8YRVjcjzQJs2bkbu48cw8r0JLqs+4sI84022lNz2IQaRke3oVqjm4giHMOFyJL0gLVnMQ+51zdXWaAk7lYnxeX5FVyensNyh4J1iDyKUYRDGDt4D7aN7xHYiqSDKG2j025i+cO/YvHc5wiWpxD7VJG4KBw110iykmmllNv4MbBpS/ORZhVTHuwof7Nxqz+WbN7fLwCX7TdvWC9qmVdK7LN/jM1StE276LabstdSf3eXr37QOn4pC0O8W0+yjiTR0ftw9uYF0k4XOVfHo5FSD6M6TZmKXKQ/c9bxvKtPcZRM+ZSUCOhykuxBFkRqY5EfShFWezIUZlMwgyRj3fwccVhB3phF/fSbmEWKHSd+aSE+foStY/vw+HO/VUjcmXf+ZAnHSQXtro+JiRnZyHbt3IFqhRHGliNK8DPRmtrr4IfynPW2URNmm6V5jk6aYnZ+GZcm5wU2hENICqC6aQv2Hn0QP/31HxGPjllEMnMQViYx+eE/UJx+E0G3iyBIFOUSSPiiBkgDNckVw5rYggFKIm6kliBSRLQpKsaXBjkVmULmyohxnDiqRjtN9nKGX8Xz8ZCdY1g25YJ34xgw8LObNMyzo/Mswnqwb9az7Q8Ep+p8shbOGnN/0P9HoswXpzxFAFCOYCSCi7Bdz1OueY6ZnDV7xcJ5MnuUvUw/WqgUQK1X2ov2YEdZci8pgS9NMxGF8JszmD33Ic6c+gcay4tg6Xl6GXYdugvPvPgqjj/4MDwmI4dVdFIfrWYXc7NzWFycV5UlUhSBjOs1XAG2Va/hCAbbxcqaLDkxNTmNTsIBZhpjhqgyjP333Ivnfv1b7Nx3ENHwJgVjtlcWcfHUu5g580+gMYcwaUADQTOUE2PkUWAX9JQXi/Mj9eOjbZpTenP7Jb6zX8xor0khYJSttquoJHGEKadTdraudpPKffEKdb+8Grwf20XtNCHvhReQ7HDiXT+xCVObPppBep6WZGRVHg8Vl8gioZQuFMY+9WY9C/qVL/Ptv2XXKy+X/ax8axpwne2JA8+QJccu5AQXMAoktM/FoeS1POsgDnyES+cQfLKAtHkeeOgF+FsPAJXN2Hz0Ppx47f9APdiKiff+hihdxny0FV47w/JEEy0MY/fOEVR9PtfZ/7TeqgnSjE5REjNxwM4uCiwFNUxMzmNiLsBKZxto+WchneroKMaPP4IHX/vfsPmu44rj87sL8Oe+QOeDv8A//QHGmotSG/T6LkJXVgARG4oLHHkCxahbKcuRRtnicDlSVfYUbpy3wzrT6B+32Z/8s8GipCBVqKc8WISyZD0+yu0n4AhOKmuZbK18YgVF6ivRiwTH2L09b73/fgeQWe+jvp/zVPCF4+EstJTnqN2mrRZmL5/HzCcfIF+egUfZrciw+8BBPPPCKzh04hEk1RHrNN9Dq93B5clpTM/MotlOLJyIPk9RBC424tbUYvybCuZEaCUZpmcXMTc3j2ZjSbOeKY7R6Cj2/eghPPvaH7Dv8GGlJjKeLV+awfSpf2Di7KdIOk0zoXw/3XLL3nV1eNIt28yvbxhlrtJBbiUS6FAyH2y2MIOFU/8FP+1i+wPPINi2B4hq2HHkbjz66h9Qj6pY+vt/V5h36gdY7HaQT87Jy7J3+wgiGYAtBLwIKGWShVCmidFIgPmlNi5ONdFstAGf+nIHqIzg4H0P47FX/h2jR+5BEVbgpR1ks2cw+/EbmP/8bVQ6y6JeXkA/h4V3iWLqNUsK//XvbEdIjvhZ7/nu9Jv8teEBx2AC5j1QsJX4I6+yj9BnoGUOrzOP+TPvoln42PvgT4HRcSCuYcfhe/DkyzE+aS/gi1Pvod1soBZHWGkvYXJqFlUu4Ds6gmo1BAM3A653nzJs21xikzOzmJtbxtJKgLCyGV0eGxrB/vsfw8mXf4exI8eQBWRBKZK5CSx+8jaWvvgH4vYSs26RtjqI49oaOuXaiCC8Nha01n6PDc9SM9YioRmDLFXyFmuv0VjCfQkCeizqM1g4/T6+ev/v8BOWMA1RBDWMH74XD7/y79h931MIh7YjTSi4hOh0O5hjnTbSM+YFsOoS8wpMV0E36aLR6GC53kElHgJrwHm1rdh/30k8/ep/w/ihHyH3qghpw2rWcfHjd3H5o7fgtxZU940lJqKYsW+knk7Id+NDP6n+TB1QAAHdUhL0B4VmyVtrD+qtvHfDA46dS23SBNgrNEsX1EvPwtSl01iem0S7UZfBlYPKAIWdd/0Iz7z6Bxy6/1EEtU3SyOIowK7xMSsSk3EJS4t6FqtmdEcQYdu2HdhErZNArA7j4Imn8Myr/4adB44ij6qithTQaTRfnJ3C7MQFdFotl7hCAzZj86xM6iBA+qzV9sqnO0DbSkY6eM1G2t7wLJUzxnRI6llc48C5pVR10kMj9XFxdgmXF5vYnHuoVqtAt4soYJYUY4SqGDt4FCdffgVvo476p00c2l7FaC1CLfLQTbtK02N0LcOmCIAoijG2tYYwS9BcLDB+7GE89PJvsf3QMSC2fAs5QOXyytDJCkwutIBWgf07NiOMabvrIGT1JtrarviUGmbpcLfDZKhXn3vFpbf8z40POEX50KlPfkf4sdgNbXQBGp0cFyancXmhiXa0CYVXQaeTYGiY1garl8bAHlKb8UMH8eRTJ3ERc6h15jHEkFmW0HLUTfITXctk16zMlCXYtXUz8vEx/OipJzFy8KDyLLpM+WNYEwPWQioYdHkFaHQLXF6cRZBl2L97O2pxrBoiqnN3FY6ci0pBsGSnfemtv3XLY2vNBt76LNUZX8kye3Yf2Ydc1zPQgMsGaWCZcW/pb0vtHBenFjG72EGzTcsV12lg7TWz59GeRhMG7YAF48gun0V74gxqXhOV0IyavC+DCiywgKggsBNFd4RBjtjPMBKkqF8+jXTmHJCuIAzMcEwPBP3MzKRnbBxdbs3Mx6X5FZy7PItGx1OlcjmJaEx3H8qJMubKz0JFoZTerkJlecmG+r71KZwMnyan9XrW7SMAaQzlgrfGbRhREqPRzjA5V8fU7ApaGWNcQwReRbH4YlMBKRDDqwoU3SXle058+Hc0L32OCr0ZKqrmKTzIWB49Lb2nS9Cnd4OfSrqMlYufou352HP/06jtu9tKO7CusGr1R0ptpLxII+pKJ0ew3AYwg717xrGlwrzPVHIlI4AZUq8cUCUTmSORct1q9tpvy0bbuuUBR1Ct5WIqqZ3WwlKehS1FtNwqBLaJ2QbqiQvfCX2EtRqGtowiimrIMld1konXlz7C1Kn30Dx/ClFnBWnWQsjlwVkkJ+kq4pagliuIgSFuhMuCNXHWht9KkZz/AHNFinGfKz/fbYkyYYAwrqG2eRTVoU1or8wgqtQw32wi93N0ZxZw944KqpWaPBGqgsmlLb3Mkr0ddd9ooLpWe295wK3V+EEQqoqSYBBiudXBxMwiJmaXUO/6yFjUj+xqaAvueeQJ3PvgQwir1CAzeFwefOaS3EzNy+cQtZcQ0dFdxsdRFqPbz1HTsh1kcJSqTF7MEdIVlLcRZT6aFz7CxSLHvocIuuPIUx9RpYL7HnwUjUtf4stuCyvzs4jCEEutFO28jk15AzvHxzFcjW3pVd6PebrlRCMh1fbtQeVuecCtRd20TwEEHoIsQu6TVSW4NLOIqfk6WpkVFCDXCzZtw/GTv8Ajz72Mkb37tbJgWHTRvfgxZj9+F8HZj1ELuBJzSxkxUVBFmtCNRVmPDu5+jBnxx/g9xVSIy/pIKVsSl0kLYd5F59J7mAwz7CyAePc9KIIhjIztwWO/+h0Qxvjsjf+B7uIMgqCCbsfD5MwyOkWIPePj2DTE1WealgYYsObxQISIDL+UIY3GlppsORE2yvctDzj6MjnDSxZago0dzH1c7K3eamFybhGTM4to5iGUJuz5iLZsx7EnfomTz7+Kkb0HJRsFWRvNybOY++jvaH71KUZzC70KKOxTRE868DmodFq7wje9wXSDzd8acFIf3yKPsySRmYT6Rv2rU+jmVez1Q8S7DgPRMEb3HMSTL/4Gvpfgkzf/jObsDCp+iEbiIZtflrts965t2Fyrosja4MJ0JfvuPf822Lj1ATfQyavA5pJQFrpdzMzM49LcIupJiswP0IaHzbv24eiDT+Px51/DyO79ls2edZFNnsXsh39B+8Ip1KgwcFRzlrBgGBQz/1nMGciSNvwocnFA5dAzoUQXWHogaVHA6JAUVeZqZimSJitettG98Akmc2DPIz7CnQe1muGmsb146PnfKgr4zJv/gWRpBkleQZ5kmJmdVWHtfbu3YVPkkm1EUq8/BGigy265zVsfcAPUbbD3SN3IcqanpzE9y3BuD36liqwIUKuN4Oh9D+Op51/Gpj2HZFhgiM/yzCSmP3wL3YtnENRnUQsZuk7Xko9UMhvDp229rjAOkKUsn2VgsxhXy+OkFFcmPlt1I+bQkq5ygRLzf/lJA4sXP0fdH8ahR4ZQ3blfyUfb9h7E08+/glpax2dv/gmtpSVRyXang4XZWVS8FOGubRiuUvPmBLgt7L29obMlkmX54YrEtDnZLLcOVtwPcuZwBjWaVJWNTwd2VrByJQfLouZ7d7zOjchPkCes4+tpQBItX8t0t0TVeVhWgPYwL6T8wmhfhtwPYSkdxuXJWZxbzJHmmyVXJUkEbNmB40/9Ag89/xqGdu+3SufpMtLz7yP553+iNnkW1fYSEDTlxgpVn8R5xmXpoNPfop0c1mR/M6sIbXxl8CP3sD8qVsMkSJRCx8hkpveleQNbOisozi6gnc+gcv8zCPYcR+FvR2333bjv1f8ds/E45v/6f2NlqYFOUEMnA+rTXXS9DvaMxdgUV1VDhFEwUlSUAysJEpbYbHXu1D9sJccv5ALE7DMzJfE8atkWZl5SarbcxjbxKhp9ru1F2xLnC01MljDNCiYhCmr2HoMvGY2dIWQUON2GSqYx89B6h935YXi6u1C9bBoR8yuZuZ7kPupMH89p9GSyMTvdkXo1dB2PK2fqFd9BtoLa0DBiVzyPg01xne1hRhSNpop54x4aeX0f9VaK6bkVzM7OISlCdJNMi2rEQ6M4dvJnOPncy9i8a7d8pdT22gtzmPv8FBoT5+E3l1UUhzmpthbpOtp+jVNMeLe+MI+AG1TXnUXSxczFs1iqbMfu6k5Ux0a18Mf2XeP4xXMv4JN0Bu/9/XW0V1YQ+TnSbhdTk1Pwixb2ju9ELabPtSOlWMs7SZFgptgVGWU0ZBOwzVT1Tph3wmx9EgZ+DHRa+8nexuVsME/ForzLigV2mP1GhYnpoGmng3bB4oMkLkwRdbXtBgzWdtU3/+vSBIluIsE6i6o/3TGswRh6FSw0c5w9PyM2xHYyzJx1JilYq93XeE4p7Nu8NOrAp5S/N1faOHjgMLZtrsLPEvgBU/VofDVHPFdjkY1VwZChDKeTcwu4PNtAk9EdXNK7OoysNoLjT/4cjz/7KkbGDqg8AcO/I9bYbSxhZfo8gqQOVUBVjbm10k2u8SJfc4i128oPI2TLYTMI+vLZdjtNtOangE5TXCTLctn5to3vxYMv/A4riPH5W39Cd2Ea1TACc0UvTy8qy2z/+FZsiq0mMNk2w6T4YRkMpjFy2MpqmivNNj47P4kGSxrrHa1i1AB5UMa/Kd4c7/440BfDTyk6lEcYhi45N67g2F4mhsfIAyuXIZl6vQRHd5e3jw+yhzNG3Qzo5eMtoqKbB6h3CgRdUlVmq3OxWdqpboydsg3U7vYyZFKs2Q2e5LPELWJLbZTRGhHq7VSmj4lp2tnM8Z54EcLhUfzoiZ/jiedfwejew2DOMfshInvpsJJQCj9tKeeBCTgMVfcySmIMgOwDxvXJdX2R4ouyyUi72u8pSCdtLcWUd5sKxGRerUcWRVugH2B4z2E8/crv4HsZPvv7n9BZnqcLl9IgLk/PI/QL7Nm1HZurFWGAHosyIZnPVog94wEpknghVto5GhlDtMjuGRxg1JAkhR9zlZH9Mq/B6scZGyUPpqRbjqky3pEUlpIZsZa1F5tdk0AVUBwLdvdez1eouHUakvqwE875MpIbyNf5bLrFFXLGDmYMGimQuYiu9SDNgmucwOV9VNWbCRpFxy1NZKycyb+ccWTtS+0Ml2aXMTnfRCsja3UZXcM7ce8TP8Ujz7+E0X0HkTECWEsClXTUCkwHFGqYX8tgSk4U+kk5e6/RtvUcKvNqy3NNi2Vn8rnkEKR6lDNZl40sjbIoWRWzsQKkQYDhHbvx5Mt/VOGbT//2H+gsTKJWqaGb+rg8u6J32j9moKPZhsmEFDMU9s5qmVKsTAazpT0twchMK2SrxlLFnXplCS3tkj3M46J6qkJQvgm/bT0yVgnwo4rGXC5BhmyRubAMhhMdBq+61jYX6TSr+cCFBBrhZgTWDshnyVJXzJIquOxQV2WotIb8NZ4wcNu1z3KSuR+wWpOtJsOOZIIuE3lIwleaXUzMLWNiZgmtLELCgSpyDG8exdGTz+Hkcy9i8979KjpNMDFyhAI0k6c5M9lxDAXiBGEncY0qj2SQpOSG9XQTQ2zi2rPE56WAOVshl60kADmvSXlk7rDBYiphFFVRHR3D07/6gwb+kzf+hNbyHFhnqejmMg6TWu4d22GUjsUvSSGZUcdvcQe2w8pvEASc6PTlliINqZe6wtkSHY2xdBzZtk0I6HE7N1qsupBQOFRdPTuHmjjfhW0oxbC1B/fqvaE5hSUIqEVlFlVJ4bRoBSPvOStZ0IbmB678x/VJUwqSZUOvvvm19pRApGM6y2iK4DpTVm5VDCKoSPhdaaYC2uW5JdQ7tnIyKe3Q2D4cf+Bx3Pfcq9g8Pg6t2FfSK1IzdoVMFI4lc5cKLueytxFnCg0qxYlrNfYax6jIlB9TIFi2oqSbxgk4OpywlMHKosrkGuw6Mj6GMjFpu7o9xuMv/k5VnU6/9Z+qncKaxs3UvCikRAfGt2FTzJUGWZqCtUco53D8OFmtdh/ziElIRAUdCVLeB7mFAMdIGVeI0AGQaaEW/Gl9Z+cz0Z569yDpsbclJWV6pLJIyw5Yx7fmt5FTI6u8uWgbZyMF9yBCZdMoRsYPoWjv0qM5a8z1w5IPruHreNjgKeUM25xNI6wNSZZix7NOB8O6uQ4qZbaLsyuYmltBIyngVTapDH24eSsOP/AkHnvhFdT27hfMKMsEAU07HHaK7uxcsrBMK+8xrJsRuwEz2rNUskhZAX2wXde7LdYoKc5cYAY2A5iFNZG+mqekdFXJl0sKyJ6WfGpszY9ibBnfh6df+r0SeD554z/QXZ7TgDTSAtPzy5Lpdu/chqEqS1mkLpVTTBaIqxjetQ9FMSyzSC/3lO1TwjTpJOVWMVKXe0rbooW5Ewf6MOzdbSvotPAQ1YZRHd0hDmdZa4FWfCzTCtfbb6QpmmVmuBGeHDtVoVN4QQU/euwZHDh6FFnH5B/5DoUYQtNmxHofWJ5XynZblz/D1OlTyJfOay0CCgW840qa4+LMIi7PLqNL36jvg8GN3uaduPepX+KR519FdXyPNGlOb+YpqNg1J4kCMDVllcG+ND/nqBqFUHau0SIanZy6VDbrur8NNCSXJFfWdrEK+V2tP2UXS3LUF1dQpTcjdpo339Rpk6XsRfMxQffYC68pUfnTN/4n0qVZUcZOWuDi9JLJdHt2qkAOJxeDTRPPw6Zdh/CLZ59FK+BqhAQWFQO+EuP6ykKEpLGkiBba1U+EXz2OJeAogqSczGGIzTvGQCWNpTcosvDWJuevv9tC63AHurL7XQkrdWIYY8uu3VpeUsyDg8W3UAkCyiGrG7reR/eGeqGC+clLSOa+QkQaFIZodhKcn57FxNwK2nmgbPYgjhFv2YWjj/8CT7zwmmZyxrq4en7J1spvQpBSqAnu1ibXTs5cAc7OvcKatd7m98/TiA7AljF2q9hsmb5tg2NnqhFsiKsMQOtApjKmpB50qY3uPoAnnn9V7/Dx3/4n0pUFpH6OTpJgcnZR2ue+vXusHrCTWyubRrDjyHHVVZEvWFezqTTo2yJ5JkLR7MX+IGgG2u7mR7mnBB3voH1kryFr/FrSkqow9HtiXVsOcFJ0rngcr6dZhOiOEUSMYHWpeKqKTbZhpd3X9aQ1ThKVq7AGB+VCCvshFusdTCwsY2qeMpsVWw4qEVAbwV2P/BSPvfAbbBrbBy+qqOwWxbRy+MS8TJyx2efYAuVRm9VlV1pjhBV3zhrNW9cusiPjP7xRH2xmXiqfY5qyTY7BCcoJq3VzRInYH1SekjxRos7ongN47Jevipp89sZ/oLM0gziqqSDPzDxj6hZwz64QcZXF6DMwfcyLK/CqQ1r3gkpS6ZqTQtF7I9E+92t1n/QBaB1L9i+tXgvQ5Ur8oeGfYqMJC6uv7z3iazZU7PqqS3oCJIHIpBQLw9E9OKBSt8wWY4T1a+5+jd3lPRTwzbKjRYA89TDJgjDTc2iRRXJhN/iojuzE3Y88gydefA2bxvciYVVlVlViuDiF4j7i3BPZKu4vC7IY4Tc6bik37CwmUd/ox1iWowCkBDRRGNzdrQcBZk21A67XGX/HK+hFoSzFHIosRzdl2Xwfo3sP4uTzr8mA/MFf/ge69VnAj9HtdNCdqWOoyLF9V6zqTyraSNrOV1fIvSMksrmpcSavuZbxudZWtqXcLnvEZi5ldd1PZ5Aw8D4WwUMlCFoSoLzmm79Dkf/BAXMzvhR4xR0oRKoTbSAZ18/xpBDeX6fgmx/GM6RwiGWXkbwsmBOi3gWWJmdwea6OZhaBmfAUyKNNO3DPoz/H4y/+BpvH98jKzbZxwRLZhGSotMGz1+C/ro4t7U8u04rUmMun8WMOGm6tBoMOXu8/KrAzcB9OVvKGns+VXcXB4zlmgxt8RCn1EXaypJGlekzktvKtGcuN7TmIh3/5slp/6s//Hd36IqLqCBo5cH5mDi2/gbFdNYz6VQFA2ioBxEeyr4kPx+bN2GvLBrA3+pODXKD/cVIu5OnRbWgbZeaam+Ace5Zj7V+yri1pqWzQIL/uX2kDR7lC+Kdth00UBaTbZP0iIylaCTbev6RwnD4rzQ6mF1ewMLeCJmXbaNhCfrbvwj2P/AKPv/AqGNqTKjHFDM5p2rVJ4Kjt6s7qv4EOizuwa/jnwOHMBZqt/dO/1RYZlMGFTyCEjB0ROBpzvq+WirLbW0XPcuDIKei16bM/OuP5odZOqpWlHkbG9+GRX76k8POPXv9f6CyvyMzTLCJMzi3LbFWMt3GYL8xCM9TUOW4iVH1K3wNeaUJykCn3r9Y6abe04tGkcqqKTiSw7zijpGUP9vw3d18oGaR3npVvMqjzhiy0Z+TTGsTBtgdSnmO/MOt9vR819MqTgyrOT8zi0sUJhCl7J0K3k0tBuOfBn0lbGx7bhyKqIEsLsF4vk49ZzZzv66cljTAqR/oiwdijEbQ//6SN03tSniY6dGVjvs3vARD3LneDQNMHlSsa4WgXG2DhajVlNhWiHgCdphFLjJnxWnkOkS3ztGXPATzw7Kugtnr67/+BZGUeecGkoQTtqVkEswuqZUxCwOsIEGqTRseciEF9l8fduFmhas6IsvG2wSbzOt2L8pvcYMbnjFjwhOsDG++4hp2dNykJKqeZfBhqEMt20PhITwM7UkPbH9Oyxau+r6Rqg7/1SlzvI8lF2Yb9SMv5DI1sxY8efwaP/epVVHfvQxpUkKYMjORKggQ4O8yiSSr9ntJzrfUlq7AZzgMybLKLlB+wqok39kMkhJ1A0syBsaUyldzDO4sFlaPJfqP4NynqzgAAFq1JREFULhOnjrFeMesYs2Ydx0/VRaXk0EZHucVDQvBETJ7OsHXvATz9/EsYztv49O//C63luhbqaHU7WGm0wIWCQlE4Ukx7Xvn+7KrSwqDQeXIrNwMdo3BcoA8lGncpx4XOhESqy3EnFf02H1XAvOrCVfzVarRxNfDeI/r9942+tJKqlSyVzxoEHV9YrpPCkzLgje7EwcefxbGXf49g9wG06XgnzQoZC9eVG4eeDgI/YOyctETxLJvNciFZDF3EdjIyI8sQc/1Uhoz7XMiEFnmuB8s1P90aXVd1wvp2eKq27iPVYhys3MQoGiMYPtcpZQnXIESHVYYl11VR5DFs+YHEfMIKemEQJ8FHTZDgTaRAMFSDvuYi5fKBHposUb3vGH700n/DQmUbzv/l/0GnvixvDXIalii78b6BqBL7R1UDBCVOVMKdmjEnLgUlN6pfQ6wMj/SlGQh71M3Z4dbXS/2zvoE+9U/83rZI3lnKPa6p+tBPHn8aP3vhRezcNSYNWQ3kTKf1wTQYWe5tTsg35GZyIPIvKt+z4tNcaDOd/ck/isZy15k8cOOvpY7vW+Z5Q2NH5m1Qm2WecOzIycA8j2FFFE1IRTQxGa3DdnFyaAFfGrG5ThfZIZdEounDDNfbd+/BU8++iBNP/hzB8Ii8DEXI9SGoUNGHStdTarK5IyCl8FPK7Kvoyo33xLrusAZLXdd139lJtJJzpZgk3oRHfvocHmPw5Ph+ZAwU4H/OoEWZpqdRuR4jAZMZQms5cGBI9Vxoi+QXMl+rHpxRiJa8RPMDNWTRgj7v+JZvpEBFXsvGOD8lJXUzsHrIGCipCFxjC/JRsqhhRnmYihcpLkV8aqVOXiZoSVGknJmFwIzYFoBAH3YRVrFlzyE8/Oyv0EGID/7rP5X9xegbLfCrJZXofTEPg/GnEnL2sjYFvuWLf8vLvnfAGQk2NjrYxh5b9QLEw6O4/5nn8cgvXsDm8b3KuqJmzIEQwdcmZztZlOmBjL6gdT6S8EFKR6CRl5n7yhBAxYFObklNerykU4HjhrGm+xkFtkfbcDp+6p7GL1JVKgf0EMPrIuaSkaWSKhmJyk8GRSGLGoboKMfClDgpPHwvhjtpjVoW2TGbXW33fjz+/Cvo5gXml5oyU0n0I0sV2Nh5JnKwT/SL7j+nndrBH+7f7x1w3/QqLHV132NPYe++vdiyZx86XNgtrkp4VrVyGZPUY86CRrOMIYbHs+aMzANys3C9IUclDE4FinYDXqfuYvopzzgXj+4RAFy66AY+MoGIFltA1+CtGORlZMpHSFmvs4B86RK8LquB2+rXxKBCm1zwYzvzMTS6Q0VzjEpaDJ1iErkUuEKdynhAD0VQxea9B/HoL1/C5YlphOw7rbtqrjLWHObHrBGcHkZp9c1DPzBf9drttpsCg131w21HeaIizCFjv8NIEacMPyJPiehJUFFBrrpHWcyxQULPS9DuNHHxjf8XWbeNUWauJ0wQtLBqhdq4gMf69HnkM6cRdpcVEGnEgpI6TQQ3FvFrJMPG0Tg9Gz/A/hWlFiCPa6hs24uh3YfR9atiuRTsiw6VAyoEMVaosUdbcM+DTyDevEN6r8I3CxZWLIHC4j00upotU4Q9SVDxcnS7CYLKFnkpYjotPSYC2ISySUojMKND3L1uAuBuOoVjMKVXoUZlK/eZgdFYCTUpOpkpeMs640aXBhl+8jTD/JmPMH/xDPZsqaBG/svoC7eoL+P3ZHJIWwj4x9nMS2XAJjDcel43ML+YFSW2KruWMVVS10HCoSzTbgvdqXNIFqeQkI26RGsu9MZ7NBMfU/UM4Z5jOHb/g/BZqsstosu4N4oYBCZrm+dK2qaiwUhiW8KdGXX0OctspWnHKA/Fqq/xdkLaGvu//103HXA5O9HZJDnzaKyUCcVpk+waGp/l+FbsmFETdg0HIW3WMX3+Swxt34Tq9i2KI6Npgss0yZnV5UB54MrStOAXuaOSwux30fGUsJyKoNuRjQqCGj1ZbQJmF+Tw0ha8vGklwPyKXHNJGmmZy+W5BcwstLF1yx6toyrTSODpHEZVi6VS+ZBeQcCKDSirjXGAOU0hTsGKIi5jnlhmF4MD9K5mfOaEM0r8Xbz79QO03zPXf+13coXrNnmYpEUST1LRnPuL/ruSb4lysaMofNN0ECBTRXEPZyfncGluWbmzlOe4fFFAlxHBwIcQzIVVWGJUiv7Wsnt/i7eSZERJnR+BjezMwMEJRabGP7OV0o3FHwRCjk4eY2ZuGZcmZtDs0D7ICgBmDOZrK5hX+ahmcGUpMU4ZRsDwm2ueMbiUSpg8K2SjNJ+I7oqcG8LWUhIGyfC3eO9vc8lNp3BXN9rYknRRjaGMI86XS2ZlJkt1tGgY8xtCNNIAl6cWBLLxbUMYCk0GpGabdRlsYEECpKIcOiu3ZQUJr27D+veIvZdgI/kQNXHX81mMQ5MtUEq32RKZvFPwz8PUwjIuXrysFQjbITXPisXIieobiIyasTPYNz3zu2Sx0ptduvF41mAT+Eu/S7mNKJYidnNozU0HnFYlvKqT+gMum6ezwEnjc1oXB4tUjnKcUt6KEEuNFqJiHpXQR7ClYj2vCN9AVEVQY6SLABCIElhcV/95173Vs7gPDLMmii/qw+aKkHCFatrfaJIIq2h3c8zNzuOr2To6WYiEgVhRDR3mI7A/yPoIFn0THMyPEL22+8k8RJedKQXKpNOFdi77xKicGrPGa9nEtnPWOPw97bo5MB94GQ6GUXba0tgJ9ld2B4eRg2YNZac7DiEXb4BNO/bAr43Iac2gzIVGG2cuTmJ6saUwp4zLR6oSJW14jk2TThaZsbaBtnybzT5XshaWSSo2L6jwkKKwqqVMu1pWkwnck3MruDA5g8VWgoQlwsJhJKhgdOcYfAYoUB5jpCM/pa4j7FgflG0VhaP7SpOWtkgeHwCZKJujvANzorz+h/6++YBTMA/hxaaw++yvBJ9S4Dhb3Z9cQKIAntL97n74Sey99wTCkS1oMzUw3oSlro/Tl+cwuUjPI/2u9FMSZLZml0hfnqMX7nwDvU6aU35MdRA+ekt604dA9k24sc4vA0svzy3gwtQUVlg5IBrSitEtr4ojDz2Jex98DF6lhlRh8HZv9gx92ay6Tormqf6LSYZOT3DZWK4l0lTKKWuA5Z36LeV5rk/Lxv9A3zcdcKvfsz8Fr+wgNrQHNieXcG367QeP4pmXf4cDP3oQqI4g9avo5L6yz7+6OIUp1oxjlj4TP5S4a1qwnNISrle34Hp/WW4AZ4ANsMlbIjcy5YgN0vYVxujkwMTUPC5OzmClnaqtXGOVNrq7Hn4ST7/yW4wfOoqCNYvlN74CJAr2LGU0Uk/zJdu5RuNKDmDgMqWpvIuInTVNu27G4N90Gc7iTE0xMA3PzUzJK3aUigJnpEAno6pRK8lk8RDGDt+Dp176N/h+jAvvva5Qnna7jaAS49zkrEpy7d0+jKGIwYRciYbjGVh9DguHuF6c9c9nfKAiC7iLbTeThVir3FRcDM6zheDm67g0uYBGK2NpTrAuTXVkC/Ydux9Pv/w77Dx4FAhZbZ0+ZC6gSMrI//gMBygnXPBp7BUZgDU72TslVXNyikMYjzBSRSB07NnAxntqb/99vucte+73/JBr3b6cdf3XtiaVip8FEJbNLENpWBPDhGUaTb2wgt13HcPTz72Eu3/yoBbuCOOKSlM0uim4Ltb8wryti8COL28u+8S1WvfNx0q3lNop+dJRafdFsNF5Pz+3gKnLU1IW4FUV1UGqd9fx+/Hir3+H3YdYKTNW8jdLWyh4UmFKFtPHqVey7JLGsXV8FRlMBCj2U78n1fqea3DwXcr+HNz3w2zfdApn1nS+LKeegYi/1CXStMgDzBTCOC43jvJM8AcBy6u4GMfO4w/hvjBCvTKMc+/9F4JWA1ERYbGZ4ouJjAvBYPf2YVQDGoa51HcKL+WAMiwwhtYhlHBPIZxxbWUgqg2QNE5Kma5WB9sprdPzEFIkYkUERhXLZcY4PyiCY5Ir4SwUmO8OoYiqXNUeYDWin5zA8T/8X4gPHEAaWlkGclKWEWOmFB3sg/J/HxJ9UFnL+Nv6Tit1lycq97Rse/8aHi4jestTf6jvmw64G31RMuPShUVWtP/IMVR+9Ru8niU4+/5bqomRdxMt2DYxMYGg2IrxsVFELLMaMKk3R5LQA0E3GI21hdgZA0P7Q2SOebkzB8DGthOSin123ExrLchN5yEpfExNz2J6bhn1ehseizoyzyCq4u4Tj+Gnv3oV0d69oGdAIUW8nx5ivUJKPPj7RvvqVrj+tgAcB6WbdFFhHbWQy40fw1Mv/bvyI758+8+oBSHSIkErLXBhegGZ52HPzhFUZBdrCTBUAykxKRBNQh4X6aDpxIUIOTYsFloK3goiEI92hjO6zzIlc7dSD1NzrPbUwVI9FVtVebMgwrGHn8LJX/0eo4eOIK/VFHRJcPFZgyArf98KQPmu2rDhAcfyDsx1oDWfjLCbJIjDIa1XevLF38DLE5z/55votlakk3QaTWBqXiaGsZ3bbV1V5hSQT2a26rMEIwbeEnhXAI2yWhk80COBIoWlsSxAs51iaq6NS9NLqteW+jXdv+uFOPLAE3jihV9j56G7kYVV+UpVmMZVhVHEL1meK5otwH9Xo30L3GfDA64cazI3VfMJKyoVmqGC8bt/hCe8P8KPqvjirb+g1VjEcHUz2t0uLk0vqFbw/u0RA9xtiXLlOrDgImvJZaqnQYc/M5Zk7yoFSH4TkAXAclvMkZUA5wVoZyEm5pZwaWoJjUQVf8Va6fO966GTeOKlP2DsrnvR9WOrx5unRkUdyEit+UfA3W7slHjf8IATZWKgEddJcII3S62yFkmSZBg/cgyPv0Ca5OHzN/+MVrKCms+VBjNcmJhDgCFs37oFmyssxtwxikbCpvq4pFolyggqdhnzF+g8d/sZWUua5wdodXPVsbs8s4iVNk0RvoIJ0qiCo48+jSde+A1233UcRVyDj9DyD9xtSspWgozfpG7l/luAOH0nTdjwgBM18rmGqWVfyZVEEwITpZlPEFQwfuQ4Hn2e9rAM5977K5J2Q/JZ2k5wbpJVxj3s31nFEAOA6WynDTCIlUUlXysBVuKO8ScOePQy8FzZ2VIPrPdxcdLAxhII9J0WtWEcOXESJ1/+g9ZlJVsl/AkkFU+kSDBgnqEMxz9Bm5T2NvuYzryBX4pjldNe5QYqcyHkCt1RfY0QrLI0fuQePPHib3D4xBPo0Lha2aRM/no3w+TsPGbmG+gUEXIvMvZJxUAKgyGNIdoK0zYsqMdkPCk8dIoA0/MNLZdJNpp6FTSZw1sZxsH7HsOTv3pNYCtYBl+xaizSw1RGJvbY/Uug8ZsA5F+puW7g4bmq6RuewhEEzHYyW7xFkBjr4wJupCIsD8tKjjHGj96LJ176Iwo/wtn3/kvLAHB9glYrw/mJJRSIsGfbECKPcWamocpuyjwCPiNnNTbmttI/a8BgOTGaPqiNLreYtMO6KD5QGcb+Hz+Cp3/9b9hx4Aj8atUSX2hfY37qgIxGkJXA4wiVFI7Fem63z4YH3ADB0dh4WkuArIh5oc4hxKzxcAhp0hF7ffJFgqeLL/75JqpJG91uirxT4MLkAvwsxe6dWwyMUiJoFvF1LfM9ZfcjCoMIzW6CiYVFBVAu1bvIvCGw9jq1T2qjJ198zYFtSGHlNKnwv9JTQM7ZExFvN2R9zfvcBoDrD6D5YvmmlgNhUr5okqp3hmRn8DB25G48/cofkYUxZt/6/1AEtuJKo+uJLfI6go4mFcqIAd0IXD9VncjwnwCtnCFGC7g8n6FRb8vtxIheaqNHH30GT7z0W+w6cBeCWk1gY1Y9AWtxajS5EMgMR/+akblNd294wJXjUiqNPVeQaqKxPBaxwtdk9K2Hbp6jEtew6/Axre73UdbGJ+++hbzdVuLKwkpbsXJk0mM7R8FQdQp1XJ+CbJD46GbA5ALr2C1hrhXC96t6BhUCmj4ef/5V7DpwFKgYGyVQ1QZmnTFpm1owE4TyTMs7le9wJ3xveMCRRdEUK+ZJcFAHJCpU047ckOsY0LbFak9Wq5bRsawxsufIjxG/+O9oFjWce/dPSLsriCpV1NMcZ6eW0fUj7Nk5ipi1OMT/fHSSFNNLK7KzLTTpE62pgmcaxjjywEk8/qvfy/RRaqPUYlXWjBPA1fNlUjTLTWx4je1bzJAND7h+BIV7+4EAAO4xQBay09F0Qsoib0QUSwnYeeRenHzJRyUq8Pnbf0K73VI2f9bNcYl2Og/YuXUE1Uok99nMYgsXJ2bBpc4L+UY9LbN0/CGr0DlGO1tEOxtNH04ZcOSXXwQbpwgnhVjsbWj6uBYONz7gzKrQG8QyJoyDyo+MwGHUs9Nx9RePaXUU2LkiTVTB+F3H8ZD3G7TzAmff/yuy9orKnrYST+DKEWJk8zDqK3VMTi9iqcky9TF8rwavEuGe+x/DEy/+DrsO343Ej5X5Lmqq8mI0fZjMRrBTm1Y6H00imhHuBa41SrfRsY0POKfpiY2KlZpmSimJGVoU+Dn4tNySpSkNhRnvXM1BuQBcgijE+OGjeOaFXyMumvjynf/SeQRrvZ1jYmIKzcYwVhaXsNDswou3uEzFAMfuewDP/OpVOeKzqAo/YBxerhogTPejLU92XN8qfxM7IXNx2WBGHDM06g76bPi3lRxkxMxZGwgm+4iTlaYHfdsRW7JH0h68ItZSSnkUYcuxB/CTMEIjHMGFd15HkNVV7y3tBpibaWmBOb86jDbteptquPv+R3H8N/8nKvv2IYuZjEzjMNfUIiUjjaVOzBIV5ntlhBs/mgCU4AY8DK7Jt/3XnSi3rhpUFugjNEoj6/5DR/GzF17G0fsfgV8bAqKaIoXlAWBeQpKolt09J57A08+/iv3796NSqQhEpcGWRlz+lfdc9cA7/MeGp3A3On4F15xipG4nQRyzVpuPXQeO4+TLf5Qme/off5EnoxrHaLQ68Ia24sBPHsZTL/0euw7dpUhdBg7wMwiwEnw32r7b7fo7HnBkr9QWqUwwRJyLqUWRJeY8/uKvkeUdnP/obazUVxAOb5O76qe//oOCPAvZ9wwSJdjo/6QflIAbdFfdbsD5tu9zxwOOZhVJXEomsJVvKHMlTMy5+xie8n6voiBnP/4Ih46fwMmXXsPYkeOKJmG5LX7KaA+CrWSn/6Jwa0PypteHW7tZP9xeOr5UVZLxdFq7i4GcGaKKjyJtI0zbmDp3Bp998CHu/vF9cosxJ4GJN1RB6C3gp6RqJfhY2r+Mz/vh3ubWf9IdDzhWwCXgZLeT/cIMtgq05CKarKLORWqpLBCQUcxgYMRxVYbgsCzH4KI8Bikb2axppLc+EH6oFt7xgAMd6gnXjDLrv3kDGN1LwwbzX5kAw0Iz9KXSdUEXlVlgyD5ZKbykaiXYyt+lPPdDDeZGeM6/AEe+6Iz9sp25ba01Vhr0mPvq9qvAs/y1bkfP6rcRhvvmt/GOt8NZrpdIl0ajxFhvaFy5flI+GZKJT4vKvONCi3p9cgMbdzzgzAXmEv8p/NMjYepAj/Kxf1lFkx4ErbPA4yohdhU8b2Ao7oxL73jAMQpXchvHuwSbKFgfAGSekucUA2I4ZOUi0sV/fa6vB+54wLF6uoU4WVRdGW2ibiQBGyBiFiDAIthGAxWxe339fceffccbfkvBzGJ5DQ+lOqBfRFkvAMDWb2HopGS6XmXOOx5H6+6A/x8KSG3aAPb1mAAAAABJRU5ErkJggg==;fontSize=9;strokeWidth=8;" parent="1" vertex="1">
                    <mxGeometry x="390" y="457.35" width="38.5" height="35.04" as="geometry"/>
                </mxCell>
                <mxCell id="123" value="&lt;font style=&quot;font-size: 9px&quot;&gt;ECS Containers&lt;/font&gt;" style="text;html=1;strokeColor=none;fillColor=none;align=center;verticalAlign=middle;whiteSpace=wrap;rounded=0;" parent="1" vertex="1">
                    <mxGeometry x="170" y="610" width="80" height="20" as="geometry"/>
                </mxCell>
                <mxCell id="124" value="Private Subnet" style="text;html=1;strokeColor=none;fillColor=none;align=center;verticalAlign=middle;whiteSpace=wrap;rounded=0;" parent="1" vertex="1">
                    <mxGeometry x="447" y="430" width="120" height="20" as="geometry"/>
                </mxCell>
                <mxCell id="126" value="" style="outlineConnect=0;fontColor=#232F3E;gradientColor=none;fillColor=#D05C17;strokeColor=none;dashed=0;verticalLabelPosition=bottom;verticalAlign=top;align=center;html=1;fontSize=12;fontStyle=0;aspect=fixed;pointerEvents=1;shape=mxgraph.aws4.ecs_service;" parent="1" vertex="1">
                    <mxGeometry x="512" y="507" width="76.31" height="93" as="geometry"/>
                </mxCell>
                <mxCell id="129" value="&lt;font style=&quot;font-size: 9px&quot;&gt;ECS Containers&lt;/font&gt;" style="text;html=1;strokeColor=none;fillColor=none;align=center;verticalAlign=middle;whiteSpace=wrap;rounded=0;" parent="1" vertex="1">
                    <mxGeometry x="513" y="610" width="80" height="20" as="geometry"/>
                </mxCell>
                <mxCell id="113" value="EFS" style="outlineConnect=0;dashed=0;verticalLabelPosition=bottom;verticalAlign=top;align=center;html=1;shape=mxgraph.aws3.efs;fillColor=#E05243;gradientColor=none;" parent="1" vertex="1">
                    <mxGeometry x="347" y="644" width="46.38" height="46" as="geometry"/>
                </mxCell>
                <mxCell id="156" value="" style="rounded=0;whiteSpace=wrap;html=1;strokeColor=#080808;strokeWidth=2;fontSize=9;opacity=50;" parent="1" vertex="1">
                    <mxGeometry x="674.5" y="290" width="145.5" height="530" as="geometry"/>
                </mxCell>
                <mxCell id="157" value="IAM" style="outlineConnect=0;dashed=0;verticalLabelPosition=bottom;verticalAlign=top;align=center;html=1;shape=mxgraph.aws3.iam;fillColor=#759C3E;gradientColor=none;" parent="1" vertex="1">
                    <mxGeometry x="733.38" y="301" width="20" height="30" as="geometry"/>
                </mxCell>
                <mxCell id="159" value="KMS" style="outlineConnect=0;dashed=0;verticalLabelPosition=bottom;verticalAlign=top;align=center;html=1;shape=mxgraph.aws3.kms;fillColor=#759C3E;gradientColor=none;" parent="1" vertex="1">
                    <mxGeometry x="730.13" y="379.6" width="26.5" height="30" as="geometry"/>
                </mxCell>
                <mxCell id="79" value="S3" style="outlineConnect=0;dashed=0;verticalLabelPosition=bottom;verticalAlign=top;align=center;html=1;shape=mxgraph.aws3.s3;fillColor=#E05243;gradientColor=none;" parent="1" vertex="1">
                    <mxGeometry x="733.38" y="751.5" width="32.25" height="36.5" as="geometry"/>
                </mxCell>
                <mxCell id="82" value="SNS" style="outlineConnect=0;dashed=0;verticalLabelPosition=bottom;verticalAlign=top;align=center;html=1;shape=mxgraph.aws3.sns;fillColor=#D9A741;gradientColor=none;" parent="1" vertex="1">
                    <mxGeometry x="731.63" y="602.38" width="28" height="35.25" as="geometry"/>
                </mxCell>
                <mxCell id="84" value="SES" style="outlineConnect=0;dashed=0;verticalLabelPosition=bottom;verticalAlign=top;align=center;html=1;shape=mxgraph.aws3.ses;fillColor=#D9A741;gradientColor=none;" parent="1" vertex="1">
                    <mxGeometry x="731.63" y="683.69" width="28" height="32.63" as="geometry"/>
                </mxCell>
                <mxCell id="81" value="Cloud Watch" style="outlineConnect=0;dashed=0;verticalLabelPosition=bottom;verticalAlign=top;align=center;html=1;shape=mxgraph.aws3.cloudwatch;fillColor=#759C3E;gradientColor=none;" parent="1" vertex="1">
                    <mxGeometry x="731.63" y="520.0000000000001" width="30" height="34" as="geometry"/>
                </mxCell>
                <mxCell id="158" value="ECR" style="outlineConnect=0;dashed=0;verticalLabelPosition=bottom;verticalAlign=top;align=center;html=1;shape=mxgraph.aws3.ecr;fillColor=#F58534;gradientColor=none;" parent="1" vertex="1">
                    <mxGeometry x="731.63" y="450" width="25" height="32.63" as="geometry"/>
                </mxCell>
                <mxCell id="174" value="" style="endArrow=classic;startArrow=classic;html=1;fontSize=9;" parent="1" edge="1">
                    <mxGeometry width="50" height="50" relative="1" as="geometry">
                        <mxPoint x="364.70000000000005" y="206" as="sourcePoint"/>
                        <mxPoint x="365" y="146" as="targetPoint"/>
                    </mxGeometry>
                </mxCell>
                <mxCell id="176" value="" style="shape=image;verticalLabelPosition=bottom;labelBackgroundColor=#ffffff;verticalAlign=top;aspect=fixed;imageAspect=0;image=data:image/png,iVBORw0KGgoAAAANSUhEUgAAARgAAACyCAYAAACZftCwAAAgAElEQVR4Aey9+Zcdx3Um+EUub6kVqAJAcCdFipK1WG573O32OeM5Z7r79z7zn84Ps3SP261WW7ZkS5RokiApLti32qve/jIzcs733YjMVyBBiwSBQgH1SNR7L19mLDdufHG3uOEODg5qPMevGql6X8Pr3cHI4cI3+zFB7ewKUAGo4cI76i5c/M2xjBp1bffwWf7mPVDXNZxLwj+H2jtdg6t0z782CLF2K8exGr1SZ+V4xDvsemJvzV/rHVA7+yX2F479r5HUVkICj6omFWp43RtKchWSUKdDpBJ/iyVbVbEVD+tPfLJ97sGWNk0++3AKKEB+TJIE3nu9s8m8VlUV8jxHxj/P92uBwV1N6gRy8N0BYULqs6jHCclJlcHxfuSajHyurh2cQIZl2lRzaRLKtO+6B5yi0KDYBBcStcPANhC06nbQ+COfUetCGzmQalLtBJN8xAkwFouye9hW3k+A4btDhjoxoFLLfAVXV3BJjpyg5TLdZ/DB+9MF2rD8BbrF6tRAbzSzauMvC+9WYgQalnz2Ot0U4CIqnoqLnfcCGF7L0tRW8NPdxUdsfZgMBhiLDG8rOUuPEoyr+XugmXCgMmARpiSaiCyOc99TCtB8S5EmNrHhS+gu3p84eJdqcFgHB0rCEIFAUHJ8ElOC8A5I1AY9IZDgQOrFNw2y1c/raZai9l5gKPwU0ESJjOV7NgMJ+YCSi8py8CrSIRPAeiRsj8BTt6FSYclxmOEtCctggdak+DcCiUFrvHr2ftopEKV38k0EGn6mBMNXdto7+F21n6pBEA9UZASUWL6rF1SBOs4eiQwmWQRUETBQSpCU4kAAr0EQqoC6RAovCYHSCaoSwveqQu1tQKSC8TPv5yTWZ5M+2MCMEgoxzmUCKGs0AS8BErYrNSkmyYGUAJkIdKoAHAnbFjSsmm2oCYMskHUQmIRSEtx4r0TfSITwrjt4LwEn0MKRfgGbKcUJnxZRxtDtgZLOvp52Chi/RL6xRZLXyDcEnOceYGiLkDbCaSaQIGiQYDYxaxeu874wbWg3qWtO6hpe76a/xN85geNKTWBJHZCxHNptqglqPwP8XADjRzuoZ2PMxkNUswHK6RHKyQB1MUbiC9S+FNjwaf6jLIE0B1UrDmCadpHkPWS9ZaT9NWT9FeT9dST9NbjuCuC6QNJF6jrwSQ7vCYGGBFp9kkwSTklOJ0CJBuxahUR2JkFvAI8IrEHNkaq1ALwkQwAoq8J+Iy2txrbuOLEizeL3s/fTTwHyVbTJnAGMLd4RIeCaVTfaJ5ob7J44/poxpg6QoJz6/GuSkIfzBRJw2laoy6n++ekR5kf3MTrcwWS4j9l0iHy6g7qYoyqncNUMKCcAP/sZkprqFCULTtRodA32ETWLf3K4LAPSHpD14LMukC8jJbjkK+gsb6C3egFL5y7pc9ZdBlLajygJEflWBCOl1C4nG4xWpboU1phNibWbVMbus5esWVJLpEd4f1Dy0/2SaAI4nUkyD1DsdH8l75NftFhFHggSDK+fAcwCoEj018SNJgRKKIFqjsqNvcwTw2+JvC/ULTj9qAw5TsxqDhRH8OUQ1e4NTPbvYLJ3C8V4D34+hJ9PUFUF/HwKX0+o1Mh2QUmHzeGbuWwoUVB1ovdJV9WAupa8oRupptSe4DREPfVSc6o6gadl33VQ5V1M8yUc5ktIumvorFzE8saLWNp8FcnqOlznMtK8jyTtooRDIU2REMJWUV5q/VNqQVCJDC5SeBdVu0CchwAPy/o6SaZ9+uzTaaKAFqMHGkzphTYYmgeee4CRWkQU5iSmXSHIKR5UEQxoIrAYHaOawG8eHUxlUZUqU03hxweY7t3BYPsqZvu3UI22UE/3UM+PkNaFbDBZsMMkiUOuCcpVwIzCso3R6iqkMRtPO34eiVQQEz54vSKo+aA8JZShFoxtmKGcH8EXKQg6JTLMd1cwubuKbGkDaaeP9NJPcO7CS+hsvoisew5p2kOd0DMm2cnsMmqAAaoMvQSwQJu2bfxE6YpENBo9KOGYbWaRfsefPvt2OilAkKGrehFspIpTsplOp3GNPp29e8RWS6nhpA3u6IrxILRtaKLYxNXPnPMy1gRyhc/Z/D5qSiT7t3F473OMd74QqGC6Bz8dIE9Zg8W60EtlIiWnp5WT6c0sEXaFnqXQKRlzQn2c0PoY77J7oj2leSYqMwGINOkpi9BbBQMa/iRDLz/01+HyZeSrL2Htxe9j6fI7SFYvw+UrqNIeSp8iyWi7CTAb6JS6DFXpBSgESjKXXPBBAuN3gV0j97UDdVzdavvX3nH26bRSgPw9nU6xt7enOJjnHmDk8hX6SoiHk55C5w2Nq3ThJnLjyovk6QUybxDtKn42xvTGr3G0dx+j3RuoJtvIyiOk1Qg5SnTyFL4wdaaWh6dd05t1XLaPlp0MKIgwnHjte5Rc4p0Rg/hdMBgvSCTjRU7j1uhqQGQ32UpjV8q6ksRSuh6qzjmka6+iv/mmwKZ/8VWgswaXLaFyKUpKLsKZhPENpnvLMEwokbk8AI3VzXu8p+IVwCk2Xm02m45B68IPZx9PNQXOAOaB4VPAmbeVmEKJ52SIUkyWo6zoTq6RJx6pn6Ke78OPtjC7+xnu3/wE2cGHKOcz+HIuJ0yuFdzczJRYDEjiKu2gOBqBiv1SJcGecqxdLbBEoOF0PPaKwCRJK/qs7G6/YK/hFU1liWFBdAkTXNINDchUiVyCuXeofII676Oz8gI66y9h47WfIrv4Jlz/BVTZMlzel13KlwWyxOKZBTouRZJQShK2BRc7AVrwp6bTwxSNwJEyx/p09uXUUyACzO7urkXynvoePWIHGKPC4DAzNnhTjWQDcaiKAjntGm4GV4zgB/cxuP0hDm5+gGL/OlCM0Pe76NArkyeoKjOyOq7qnGy+kioShQq+mwzRyC9qPb9xjW/fI5gcfw9YIpDiLxGGjpPAamhLC7/GRqhqIWkI2mP8XAUkFfrOoUo9qmKCau8Io8NbmOzeRG/zbay//lP0XngbSf8cnNzedEU6JHSXU0WSt8sM0qYymV1J5hi5qdlDa5uFABxv9dm3Z48CUpOfdxsMQ8IUrcqYk2ZfRU2hBd0McOUIfngfo5vvY//67+EPb8IVh6j9HInz6NSFOEO2lTi3CRgydJjxy6J/jYFaWYMmHQfZfCRRBMBo4m4iw7WF8pMBi01ek7jsSmuDseekUjVlmSLS3tOWmbOdai/NxYZyvmYkL6NxM8wKIOmsAL1NLF98C+ff/DfIXvg+XHcDVdJFLTcbxTaLDq4UF8RnKa0RU7gFgX1r1aQIMJRtzlQkG69n5S95ejKZ4EyCCSNKG0vJiFqGNTN035vUkvs56tERBnc+xtHtK5jc+xDp5D4yP1LQnDZ4KaDOAtUYq8LJxklPIqfy6FCKsQlsFo+IEJxxtuo/yFhR0HjwOr+rJG1EtF+FDS1WNI/IGNyAS7x8/EazwwClr+QBYH9YQ53S9c7r7IvHSg4U5QEwHmN0cxeHe7ew9uqfYfONnyE9dwmuc1EV+NrD1wm49apinysP24cV67f3RXA5/svZt2eNAuSx595NzXW1Tiiq0PXKwLYCdTmE372Gg2u/x+Gt91Ed3USOGXpp2GNB8KBhuChQJYk+p/TS0BgRdiUrCt8g4SuMsGYXIUNxx7LtMeKOZl4JQBCRxvCp5b3wc5RGUqFMsGjILhNuqM1qY1IE4a1GagilsnQrJZWMniVuvLStArENlIC0N4vh3iqyBPwI9eAGDj/ZQbH7CS698jbqN/4zuktLSNLgaWLkcpJKAvpK+SQ0j42g3YcbLM9ezx4F4gL23AMM5yftCEXtkdEIWc6xf/0P2PnsH1Dvf4bu9C6W07nC9h2NvR16TxjlX5rvn6H2lUfpKqSKXQm7pzVBaVtZmFHkowAcXPHtxYA4+8R3m+DhJwFQ+/mrPxkCRTWMthBTSCzeloF4/C1G5FJKoYSldtEUU3PLErcfcMYTiFJdtKB+2qZsKwW7lnHHtZsiLUtM732Me/s3sDN8E6+/+RbOXbwExx3YBFkZez2FGHngvtxuxst8+erZldNHAQIJ+elhr1PvprYJaV4guUoZtk/u5ero6dUI+2Bquks5QejJACpuFjRIQFqMkPhd+L3PMf/ilzi48R78dB+oCrjcdhkTKqhEcGpKHtBOAockosPDKPyMXo8rFGnY3XgNK2/+L8je/Cskq6+j8NyOkAuIBWxUHzkejAiqmFcmMamIklNiQCvqBppyfARwwkreHxiYUpk0ORtv3pXUz/0a+VRwGEEmgg3jYLa2tp4lLxLVAdvBawJC2KDoyLa0q9RIMqYWMBsLCWGOowodiv3VALM7n2D7019hvnUFWTkAVQ/FcQS1gkwuq0kINHuY/eOpGO0n2AjS8mj/Pvbmv8XqpMbm92rkG68DWAX3NwksuDeFklDikGVmGPZht7jB9kKDOYDB2ybD8AK4NHdJtSIwPXzlbO49+3CiFHhm4N92AlFeqQLbUbcPhtTEoSTfet7lzKhJSPI1/OgzDK9dwe7n76Ia3EJeHFpIf1Ijofs55LXQKIUQeBNabCKc6OidYOVRLGZiKm6B8MNbOPxkX5s5X/zB3yB94cdw6aptG0hSJC6TW7sIKhql6kSrXuhEUB2jDYvQwX80CmthiH1tXP2ULOm9OrPhRNI8je+nHmCO2TjEsLaqiUElYpsIrt3D5EdKJtwsWEzhZhOMr/wttq9/gmpwDysdZiwowKhdlzIUnvuRQnkS220IqZa1wWwScZ7GsX0ibZIS6mp0Mo9ZeYjp7Xdxdz7DufEYy6/9KdLeOZRKK0pjVyq7DIMZKUEW8mDlovexgKFgHCfEiP4EmRgEGXpFNYu3Paca6hMZ2++iktMPMPTiBF1dK57LxXhmXpV7BC6hB6UCxXKZN+spqt3PcP/qB5h//j+RViV6eQlXFWboDPokg9Uq58zwKs8ywSoCCmujQeD5XkFdPRcfMm0N3fy5m2F8/z3sTI7g5kdY+t6/R9a/aPugSCtKLnLhM6iR5LQFQIVEdchkl8DflEoVX23fgwolm1jYdBluPHt7Cilw6gGGNJWnZIG4NMI6MZ+tlLSeMD0C9wclfoz5zhfY/ejvsXv9fWwkY0sEVzEgjHYX7goNgXKJGXi5SqaaCObuNYgxyWah2ufyI+N/0jSTUdZXHmnu0UsqzI6uYutKgXOFx/qbf4F083VkNUeA9jF64izfsGXyozSioCIzpStTntGXf31Un44BElNSPN/gfhoY7tQDTBLiKLT4yRDLFZGShb2cQKJiimu4Yohy+0Nsf/gLDO58gPWMGeZsf4yjuxk1SgXMWbCcJXpiYiYakKmMEVpYvjg9pIyMNT2n7y6XfctT/WRMjXIQJ+g7j9n4NnY//K9AMcb6O0B67hVl4CsokdQeReXRESklglp2QG07SLVL25zpdLMb/kQKaxQYIawL9K+fvZ5WCjwjAENWDNsBFcFqorh09MojQwFUQ8zv/wFb7/8d5tsfYSWdIWFiKCaNYpAdgarySFIGzhF3jOkt0TVnDfcZBQsjfyLMhPendXC/i3ZF9+PDyqoYKKgI6LmimElP2+RZo+u4QXQPu3/4hTZSXvrRXyNZfxlJnWsHt8CfulVAEI4gUz6YpkSjl3kHA5JYE5TvWFmxHtaks+tPEQXapf4patQ3aUrivYX4U8UJO4c941d4jk9awlGM9mOUd6/g3gd/i+n9D9F3MyQhu7+kEU/Db41MRmCLxhVh5OZmdC9F8RA/E+wyZot59hFGoPq1A8IUDtzPZUencH8WdUxRLKGRdo5OdYDhF/8dOx/+LfzRHW0nYHAis+ZZMgcnh1Cl1A418nDSgsAtWL2M0kGVYjCg8tuYDPO1zTv78UQpcOolGK52JUEmyxSVyh3Nqc4iYpqFGTI/xfjep9j9+H+i2P4YfVByKYQrElK0B4djsGhfCVqQhqYFkaiG8TLXVqUfOLa8nuhYnlDlFskSpbkQGNBsbcyyBK6cI6v2Mbz+zyiTHi7/KEF37VUQUKqko71Lia+QMrewYpW4N4yH0zFe0iTTRk2iEKkhsWDKxuZ+Qr0/q/brKXDqAYZeHjKlhcHZHiFL61ggcyWqnU+x9/HfYXbvPXSrgeUnSTN5L7jfxnwY9reFkpZox9zgJrsrsjSKfl/1TPv0s/9JCbjCCBhqM8qWFxR4hGruBRySKme7mN74FfYT4PwP/wPSlcuY1OvItSCYl0/bFYJ6amkfSEOTHkVNqcBBcjHEf/aJfIp7GOfJqe2C4iCY+Ii7dwPY8BjU3M/g929h66NfYHL79wKXHg+xpK1FDExo4D9Tf8yEy/XXAKshCMuM/xiXITOMwUpctZt7n8MPZoglPRgqvkC/BRorvU5dop9VSCb3sfv5r3D4xW/hR/eQMTBS4QPccMkh4b4pqlYh/7BIHQBFuMWbbMyeQ3Kfui6fegmG2fNlWORWYaZ/9Ny8V8If3sDOR7/A6OZ76NcjOF/qDDOmUWCCboatK8WAnicDR28EGZuMbgZdA5wQaxO2LkZ2t+xsBjanbuS/owYbfViYeeM86ciYuuh1yxKUxRxJ6lApCx7gZ7s4+PzvsZxM0P3xC0DdUUJyRvvyxagXxtTQhS0DfFRDm1ABuyumftBDZ3+eSgqceglG1hAlnGZ2/QK9tIIfb+Ho6rs4vPY7dKpD8ECOPG+znjNKVzyrpfWBcZHYTbJQWrGkSXaqYwCeIPdEDHrg6efuK8ll1qvjXTcQNjtK3FJN71KWOnSSAvXgOg4+/XsMbl8B/JFOV6BBmflopJaG0ICmVFYU9oHxmsAlAk9z09mHp40Cpx5gKLjQIMiYcdoD6sk9jK//BntXf4W02EKeViirAqnOfWZyKUa72DuzttGEqH88yZDBXwrSownBzl3OlMbBK9CO6gCBpdJubErzz7f0QmbmlokYrk8FiadH8Z8AWACQIk07KD09RcwTw1MxZ+i5Gcqj29j65Ofw25/I0weG4RFkkgQlpUzFOZp9jAtJMO4I/M0nfurZ92nDg++8Pad+hDjHZeKlS9QBs50b2Lr6PorhFjqOLmavbeNlaSkxs7wjt6rSOTAITy9bg2VBkBhuAo6Vzd9ikF3c+2Lrc5xY3/monKICgz1Wk55UMStMBF6TGklSbhzlvYSeLDEHdVrPMNz5HHevvg8/GyiKmvFHzIRnQPSgrWWBXcPG01NEqueyqSdug+FxGJzA3JEbbRteOT5s8pvhtpJL08wlZL4ayiCnZDdUXUowxaU/vIbxlf8L3Z3foecnireAZ8Y2itdWXsHIC2d7rxkLY05WM/eKAySVhPy0urDA1LT2aO7ECfRc8syxTitLXqCJyRpxFHkb8+9QnbFoXEmaxAypmdx/4XBp+inKa/uYnV9B741/h6X+q5iXPeUDNljPTA7SWdm0zrAyjif3ZbdjwzFVuVKXzS7P7yxDPCTV1wCQ18lzul9/KRxZWZRgLfVpyCUsx0HccRbqU1lWewV6DhgTGHtvHWz8k8HrRfk6YbizLIb0tDGXM6Vpe14/PIN/2hE6oc7FVS8OfWs0tAbxXB2KzYptUcStMRivmdeB4FSinu7j4NqHONy9Dc9scyZfWyGB+ShxLLL/g99OiATPdbXcx4Rqjtt/+D3KvTvg5snE0VjPTGmCJEX0cvryHw3rXBQacBEwBA9W9EBxM2UABouisa0fJLTxlyU1V2JzgZQZ8ckm5Ct7MaLYYEj1xssCNyIUfyND8a8BKFVsvQSofMDSoIrHm+etH8Z7Jz79Ql8f39uJSzBxUIz+HFRKGiEjvVjJImuhfCIcsxpp9Bwx8tbPgXqK+f0r2Lv6a/jxDrpMIhsy44vPAsC05coyqbXw8ZH2rOQ/hgIcmqyaY7rzKfY//TUurL6IbO3V5vhas7sw8x3zEQbAEajYpLajU8xexvhhbrikmsY4HNuHVgusKCtEHiM46Dc2MOxlU1sNEzT3a56OEKQv3aaVKS5PhC1brRipTB5T+ghBSpR+LemZ1HephiyFkYMmLZPPLc3pAvKoEc/Wn5OH0DioUXsPG9u4Q1orQEJG4e5m0+515pDGgGsYj02bwg+3sPvFb+SZ6KalAIgrkVaxKL0sjJupOQsXzj6eGAU4rtypvpZ5DG59oETrmO0jd6Xc1A82jKPeTEmCiNYcb0fb0uCfpkjSFI7SrnZehrgaph1OeeoBn+CiRSmJKhz3TsVZT56LBmrjOTFfuKe1LxEorBUm4/CzPdu214I/nQVqNa2OjgG2vJHC2oeeuU8nL8FonzLpSnGE72GVEPNwsA0oTHS1QTP1yIanLrZxdP33GN75AL3yCHnOHb3c4RKeEzuay7kpW8PIO/hq2FXfzv48WQrILc1z3xjzUg5wePU3WNu4hOzFnyDLzqGSHsyTF8gJCxObagibKu+gBFslHOcZcrL2U0KgEKJ4GqrTDMS0/WqWJMvy0kw9wYgFMX1EKE+ROJSkW95QEjJyo9KtUiXjc6aaka9oltHdwdZH/NFZ3QGIjKom1cRSZRqMX54s2Z9YbScOMEFrNWAhsTnY0oPDSsJ8uso3wpXIGIG/54r2rFBt/wE7V3+DvBroeFcNNve1MJsRmVPPtPSM4x1sfu0PZ59OhAJaODRUFTppgunBVRxc+x02zr2EdHVZjm82zIymnODGMRxWm8SFzhPXEbUytFI24D40Sig8aoVOAEosNO5bSeILSjAAet3V0G+qPIQepopQ7gmzsRB1whEwgTlVr1lgGBhhDCZBRZ4ty0UUsclay78BSai9MfH8g4x5ItR//JWeOMAYoBj9NVRCgBZ2mPNV+ip3SzP6VicxWqzFfDTC7Oo/odr/Av20lpWeT5oaZSseZZ6wtIT3qBV6xW+cqUuPn8m+rgZXF3b8bMrYlwIdV+Do7ofovfgjLHc2kaU5Sk58V4fEU5zAdnQMY5VcNgM803HwHz9P4Ysh6vE+qvEhivEA1XyC2XQInqfNUG+q1mmWWKKs/iZ6/SVkS+tIls8D+Qpc1keW9lCnPRRlGs7NshzAPCWBR72Qi8weHCRvqfbitq/oroyFeiAeH0ObTfQ0fcUDz8ylkwcYkpLIEqz3WpXCJQ6jndNjqwSlEuXg5upTDDDeuYn53Y+VfoHMRfc1Lf/M6eKr4EmSbnx8vFrp5RmXT493+6n8psTfMVyAsUyUOqd72P3iXSxtvgasLFnC8MgmslwwLMHUFUzvAWWJariPo927GO7eUuJxzI+QVlM48kUxhedRv0H6odRE9YanWVbZMpDk8Cld430kSxtY2XwJ65deRWf9Mjq9dUBg00ftcoURkmtURuTdQFnurg9i0lfQWgFbWuvIzZKylLT8K259hi6dOMBEPTQiu5luCSx2kDwlFjKhkhpZujRkzK873cHu1d9iabgndalOGAEagIqH0CunCAfSQCQa18wYxxGM5kIDr2doTE9VV2p6caiGMCF4xfimDGk5h9//DOOb72L5nU24tCOvIPkAKJDXc/jpAPV0iurO32F/+x6G+9uoyzEwHwHlFCkKOF8hs/CnL9GE9hGuPUl5IFsJz9SmwdkfdjDc7mN+bRWuu4b+xdex+uI7yC68hbS3gSTroyTQUPvWqZw8CgdIE1O5am+qvNlnyGNVY5+h6mXnWtB9TUlK6c+/1LZn6cKJA4wRM+qocbKbHstvlEgaw5oyztEeN8fs3qeY7XyMVVr1eCyJVgVqtqGMkBBaCZCiMCp3Yhg+ean4Odb5LA3r6emL9k0HQZJmM35PfYVqvIXD21ew9MpfIOmuIaeRtpyhLg4wP7iHwc2r2Lt7A8vj91BMx0irQhsknaK3iVmUUiwLIYuXp6hZbtplJlHgZQKXUiKiZFKgmo9Qz7ZRJV0MDq9j/8aHyDffxPorP8Lq5e8jX70IpH07crfuyTMlwKEmxPw1yjVPozHVc/MX6W/wkDY8p4adnrH6Ni09cYCxjYSUJ/gfX8FIJtWGw8K9K2QW01lz4v54Hwd3rsANb2hzHJ+S81LhD2HUjuEGv1C84TGtNPrZoPM5q1MVn/05EQpkdj41XcaUIOjp4QFtdYXRzh2M71/FcncJDHitBvdx8MU/4/DGFWTTAdzwCCVTn/IMK07ucNAe424ZqCdOUMxMHOeWKcQv6m+YAgSwYK/jUbrcY5VwVz5VrXIEP7mPva2PMNh8C+de/1Msv/hDpCvnUcOkK0pgXCYpBTkaafRi6lZrR7wSftBmTTM6xyvP5vvJA4zoSgOezfaoMjXkpjtSdtrgDaimGG1fx3T3GvoYSsLhvdR/o/RybDCjwSUwmsqNrqQzeGnIfFIfbNToqTEpVlk3mCc5rVH5AbY/+zV6qx0URzu4/cXv4AY3kE4PJc2s5ZlOKSAgaIFieAJjVnQyhNlZ6J5uJIbQyag286ttGjFwkVojaYd7pfjy8kzW9RxVOUJVjTG9P8Dt/VtY27mFF773J0g3fwaXdeHqjspK0pwxoQaalJgUv8WyDNwW+dSuHeNW1fos/TlxgDFitp6eOPfJFnpRbCYDeY8cBfxoC4e3rqAabWOJ3yWG8liRdnXSkIUT/2J59BbJ8W2qt+2ajnWcvZ8YBRjnwiN6CTCc+LK++VK5ejOMkQw+xsE/38FkMkRWjOGqCXIag7s8GM/sc1J4wkKkcCrPwDtKD+2WgcUOLgJMFY5IMRiiLYhNYZSwl5ubCx9TefIfr3f9BMn4NiZX93B/67dI3xni4ivvIFl/BWmZY87d9zn3FzFDHw01zJ5ocTKqV8m1yNTcU0epOmzOWmzgM/T5qQAYAoKljA6iLHVnbRIz55KCL7XCFfCHtzHb+QKZvAL0GrV5Xjgu7XrQKLxaOxS3UFuqhSASLd78DA3p6eqKbCNUI7T3SKuJhocrfe4KVONtzMc7sq900lSu7Gi3cWlq+86kH9lCJLVDDOXA3wkKLSU5SJUAACAASURBVE+0MkNcjixtKuUfJi9nZK/JwbSfuDRX3I2AgguY3NNz9CkhVTPUB3u498F/QX10Bxe//1dIzr2GrqNrm6dTHLcu06VOIIxSto1Ss4yerkH7Bq09cYCxweeyYQPCaEsOhEhPK70AxNJh1vMJBnc/hptsISMAMUaGkZXEkgAuUrVIAOZ6CZxlUowxDw+DpVhs9vtF1vsGVDu79TujQJqG42C414jxcJz5KSN3bcwJJkwQVlSlAICbI8kTzPGjAeZkj8YMnjXOhYj2F5ajRanNVxPVFDa+4Q05noOJzh7Scke+0n+y/5lLm8JOpQC+KDk5nJvdwOEnWyhH+7j8o/8N6YXvI8/WpBpBp4xG9wNLs0A+cmtCL5ecD8eB6Dsj7FNS0IkDzIN0sFA6i2fRbxQvdTZxhXo+xf69a/DzYTgMjezHgeOQhdWAtpYILCwgMI25BMl1FFnjdd3wYBPOvj9BClBqoNeFp0Lw1MeSCwYNtkQbvmg8rahu1LqHGoU0j+Bd5LP2MkBQSENuk1ZgEMHnmLewBR0eV0OpheWzIQQWApH9bV3OZWELVJ7TRe3BY1eyNIOrhjIG79++gmGZ4aUf97H64g+0MVNl0JslHrUd2542ItbBVU+ezDOAiSP4WN4Z0UhWUn4MgoPnzliHrDLOqV0pURnlESZ33kM+vg3nh0gys6kwrSVfhBq9B77kZ5Xg7Iwenu3IVzwJUl/O/pw4BagaEwN8xVU9vDj2MtxyEI0PuDXEoixtzaCqEe1r8R5JKLS1Bd6R9GOPR26INTTvMYdwcyEAknGVGFPFMyiPL4KWXgyNYDyWy5HVBS7hLuZ3tjAtrqFf/gdkL/0F0L2EytMew8PpmAe6hNOeKC6LFkvTiFJW6jP3txnTE+9Z4+VRjKM1J8SqKJnQfITD7TuYT0dacWSIa1anE2/9WQOeUwrQGEx7C6WaNEsxOriPOx/9BvPta3Alk83T2EwnRcBKpQ3lZ2YJaGDsmaXeU6AiUeQIOEdp5AGaywhYzuBHOxjv3VRyIg5orcPqF559ZoforGNPMwUYHMgNmDV5UscPjzDZ+ghbH/XwEr1PL/wZZuggTS1zXUXbEg3IVJxkI3qae/fobXsKACZ0QqoORUdTT00/tZ33dTlDsXsDyWTHsofR0s+RNSXo0alwVsIZBb4lBciFVJvSTgdFUaGXMWRihtGt32O3t4oLy5eRLr2I2nXCPiZbTKUW0t704Ir6LdvxtD524ipSMKEco0+8ZsIMvQIzHN39HG66pzOkKb3wdaYhHSPb2ZcToID5O7U3QJ5N7uqmTWa5HmF443fY/fSXSIttnctV+Ro5E83zZAtJ6yc+/R47xZ6OHi5oRhFc2HNZ26sC9XyM+dFdJOUQDC8w8bKx3j12Ip1VcEaBh1FASjp3VIak5ORZZujrJh4JD5i79mtM732ILJlaVLCfK1eRJdJ6tj1IpNmJA0zrOyBgcLgYZGcWMQZB8aD68f491PMjZI4n/VGHtTSHwcHwsLE/u35GgcdOAbqdoyXQDLeZTkQggHSSEvn4FvY/+0f4g5vIMdPhgNlzJHqfOMAc4wD6HbWnyKQTxg8wqfdg5zZ8MdbW96riKQOMiGTTH7AIHyvs7MsZBR4/BbiNhWDCOBrll6k8KkbyJkzqXSIrhphufYr9a/+CerYP5qOfFzPb+R1jtx5/M0+shhMHGA4QgUKWeFnYm+1vlpTHzzE93EJZzuDyzFJhKjyi3QpwYtQ7q/iMAjodNEPlLDZXh3HpREruCgdyxs/Mhkpm7vdugg6LLOFZT5bG81kn4IkDDBP08EWpUT4kbnWnu0+BAxXq8R4wG4DnI9FIphBuHTVxJr0868x5KvrX6OnGj1LreWZXVPgZH8MNjqP7GN7iOdwT5Qe2bQy869l+nTzAhAHSJjNtNKMEYy9uKPODLdSzA6lOzNHBV/zdpJ9w89nbGQVOgAJcFC24YuGQNbWDXJoon2/GkAoafG9/BH+0pVNM7bnIySfQ8CdU5YkDDOO9CS62B4S9DiAiMPGYDbbgiqHycyQu072GM3HfyBOi1Fk1ZxT4SgrQXmggI5thE5tlAEPezqgq1QXK4X3s3/4UtR8j5abeJnr9Kwt+Ji6eOMDYmcJhw6IcSSGjHVtWF5gNdoHiCKnOSSLNzQBsgGSfn4mROOvEqaSA16ZFnndkmxrVCcVahKnFXd++QJYl8MUAR/euoB7d174qO5TtVHb7j270iQOMuaYjbLA5C01i7t0RAWasTYpMRRgH0va7/tH9PLvxjAKPlQJR2ZE8E7yh2iWpxFUVN4XD+Smq4V1UezdQex45++wvkAuz+bHS/2sKJ5Fp7DIB08RG2ti5Jb5AMR/KVZ0xm4bc0xpCi+J9Dgboawh39tPTQAGmehDv0qrCzHWWhoFHsjHrEF3XshVWHrmrkc72Mdi+BlTTRhp/GrrxuNpw4gBjyhFzBNEWEyMbmdOlVh4QqkkaKNpmGos9PxrQPC7CnJV7RoE/igJSh0ye5kf7Z+qSjL8yGCYoywqdTo56NsDo4B7qct7mMPqjKjqdN30Hmx2DcKiUgCSCud4sM92i6sPfFgVJ3sfEUj2UtUeaMAdqZUc9VCXyeorZcBflzJJLJSltMw5pTFmnnKY0rj2qq8/aFFWu+B6HM1YXazGPgclbusd3wq12R3P+UpCuuLodf5lYvCge81ZmWNMWCMUEOVQN9NM7EdpYJ6j0kQ8Y/dLYMFVCDo8gbec41yE3MU/hkfoZykp03c5Ktvax4NDWkEPWrlt7+dmqDkmYwnhbJDZPybQM+jy1we4M5bE+dlALiKm4/F0TUeNpLKjobXJPSNHRdt/axLHXK9C1oXNoh2whdkf4y4yGVkp4JFwPBAv12GFaCw+Gm0Ntjck23tFSw67kVIHgUApISH87OZLfOW7cYS3ZhnnOqinyyiMdbaMe3EXWW0WZnFdBzTCGimN3WTZfsQ+WetPqtr/2ZBxnuznOipALWKk+GbS68BwdKxqpB3u0cM938PE7AJjYwIXWk85i6IVrxxpLosXBZ8wLd02bWgT6i5ijlRvCyiLc9VWRuzZljhX7rb5Y+2MvmkkWy4o/RI4L1znwNuihj5ED+Hv8rCCsWBAnj340YI0cFKZjrEZ3x+ebR+Ov1meVo0uLjQqyoLiomZ5fVbrt4OXxGk35sV0cioWNYcd+1zDZucpse+DWBaHS8iiHUrWZL9agvhJcYo1GO36PwGJVtWAqGjb3UzKINHigUQECYgpM0oafDXCYvJv3L9IjlhXa8tByY4serK/9HnvzsJbxTnlIGdulwwOZeAqYzcYYHe1jdWOOOl3woIYCFesVqjGPqQ2jmhpRoqnUPjRtCZ4p65YtICzDno1amd0dn2l79N1/emSA4blFesnVrMNpNOTWbTuhsemILtpgG+84pDVzlpJ5ueLqHEdjy7pGOZ0iVd4X3hBy7waKKxIypCK0Bny7v8aITQsNXxYYO5YaGVgAGC5ad4p4i941kA8+H74vsnmUjFghIYqrnMozzrDvC82ySgwUeIKC0VdIrp94smU8NUGZ6oNUFJ8zKcjSiVqxJonUQeKJE71tl9XQAm78TmZvF44wmi2o8meCF/scJQhrRMvlDX0S+LTQzmKVE663QGSgFh8/LqVYL5jldvHFfvIXkwjJU/yV+9vIQ/aM+hi+N5J2bFOc0fF7U7jxH2dqGCIV3dZulIiyQ3yMNhjlfTEhDmmSYFrOMT7axWo9D5n7OHIePH6FL4JSY5dcyBljrQ8lx0ZYB3WRqWXjskEOkXWIKwD/l8TS5i/m46ytHe9Q7nf89sgAE20oalezei6QgkTjKMQOhelk/YjDQ4a1kpjgUqlevEc1nyv3KZnGJkjsvRVIIsYS4i/f7p2lhJX7S4xlzMpyOSjNz6HiJvjvgQFvJknzgOVktYnM/sSWG1MZQ8Vr1gsWSdnNqMnfosCs1hhdCUU8kL25JNnKCtDfhbEQiIfxUHuP12cPhWt8TB9tYrWMKF2uLT/0g/XzkQfBhTeqBYvNIPY0KlYoKtDpS3QLdP0qcGlBv21OUw2fa7q30CfdGu4KZauNlJqbsWrL+zafWKyNKsskAVqbYsY9Stz+MtxFXQxR90MzmbA8gFcbE0a7pLWg6VfTKeuTcUQY08Appo4G6S30SRpFW0gc3G/TvW/0zCMDDG0FJKj+haoNPUNveP4viULdlJdE8MomxAKCxiNieQvP8+XUKoo5vE+QOrNz6BRI0pIiZ8IMYoFxvlGXj9+8CFztumz3RBCI42KDHSS2OJgh12/MTvagKB/hI9ba8rSV2pzJra5EyYQrS6w10iyWECZxKKhpsyTIeE/7bKwvsiPpyjYaOJOBY38sE39sr0gcimNp8ToRNoIZf26Bh6ARwVC/tJND48QWxAUhyOxkfkpQmgRtm/l0lKhCE5oFJt7Fd4JRrP9BTohKtZ6PKkIoLCFRwgMNoIUbI0stAtqDQNbgkMqIJxhYgUaBtjVMpamNubLJEGyZW7hAyS0w5SDAb6CuNCmhb+y2JHd+iSVGfok3MCcwX6KHRoZjyhHiE6SP/a6bVL7NLdoArcxos4slfrfvjwwwZmuJHWTjeAxFQB12mwmdo/SiPkdSRaIZy3Bg6c7T2DPehY7qqpDYryfax0QBMhbviiDwXZDFThV8oKKFgo/9Emfuwu/6SO5b+I3tNAZtoKD5nT1nmWQ6M/qyU2aYa4sNtZKmYV7YM3zQgDve20xv2X7I1m2dfMYmIz9x1EzUj2zWTJpQWAQU5eRRVWGcgvphJcce8CHW16oPLQ04Aa0Peg8V6UpDG5YT7SWxN3y35xavWE3tlcU7Iti0v9qnheHQhfa79Wnx/nilARXdHK+ySe1n68NiC0J9oUD+InUn3JIkDLaokPgCKEdAPUZdl8YfLJbDSWO4UM6WaUPpMBrBhMD7HgQaVqn6Qt0C30aOivPR5hXvjOMebn9sb48MMKgpXVjDjTBE7JDnS5nhNX1QMR5AhLZVmuPEr9wI1oALCaKISBp+eRgXzxgueJOAhmDC0kIx34kEs8gu7Wf7pHp4Onb7QxiIoI+r/WZDiiMk/nsYp3NYWZYIYWhRNSdTsm988S8ZylYhSX/hF8KCb2a+SR6pTl1fYPwALgRL47hYpxUdja8snVVLUlqYNLEfDwNutZHeHxHH1LP4zIPvUQqIxauHlMykHllHmP0t9jXeJxqwouaCUYblH5sajmpF+5vVb6MmsAsNau8IvCMQD2pFY0+K9I+jHh6OIo3qtpIW61R37BEZzxuQJ/G1XtgIckxFc25+pDTjx/CjXSTnCqSKwuPNQaXSCQY8SoUGYC44sQeUNqyd8W8i+nEcWnqZLSZQQ4cYBlZgC6xZoXOP/+2RAYYETZoJFcXt0DmDBRGoJTz5hkQXuQHYwVREXA1W02f+TteniXSaYxxIqQKG8lr1GyZsHvyGHwJ3aOjio6oofFn8HH9/+LuBaCxTo66b45V2Zbf5o9L5kG7QNx1bGjBFz3JaRPbnBd6l23msqT5RkottCpKLULu5U7Ycm7jR+2WFkHkj+7KExXKaeq1TYcK397e9a+u25rTrI6WWpmmqKdQWVml7sr3HhpNPtK0SecLXhtXizwsAsPhMmHGhYQv0UwUBXDTpCdssTCbyhVpjq2NFsY8L7yzra37mnTz9gjYY8ybZIXMJDfKzQ/id63D9T3kolJJUUe3n2dbgWdeuA+69q1we5E2OdFxdYhti5YvSn93DZZ7/s+d2cE9gGs49GY45jrGPsbzv/v2RAUYraFhzjdq2qsWmS9ejjiSWMZecSMDVkwdYJTwlj8d2Cjss4C6tUScl4Ag+4VRHGcFS02HTFInUKFv7HoksPIrJW7Ig2XQCYElUDSsHI4gf9mIeEL543o2dnVOjKkudt/xVbKuBD6BgZYZNmzzFkvEUzZnKPOqCdLBzue1YHsYymGeEcUEVV7w4+QOnm1ePOqm1mdn/GOTlXWpJkCS5ODh65zgGgckILGxvZFm2jaNGOhCE2DfSSSI/x4IHj3EXXzPBF57UxCNoLrCwpE/CJMsykOKha2VtZz+zHYKBsICwclJWbWr6aBTjRZbE9uVcgLgwCyjZe5MEbPlyZl/V77FHfOcFls5TkXg6KO9mmxb6oAWQ5UZODnULhNtrlDLUyoCCwvXFYlQtx9jiY0jH3KWYzYe4/cE/wH1+VaaBtLuE3toG+muX0Fl7AcnqBSRLm0g7y6iTPuq0C6+2sjrjOZ1gSemHcWSkgyQg2tgyHZtb6gymyswIsruRZpSCzO7CXiyMUNvB7/DTIwMMByl0V82yCWSDpwtiLCB1BAdjjNh+qlLKB5Owy5V0zywpgGKAeryNjh/IjU0i2JAaI8Tnjf3ab9/mE0/oE4twBlc1Cl8i4fGkKa39rM+GgTKXAKgZEq4QxsySquSO5Fk3QMojLASgFRT40PJjaGLLgXJj6rB2K5/iMldp8itlN01wGQqNGSheczIpp2sjBbTlWQWRXjUqnpCY5Uh5wBlBoqx05IsEdoGVMZtoEKi8SEenfLPcmxdXX8Zy2EninuqrVDw+bXRqzcEMvgvXNOvsGGCuJDpyhtKXUJPnR9fgcR58pTwKNiweZr+wMbAaZC4N0pjJHXVVKoaK1avXBBpD4+a0RjVDdotIpxqeOXPppWP4g86RDudYk1/DwmJ0aJ9ZpAs/f3lyEvzbwbbu83khYvO4gu9IO6Z/3f8YcCnqrIvhfgdHDDzNl5EunUe6vInVC69j/dJrSFYuIMuW4PIVIO2ipK4cklzRM6VhIB+REOS90F+2QS2IzRKdFmfsca2jaeR39MFNp9NY9bcq0k5KJFSww3EwDPnl9dHIc+KRCCkqZVRnr01q4FGuCUok1QSohqjnB/AHN1Dc/wx7V38LTO4g8RPLz+Oo+1tzTXJ4dCNvwjicYCvyAgkjPpmMRmZOaDKSQI4rRPzGiY5EmeSjtGNq3/FVL9o8jLiLqoxdYU5XvYJhm5NXjC9GoRfAvuv8HV9qHnMCzQmMGVdfMgjvibQ32mq6ibN4cmKGqmDLuWKTfhXylNKHx1SrmdHUrAXRUGu9Zv3WBw4vCwyRqeRcntPMFZRrP+tXG6w/AlhSK0l0rAefNTAttZDQk6PmBTnF2JzSL+sjmDEjnKl7akngUlMTeIUrN9tkP8hKFyQ61q39P1K77T5JKaxTZOI4cmFZWDRUFtcDeifj1hXdrHo4RlF9DFfV/tJQpKE/y1x8tfY7G0fVSdmJoEIJTDZI2vk41inK2iRTU5c6SLIufNJHvvoizr3yQ/Rf+CGSlcuo8nUg66NyXZPAuE+PnaP6pXEg9rPvlOloMzQAN1sQexD4rvEiLrb6m39m3XEeTKdTbG1tgcfsProEIx3bSN7qiNQJbQA50GVVUg+RuM+mkw6WfsEjKQ91akA92cHg/qc4vPsRJjvXkRdH6NRjpL7QoiAxXQ/bAJoVJw71NydIfMIYyiQCkT0NOVYpNdAwrRsDW0itNUHaprVNBqp62spAyYLcyQHWymhT1iZey6AL3Qgrv0Uyc6JqNV9k0nCQO8ulElWRYVgfga+qISOxWhkYJhjYreFcyqhz2yomewCTwtaQKsaD4h3VTbl7DTz5XAQUMWGQQNlm1Um1h5IPVdvE0kSyZo6K2cQiIxsLayKzrTazNfh8LkmYu9bGVgClycBnTdJR2xSRa1ILVRWNRVhgbPFizdGmQEkkuK3DHOeiphNuglGZl20RsMA79rgj0LHzoinN6J8kV4JNZn21miPLNO+iUwC4BoWaX+2KFgtruCTTBqS8lDkQaCl3cAy41mSS4LwOGEQ1QjWpkGc9+Pk+tvZvofz0A6y8+ANsvPpDdNYuIVu+DKQ5Ki7eWuRTefO8gIvLPhcSW1oCNy608PF/fGQJhlovo0EJAMZS5DSqO0ZATlKKazyLly+K5iQFd5MykC4ZXsHk9hcY3r2C8e51OD8S2oqBSubR4C7qwPxkY4qVmjCsj4R7tJexLznPuNKwwcRkrb5kBP0UGLypzu6n1BOfJXKaItheorrTMJU90nqRqBJw5VL/DHnZjOilMCCxCmlHSTodSYCsMuczdYWSh3QHz5HdSdUkNpJtMxtOJ6MkMUeSEQShQ+bhMnSqmejI3rHvqjusgBwt9p0qH6giUY2lLK4XBzUCHE0+raTX/K6VmpIgDSoRDHgyBO1uXjY4pB0tPhqHMAY6uZMLkp5X8wzCJGWYhGVjQsnJ1kjuxSEIcbKK3wSsCVzah3e8h1tmSSoudOwrv3l05lOpfARNei2zJAl5n2nbiQMWesSuN7ThF/bpj1Mx2jEhPxitWConvdRg9bCVfwjmUSMgbUpfo6xSlLLFdNBdOY+185eQf/8/onfuBSQrl1A6SjQdaQsOPAeb7We/tTJaJ0hV2bes/dpDFn55lLfHJ8GwVRqsNqCnBYBahkHzGlVwVYnUFXDVFPXRfYz37mH4yf+J2cE28mIf3WpqNCUTkylSDoYNMsvUp7ASckKYLHGcCb4pkaiiVFWBXHq4ZGPt6q44nSqHOl2SOC5VJkgCcsdz5as9KiZwpuRSTuW6pWRGcTRN6GbnyhRUDiNK07zIp7bSsG8OdZKjSLoo6jTYBhwyMkqSgDCQJB2UvkRXxBghCy5WMmmMVzGjZAQBm9dsBwGftZDZCm6aTPuo6gw+YZgBJxxtP23kDEGR31zFYEemGjDpipOOAECDbxia0KfFceCCwLlIUbWjckvPPWaZJreMrFyEUgIaD4GfoZMmSGj/8qZCSdympKP8tuyP9UnXrXT1h+NE8PLIUch2m8F1+gKWEh30Vy6iky+hs7SKvNsDbUqUjkhHGqrr4R7mkxFmkyPU8xFKplGoOJZhF38axlA0Zp/IiEFSkuQRus/rfMWBDZfbt0gfe5ZufvaIi4vUObK8iGb38S9BxsCHkkiNTsrzljinxvBHe5gMr+H6zh4uvPQONt/8GToX3kDWPQ9fdUzt55g2Bu2WJ9imAN9t8x7Tp0dWkYyVrMlxxRPDBh1P637YLZ27Gfz4Pspt2ld+g52bH2EZu9pvxJUjyTLZcjQxyVJcaWikFH+ZGCvPCicCiVfbBHwU2ijMniuxCZhmMwBQoIvu+mWkq5dQwHRdTzAJjEHbk9YblyGnqltM0HVzFOMdTPbvIq/noMHaccIICMgyfML+taZxrryMXe4AnQ10zr+NpLOGGfvG1ZSHzTG8HDlckiP3JbLyCMX990AROgKwzT8rnYqdSXb0OrGdlDIpNTjMa4c5ulg6/zaQraLO+rIlcZXnSsln2Zq0niOvZ8iqIYa711EUA7NPBAAg6OgUPHlHwhBpypvXiZJQhRzTMkd/7SX0li/BS5rIZbeRUdfVyIgPvkDHjTE7vIf54B46mKsNhA0CotQMYwLVYEuN1mXMGRjrncp2y5vorr+C5QuvY2njVWTLGwIbEERptI/2rsCbGo+6RD2fKKlZNdnHePcmhts3MDu8hdl4G12UyLgo0k7I1mj+U101oJHtacEVHyWVB21iklSknZqKSp5lWZUWNlO1pZJTnQxG76qozOgtEKJAQ+mzhCMYU5WvSqzPb2L0+W1M7n+E9Vd/jPXX/hzZhe/Bdc9h7lOZJTR95EQx/CO/Rf6gDPY4X48MMDbYBr9hQZXgRyYlC5jAQaJVmBztYe/q73HwxT8hG3yKVTdFjrk8hmRH6stJZuqWVirpwjYxOS3jFOU7h9ikiuOBbt+UWETyNLNdrvSw0PXKgU16PWy+8QOkr/wULl0Bkj5okLapxONso2icSAeqaaSux6jufIq74yGK8bbUAEkXYcUVb0rst9WEA22gwwFPsbJ+GWs/+HMkG69bCL04kNGeZC5KiDSkA/7oFrYGN1AdjeQ9CKVpCspWwftD8CaNmzTo1nUhmpHGTBNw8e0/Q7L5Oly6HMqlhGEGW3DS+RlQj5RWoHjvEOO9Abo0uiqBkqlT8gJJOiLVY+9sBDj2tAuknRVcfOPHyF7+IVxnDSCQqp4wUtrsWqGebmP4+bvYnxzINiPGj/afoAJqvDU12GPjAm5c6/ZWsXbxLfRe/gmSjTfhuhtw+TpcZ1VgRvWcE18SF2kTNgUScJgeQln/MUUyH2Bt8zJWX38LfucaJnc+wu7NjxVt26pwNjU1EBwfSiz8Z8jzlewX7U/tYtzexjbJAM0eBUMt7zepxmxCnBN06dMoT3DhfQT4NMvQr0bm9h7fxvYXE2zvj3D+zRnWXv0psuVN6zPV9GPqHm1QFpwXohnaBn3HnzLLH0ILNBPgcNg4wRncE6zeMi6amChxi3lbmkY4lHUPzJqe0JDLqEIOGu0DKVf7ObJ6DBS7qO7+CyZXfo76/ie4UJdyS5JZOVA2QYKa7kOKhgj0wdquOnWjuVVNhG0a8q0/ZOEoFKoYPMOGdg/v+pjkb8K98L8ivfQzSTBsa00vDiUdekbEsYwtMfctlY/cz+CSlzH6/B66o110XKkoYPVIkyQVM3NFrhLaCjjQOfUESXGTSYlza28iWXsLnoel818d3Lu0L/i56k/zcyhX3sVsMETqDszuQ1uL1AmzHxnjMK9MipkApydPHOus0jVg898gvfhDFHEvS4hZMRWL5HTo+Cnq/h1M13cxP7iPTj00qc1TwqnVZi/Vh2DCoEgOkEWq5t5j7ivMO6tIL/0UycbPUGXnFfdkY857mUclRa8ewB9+goPRP4BePXlWTI6i7KViCQIdpjqoSpQpl6W+4j0m3/s/8Or3foT03Bvw3TW4To6ijAm1FeQkecU4TaSWmqYFi5Hi8LKiJK4Pn/dQdzaRrqWoNv4S6cv7WHntM2x/9D+Q7b+PJb8vKVBWjYoyKPsdZkNQjQSM4sZ2lpgDx1R643WDGnqYGgk0crAhjr7ZvRxymW9FLxrQeF3GW4UOZHKYdOsxuvMRVv6CIwAAIABJREFU3PZNVPu/RHnvT9F5+6+Rb/4IyDdRJ4yjCYtImNMGuDaftHhp7Gzh5G++TlHxEVpyKDlxXlNto4QcMCJmQ4jNf/C9kWCs2ZEoEkx1bxSmzPAoQe8YwBBcymKODvNaBBSm+Ca9mtLJ7AD7n72Loy/+EdX+DXRZKl2kZQigUy8fbNaT/c4Vg/zBc5ek9zqHpbXzSPIlM2SGFUOeMenAnOxkmBBnIsJz/J1iTrrLq0iP8uCNCTTlbwKU432jYZHGJt41n41QjAforpcC6IrqDe0LcoWQXhJlZMTr9JYwTwhOUbIzdtRKuzBCxh7BHcuI0iRD3l+28HSCSnBf2jBwK4Kt0FzlZR9Ait7Siupikmrep8kqRjMwUw8FLvzUTAvRI8lo9+jIWxXmoNXJFZRVJVyZK3kSi8kQacn0DTHwkd4ynpBoIllRlnBZjpnP4VZexMvf+wnc9/4tOqsb8MkKZtSmORkVrcrqQ2ODvSjaOgiysQ9FVSNnJC3lO9GX+q5DSjotrWLp5TexseRw71+mGN55Dz1nqS6ZWkGxSAvdPT6yT+Ybl3uaLM0LZV7MYjbF9q3PkI08Nt8qsfzaz5D0NuFcTwse263tCbTEaOApgdGAZXY1DqWsPrzcdCPwVxjiiKvNzw/5kBGR+KgAxj6YlYCjL86xEjUk2tdgcQLGTw51iFr14MFo2jpNIRgZ5vDjLRxe+TscXvst5sM76CVmj+BE1iu8PaRtT+QyBREBDLk/TjaXY23zZbilNYmSRgcLoiKd6J4UVRTdFIBFkyCVzr+ycQmT7QzVjJIciWrSIDvUdJn1kTE4UmHW+mqG6XAfHaonWc9uDhKWRog2KbYxSbG0uoFB2pN3RyqHGGWRZKGNAgJWHOwZWR+95XOhfLZGPbEH6aHj9wYJaKTNsbx2HgN5ezgtGRXMPskKYeZCfm17pucl7boEaXcZrmNqGKFQLCabAr/RIE5vzQz1+ADV5FBGXqobxl9mSGef1dI0w7zO4FZfxsb3/3fkb/wMycrrkMCS9pDndONzbxP7wL5Yu1ir2kxpk/SQpMceOOTdvuKdCEwKYqTqrUFySNIloJsjvdTHCz/lvqcM83u/gysHcHmu8ePxsCf5sv5wGAgWDi7NkTGEoDpEtfsx7o93sD7YwsYP/gbJ6mtmhkgZO0M1mHFK6qx1IWgNlJoD8YIHlH03y56cFpwKJK4R+Gu7Tx9nYI2ok5g6SZsInzesN56T3kYdOBbM8HYXEi65BJliLAok1RjVwW3s/OFXGH7x90hm21ihU8h5lIV5RRTtSkCKZX1tMx/vjzY3eUgWVb4aPuuhv3EZrrtqKopC2zm5bBA1kLHdAuiwj4oTJ+9jdeNFjLMeiimN0OYJiT2Iw9kYA6lulaQDV+oC8xG38U+Q5GshMM0AkM9z1Sw4IRN6RzaBbBnUfzSCGnGrxQCTn20y6RPnnET6HN2VDUkCNsL8NbYqmhL4Pdga0g56qxs6QIwLCG0AEpWtqibQLZbBlZRPEwcpbWT98wABRgF5omDDccZdlY5TLccHcOUEOWmtAeFqSqmNvWCZNMR3UPYu4NLbf42Vt/89XGcTZbKs2CDaGKjCEthSquwEY18qjFBG9rCQqF8CGUbuVphzrwINA9EuFLdD0DXM9JbcE4QlpBffweU/KXD94A4wr1HOJ4pZCWQ4sTftk5SgRsWNkjWlE/Icg1eHKEcz7H76C4wnM7z0J3+D7sZr6hclWc+gQgoNYXEiSyuWjVAg/o6Ljf1ismu0PZI/onr18O5nkZG0oOqPRXjaIJO5JYSpwpYNrUBJoBlVJK6qzrKmuwr+8Bb2PvwvGFz7DfKKh6bNkVZmec/INCxIruiHN+xJ/cJ1WCsWGTDJFW/AMO1s5aLFUBAJAh2jOEmmZxfkSZEx1UR6GVCTPnrnLiHprqOebIXJy8Ew6kVg4bTh4qH4C4E2J8RM53DTXZr0TB0iHQgYDVjUDPnvwi2fR+GClCNmCBQTce1+W/ctyI1X2E/GSXRWNuQ+pr3MPEztikV+4L2MbeKqnyUduO4KXNKTny2VStbuYo4qNI3K7EtDLJaSdtFZ3hQdyZys37qiGgROVE58WWB2uI+srsCdCa7kmJTaOa77q1oqy9x3sPb6X2Hlrb9G0rsgT19JKSTPAIYJsO0hQpkre0YeK2byENUljeWFHUtMb2C+DJf10JGRO7XQe0KZJif7QTuOqK/zAfJ8FenGG3jhnX+HO//yX7GUzJFQ8mo8U0+KYx+op5iqDfRwauFT3JbtiyMpGMqQFXsYfv7fcG+6jUs/+U/IL/0AHquoaeNTJ9VR9VfsQ26L0nyIX7O4Nmo14V7dwwF9oD0PfDW/q27mHwusso1gwdhDZlMhQeSMLjNepCGI2KIV3iOtJqj2r2P3k19gcP2fsOQPtfJQDJOVoa6F+tTtdc40JaAHUeuBBj6Jr1qRg97JgVreeBmuR/Uo2lEMTMivEt9FkxS+jNIfZ4npv3Ip99bQWb2I2RHPv5mY2tFAjPWo6bcMbsHbVswwPbqnzPOc6AQ02g20G5YZ/jRE9Fplkq4qTY52jAlelLOkAggF9S3ULFQH0j5yqkgpQwLsFRcRfguKVXiGBeaSyvL+Kupxpg2oFK0NKez5CLyhOC0gKjvJ0V/dFNA00pLC9+OdbFPKJLUYH+wgqebyyMlJQEmCe7q4356glnTQ3Xgdm2/9JZLly5jLM8T2MGiQR4SQOlQNOLk8XDlDNdrHdPcOJgf3MTragi8tiDPJe+ivXsTS+gV0LryufT95to6izq1blGKrElmWYc7tImkGOqrz5U0sXf4BsmtXUB0MbetLWDhij570O/dumcpK+VRimqncYYyYPS93CdbTAkc3f4vbJfDST0t0Lr6DtHMOE9cPUqJNxFCKcMOuRC7hu4274QF/jb89vNdZi1QLNwk7jkMTGc/utcAxp1yutLzQnl0iA8+RvoP9j/4bjj7/Jbr1kEuT3M7kAu3s1GSi9EJg4drJl3VjofYn+tEWfKIL99UAZbaElYtvwPVWUdGdSbegTVuLg/C0NfHejkLJCbuay4yLSVJaopDlPSyffwXjux8jo+eHao2W4sWucSgJCGQQM5bSqVZMDlDPSbtKc4/gQgmW9xLOEolTCVxnBfnKBSSHJqF8HRUlKbFqisT5CtzSeUlr9gxByBaRdvWyUaF6LFDLeugtb2J60NWY8n5Tw6IIbSXx+cg16l2aS70iILL/8Tf2mTYAvejxLwrMhjtgOCENsDSwakOgIliBkkDfOY/Lb/8l0o3XMUNP6iNBpQLpS5zq6BnG79TlEaa3P8D2p++i2LsGzAao6pmy9/FWqsFFmmKc9+DP/QgvvP5T9F79M6S9i6gqpk5wcIx4ZiRPr4s5wxZchqJMka29hNUX38FweBOz2VQSl3XkZP4SfElXUwONXzXvZbNlMCMlR6qaCZZzj+G9d3G3GuHFH/8n5C+8jXrpTXmyaAtkHhmTGyiOsj/kS34IwoVsWfaTRVoZ73xdz7N2xYpz3djAJlWUXkxkMpA5Xhx1vY4r4A9v4/6VX2By/Z/Rq46QcRVh5+RKY1CWhWBzJy3jTTgZn5aX5j6lKiYaT5fROfcSXE6VICqjYSJxEMoJytkUSWcFWbePkm5kDoH36GQpI+qlwvTOvwR01+GL/UDYGP1pvY6TTcPHFZqiLD1y1QT1bKhD52jZjyK4TATcQUvPa8kt210kyxuSOSIdJRVJ6jFfkliBFYTKJBFwR26HO3LNWB9/i2U0N+sCJ1mCPO0hW1q3lAHVELmkPdJEXCgmYd1xPWObKW/RKJr2GIuSG4uSWZljlY4aPcpAyikYQ1TOD9GjB4uiOfdH0TYSpB2X9YG1l5G/+AN410XC6GBKFix1YS8cY63qaojxzQ9x+1/+X9QH19AvR8iT0rYHxIlCG8y81D6f2XCC20f3cH5eYuP7/xZJfxMzqqFBlqvmM0kw3KqR51RJ17B2+W0Mrv4K9fxIIZkt7U7gE8NByGGcZ/I6EmwsCIrnjFHVFKm56xwV1rIc453PcOc94JUfHaL79iU7j6xmlDUXyPgSV5sKrRIMKcKIhyvx3oe/NxAkHuTTsQQROE4Da7S2/vMWwhzTCiBBx0/gh3ex/9F/x+TaPyry07YOsFJb3S3exURd7oImuEis+9Kq/vCGPrZfGM8hY7WF0ffOvwLXOydDqkkmNm3YB7lA/QS3r14BjZLMJma7rW2TWsndxSRZ0kF2jgCzod2xWu21yvDH4FHSis5VgwZJC+DTXhgUGO/eVWSw8q1wUsh7RPmFbnFKNilc2kF//ZISFMU8LTKKRk8T75Ye3QyobAl8hrtwI5Bo/WMbOC4yftLezKhXYyht2cg6WN24DJpMWaRUIp5hxVIU38MVj6BmUoqMjUwQ0V1B0ls2aSmCkVFAk4AbTeGPMDq6A3AzRJBqqHqqfqWx8EplsPzSj+G4sQ/U6qlyi9BwjNIlIDDEoJ7B73yBex/+HDi6hj4G6Kaltm3wHCiOJ09k4FlSKfdhsV/JCO7oKg4/+zmqex/AFcyT6+GVciNBSr24mivWRPTNesiXN5D31+EZJnDCL9rKKs/wAtrmDGw4SHVSwSel5pkWFvIb6V0nyPwMydHnOHj//8bw+u/huOGYsWk0dusequfsmMGDgS0/c4TDS6p78y1e/dJ7YgIWGcVW4niHSTAW5CV0rJlgKEclV1iKsrSgr3q+jcPP38XgxntIp9tIqxnoTCKDMJS5fdnkImNHnXEBzdrbnvAnTiy2kx4SrrQrm6/B9TYa0c0wMIAMV8vZESa7180YWzCvakRlW03Z/JoRv/kqOuuXwdWXd3DScWJypdewBCMavUc2yc1l7aoZZsM9oJhq71arWHB8zcgiy0/aRba8LqbiWGlPTtBxSHstYlEtYXwDFwyXorNM9YjqRGQOShvccOltvGjTYM4YecMteI+Mm3RXgXQF2i7B8WU/JEnbs6SDMaXZjZiVLV9el70oeiKpbLJWu8/qr4sDTAfbQDkTcLDtjEUi6NPgqifyZSxtvKJIYG0RkTGZ5ViwIsX7lEnKZkMc3vwA1cFVdP0QvTSOiYEsS+NLUMj2ExTrGToYIzm6gYMb7ynTHCML9Jt2Y9N9nYbcNZxktteJmw291DIr8wmz7ZerC+PJ1jBYkvY4cm27OZWhLhpp5JSWywH88B62P/kF5rfeR8r4Hs8YpBiHRDc9x9/+GdfamEk+bvjny01ZvJKY69mQyn44TjAFJSlPijEoQ9b5DHWwxJUob/4ah5/9EvOju8y3BQpZZtClGmSRkwQUTqyUIj4bpoElHh6va7FhT+4zJwiBnUl/eli+8CqSHt3TYSbQPqKVmhdK1OMdFIe3MTu4rcRYmi0L3bA5zniYVawSrPIlUGqL48EJxBfBJnw0iUBeD2bqqzAf7UsVcwlpaMDEKmRkDgZyl3XRX70gA6wiNG3W2uyNdQSlhX0RRLoOltYuAGlPCwVRgkAiQOJYMA5GK1NYvGKZLpfRG1StwqqmTsilS8mHrp+Wh8gzjEJeWrsoAGw9Zzaq1nfOYhqdDjE5vCs7FZc4Ks6MLeEmUIuzZSzNqnYMI0Sjsi/MhEi1Umo7LUV+Dj/Zw8HtD5DOd9Bh5KlyD1HSpkHbrAYkjXhX1i+u/AyvoFQ0xXD3BjAbIeOzDPgr6R3syNjvKyejPm2JVE+7y+dkebQeneDf4CSwuRSAhTv0RUmGPnht09FWAfIcT5qUGx8oebrBvd9h7/N/wHzrE+0HI8jQFljTmljOyBwyxLcsboGI2m6hNBhf33dJMDaFFm9kcRxGZh8j05l4JbcsI/7KKbrJXBvDBh/9Aji6gX7GjVk2jDI40SAZtgKwZJt4XMtMlA4XFis9kc8C0LQjQyLd0/nSeakQ7An7IcM2vQpE9nKG+dE9ZPM9FId3Uc8PA20MBGIHzDC6hKXzL6DOVqSakMaUI2jQjYPF+ctvUjl0lTQvMBsfopZ0xIzz8W4DJbPLcJ53kPVW5G7lqi5JSIzF2Wf3WrnWKko53DnNGBh6hhp0i47lEN3KuxmjxDE3lZgIBHmtaPi2/UBmWOa9ESQ1qgGcSm4+dF1zh2eM3TZQ5f2UNhQCEbpVF2PMB7tIlONGTiQ1mD/LW0VXN8ckX0LJ2HryopwQ9CzpJjOiV3PMx/soR1voJYWkaFMRVZwY0Ow1tGtRHTYnPttGtTPxc5TTI8yOtoH5RGdzUYpixkXGw9CzRc8bVUbG9+T9FfEMS1+kc6jtib0ZsAhyJbWQ1OQ1k9K4wnPdsAh1jqn2NJGvM7OJLrsRhnfex70r/wN+/zpyzGyMaIHksLXsZ84OET0uJqz361/xzvYuGRbbr9TJtKM5som3c6PpMdr+wz9ivP2FJYZyBSrPY0ZMbBVLUcym6hWs0yyVZsPoP2qW9ba6J/6JqzutCdxh3N94RaqAvEcKfLOpQQVEEbfVDKPd20jn+xjvX0M93QmDwYA2CmYkJz9TlcmQUR3pr6P01NXNqC1AoZci3EsOIONTwqMNhqkeqmKI6YjepKkAJk5PrfxSsUyaTNIe0t4KKqZBYM1htjdTJ3xnu7jxkHEfaZf5XU0KJbElFZEL6fGTM80CJ2VvkPQmFNQE7yxtNPvUjDKU/irzqpmMpPHjCNNb1V3eFB1MHSPnR261RYuu4Ho6gZ/QfWwxKkqzyXbrX4o67aHHoEIBNIs3yU99lDHZ6EdRrJiONJLMNSOLmmjMSUDIt2vcA1Ymtf4VKYPyuJ+Mebe5p6fCZHSo+7k4kt585xzgTn+qiiVtPi4HXd02hk+cZY9VaBKcLVwNuEhbqMB82RkBUfzBRci2xJDP2DcGljLuKCuHKO78Dvsf/xx+tG3ZJen6l0bO2WH+XlE/8BTp+cdoIKRiM3THWx6vh7wd0iOYAYzW6olsLuObv0XmmOOFGesoWpneJjzV4LYlSoKJDKsl9rhXpb3zyX6ieF9UQOG6WL3wmoySJofRvUew4BLA+B3aIMeYHtxFOj/UQNTTQwWXcWILYLg/SYMoSILrLGF5/bImialIcYJZH22+BVVJK7vlkeHGvtlwX5KiiSM2ne1p+6u2uRzdJbNzxJy2zeolW4aJs7YUZciX1wQytjPbYEu2FCZa4pxWagm7TmlVhm2t9rX2E/XWLsg9b+ulqbqUqCSoBvCQBkw5NVsOAXq23c1oJJFDIKFNhvQoDneQ+3mA37BiilgELxP186VlqWE0VgpJKVHS2Mx1OuzuRlmgmDLmyAL+GGelFKiyR/BOo+Eid5GSdWHnEjEnEPP7+tkR4OZIagbSTZH6GbJ6rvQVztvuf6qtGXN0NJNtsdQn+9lM8S1fmaZgcEwAoCzDiAdK6kwgT7sWXwIYJdkq0es4dMt9HF1/V/ZUN9tX0GzDU40qaiPf8jK/f/0rM820vUk2mdheMh3Dpel+pe7G1vspiq2rOLj6ayxNr5uHI4i9HGzp+8FQx9WaK7KY2Pi2qcj0crFDc+0kPnAVouE6W2IukUtwnZ4Ni5iHg2HZ2tmxajJCOTlQnhSUY/jBtiWrEpNHCcU4maRnPtVzF1/G4CZTHh6ZR4IDTnVEKQNYfjCEyxBLK75mOkZHezhfzUQ/zQ4Rx1JlWiBagpSbCFc2wQ2F9WxgMyioSXZuUTB5kdhZhuUVBthxV62tzjZBNFPVz9FwiK6MwFG0MYYSeiZd2W8GNPQzHo4rvAQNhiMwCtkkKMoJZOSEe5C4WbRZaKjY66bgWmaGtgLJwQ1kmMimUnFjheKrLIJTvMSytcxyhz/Te3LSmMePY2I5jBM5oDKfIKlMPWCQJMc1ggCNlaR2zNMiyBHCmFHapCyuNEPUk10Ne6ooVptEZv9iebVCDxRKoI2qJ8G1bZ2mcAf4tJnfqNVSBbmRVHlUmNTetptoQhJwGJah3D+Wg8ZND3Hw2S+xsrqO/PW/hEvXZD9kbWnoK3MH25hKhmwb8pBPioOxuW9/tRIbHcUQZKSyLJEkzEzvUU2HuHv1Y0z2bmK5HjRaDleosghZ5qWLyxAgj5ExuwXoGQ1YgS1GizreQ9r4eC/LvpShu7QG112WLYMslVLXJHAGTwwNXqPhESrq57KlVCgOd3RESZ7zHBsuC2RhDnmgKGMUVs8LALh/US/aYLiiaLpIrzHVIYC0VpaqwHh4CF/MDdQ5EUQyK5cTi1XJzbu0Yq7qsCoZypCXmGyKE5CxEOSJBN3+ChwjeGVb4GSPjkce01tgd3cXFztL6GY8k4c74pmagq1mAFeKbn/JvFYyGpt7n+3lS4wumhn4pJ0+0Ok1EzzeQ6aPwOZ9idnhts5qFpSRiGoW+8l0huy0STJ0sTLGiKlC2baUqg7boZ3moX8desf4SKq4K0pARjEDCVXNNV3qrJotNUfjnaaY1xWGR7uob3yKMrmLylMdkl9ek4orOsMSFES6d19AaaXEsijJxtV58Zcn8dkkyrh1I4yIKrZTE4KUvaCxkLxaKOj2J/7XFSaDu7jz+e/x4uY7cOfWZRy3bUNCY9l2KNX/sb3MOARtBB9XYaYuJO8V5lLVHWw2j7vcRXXt/0Hn1v+HrGYcCKsJTE+WIIOoHbF6fqe13y7brXa/ZQWI9337AaiVj4Vl0lNFq7m1iImEWKu5xM2DZcbnMrSHshtjHGYo0hX0X/xz+KU3AbeiYDDnZtZcnWJYoi4PUOz8AR0/RlJPkNPWvfsHVPMjJEtcebu2/YEbzxTnw53UPSTnvofZ+g/gxrvo+4EBA1cNxllUcxmAOYkSBTpxLHhyQoV0eBWY3AbOmaubpzEoCbUmEGOnmdnMId/4HobuA3TqDN2K0arsv21b0OZNWN7eebKOzsZrOtRL9hVOYHpG0gSdco5kdhPVvd+hs9lH1uOBX12dxsl0uoyx6KKvILR5QgDqwTOCFoXlBialE9ZpQorPltDbeMMy5rlMwZY0ShMYqEpn9I4xh+7sCPOjG8iqiaUGZa5ggTptStztm8NVOXLSZj5B3p+jVLwH62H+XAKpR52mqDodFH2qZT1UoxI5tzgwjiY1CZE5gzn5vbOgO7qbafg2uZMMX2HJHwF3f4nq7q809rl4OdgfHJArlpttpCRZYEPql6mA5OCTABcLJ6FkpsY2Eyle14Uv/carZr3JaJBngF7GtFzk8wGqrV9h8vEyVn/8H5EuvYJZsmJ5jUMVAhzHxccWr6bSr/hA22LzMnWJHByuMiaCrj5vuUDnB/ewd/sLTCcDEZPo93S9bKWy1sc+hG+GdSZdSIwyoKsZnJR1sLx6Tlv3CYjCSXkrInh61OUUo8Md5b6hVMNBmY4Huk5GltAeVlwyGr1lHFdun19ZOy91huDN38weQfgLYBubSsmE4o0MvXPU07F2BOtakKTEK9JgLF6E8SY8tItlRg9yvIdjE+ui3UW5WRTUZ6OmOBOpZh7l4BDT0aFUPooR7F8zYaKRPk3Q669qNVd9YfD5WeAS+kHG63OyKyesGUrFzgTSGMFdzlEXzH8bvWhmTdBSxAmsHcJEtwLlfGzIxX6TxmHHcwiHkRcozanCbci47NOePD8ib7O6GS3YJkk4pD63d4SFyIzstC/ytIMSVVEosx49TIv/KDHROM0Qr1I7sZ+uGfBNW0MeJB8wXT35hvuu6nKO/ftXMbt/DQxQVLIpAjlVewr2ikowifJfq09xMBwIgYsmRuvlUYAU0zDQsDvbxdHtj3G0dU05PAgu+v1fq+Ex/26RpK17UzL2gkcjVk8IMF6j7YBoQ6mBclqOrHsO/RW6pymFEJlt4lP6YXCaFI7pEeaDHUkd7Lu8PUwSPdhVegVORoM34rN5g1g3A+3WLr6EJO/K1ck66ULkYHJwW4Tn7LSD2+gFUeoGGnoLbrNrsCN2p5HUeBAX1TvLORsAMah2qj88TYMzN3Caq9WsGDLQSl+oMB3sohofwU9H4VgU8gQZz9zCIl7awfIas6N15EJmX9gHSYLsE9Uq0jXN0GcQYGYBfQQgGpD///be61my7Drz+/KYNNe7cu2qHRogHA1I0MRQYyWFYvSgB/2RetOjIjQxMQqNRuJwQA41GIAAutG+/K26Pu0xit+39sl7q7q6q5toUy3erKibmSeP2XvtvbwjWtQGdAhyNdX89JGaBXMNc2TQfaCIRIEq1KhsF1qcHYaqZCIbYhIqE8UwGCM7nnTHbLiprRe/r0VOegKVSFATUbZwyXIehBDmgArc2pBJzI1N8i0yDeuK6hfGdogPpQ9c/oA196Oi15PLT/SofPTtfrF+/g9csF/hMWsrzR/9Vocf/Gc1R3ecCsQKIU6ch22w3s+OZA5LnTch8A+14kkFi4Ve7L+v01t/71ovA2oXwkUusspvEs4XJBIPw3pSksQYY/ruzW3ikiSvttW8t6KVnRvKRptmnjElpDYMlyFWu87I8X3l9WkA2Rs9iMj44S2JUoVZ6/KJERcbrNzBTkVfK9tXI+COqzHu2r0absIObIk0GKGdftDMNT5+pLYh5ya2gaUf3zrcvL6Wivm4g535Hc/l78XgNuxnxXDLMTOgG2oY9zJHYsI1dWgOlFdnmp8eOt7HWeHAihddCJI0Rna0A9dsbwoiaXHbhDOdnw9UrlDHOPoq+xZmR3BBkywHEk4e3XZSZ0jOEPNOIg5Szd3w5MzPCGUPyQ4y7uzyJJ11LljngA23tPn6H0sbr2ncUO8Ed3xwZuyDSB8QJBIXIZ3RisVP4W5L2AN/gtFwbpgpsV6eGkiW/rcERXbjDTB9G/9GZQNGzgRDMqcmz7CdavLgHR18+HOrTRRmh8B2Uq33QyeNfsbEM7gHLzZlbM/4BrEJGYWq68ca3/57NY9+q347Ey5Bd4zDK/BNv0xcljTEQVSPz+PCzJLkYnkAhMGKUGxo/drrzp6mkhfciuM2Y9nGyEasdPrwIxULatKik8cmg/vNHn5r/OySAAAgAElEQVSkdn5iA/gSFFah+Eb8SalstOEAPuJV2OIcN7HwmiYCCPQd7IYK1bjS/vR03ykDrMPyxTW8PC0ifVec6WxEsj0yuP9ShSEJrpdrsLbnWBaIBSBzljjvSBbVTNXpI3cwQKpAdQkCFMazuBcqWKE+IfLUEXHJ0JA8uigJVA/Pl7Yh5cipF50XiTO7l1XreipU7hZ3cHIl8zvP4tkwA2vq1VzV2YEjbNnk2F6QRBxD4zqxlDTCfV2ozobKtt/QtR/9K+Xbr2ra0CkxSH5G+1xiXSAtznFCHOl7vNQCcG8vgxVzdcRyIW9hE4rujUG0GZPVN9SJ8yl1U/vWvbMPIp0ACS1gQ0xSmddqz+7q9OO/U7P/jiVqExeLcXjkYMDdyn/6tCPUz7+HiHtRGEANIM5l/uhjndz5tXrzA3/nxhY5P/2+z80v3qRsBH+4gKhphFW5pf7mDceHID7jYiV5ECLAZnfQVj2RJZXFscVpH3fFtEb16V21k0OTJBsxIT4gANwAhIOAFwOt7LzgCnQmTckOwxACec/BZcKD0a1ZWJqoZ2MHwXUWiuWZljaxrA813Nh1fpEjrdMJ3gyMyl6WTEPC9vOVUGuTFBE8u7IEszh96LIG1eTAJSzPuybEDa1WYjgdUW6TlIGgdKiRbjcHfUQaopYtWd7FIPxkjlkJiQtDcHiGGkcqE3ULKY+SADwH4hLqK595Qk6h9fmx5od3lNGviCBFNjlSnWHAmoYqM6efX7mp1Zs/1ks//hfqX/++Jvmmphpp0VCZn/ujqoW6zNjtsncgIuPnvqb6MekUAWvTmjWsGL9VR1OZjtonoH8L35AM3RGTPCXSJrDBIOnRjaJXqz54T8cf/Be19VnYrIA8PBF8+hwChtPJuMLr2uljCW74KtrZkY5vva3F0W31W+rjY+ixSejCxni+IHuuHsREni7IQkRaFRsvqUdZxx45JxEazmxAfCM1cQTTE9XjA2VUTXOEZ/wOHHrTA9VIGtXUxAiR025gi9XRzIxqcOtXX1Hb3zBHhZnbusFKLRHqHIYgALVq69mZ5pMjlzRYCgAhVMQqM8585ARGIkutYizVDM+Cgfr4aB0bE+eEytChERIZAYT15FDZ4lizk/smMCCvYZD2AuoiGdxUt8uGGw5iA7Etadi+7GguV68nII85e3qohJ5mEA/TefJ8zh6pnR1YWkBztCwEQvt8oBP+HUxgjO/49m98PvsPhdFc17SIdiz8n6vsF2ooCq4Vla/8ia7/wf+o1Tf+iXo7b2rWG2leE3xHTBCeMfxUzJGaeEh9NNGL8hjAESJCqgDRsKyF+3GhTaY6RpT2IIr52/4iRYMqAaylJegUBoAtjTa2OdXw7v69Fg8/Vg6cgSER+mSmU7D9GS+Xdu8WLVAuUSjvjoWak3s6e/COA5BKZMIIqnABqWfc++v92Tv3gu0BLm3tI2EIGIrhMHFec0v1NNp5Wb3hpo2fTmc35iXDJiJgNbF9QtWJC2tB7YkLojQD5+fViRaoFdXEFN4Rk6geJt0QqUIiIG7jutTfDBUpqV7mpLaFBIEPhLbZ0i5YFrSeHEsV5QI6hI/5mNtCPJAqhmuJeBAWjqLcUSEIEPEkpXJiYIro+GeG0kkc7VzN9ETt4tQSwvx0X+3s7BxKSWXhlhg2UX3IrCZsvhs/jySsHAmqzYbqI8Hk/ZDe2AXcw5yPNUB6GaseHyqfUxohXtwrpAfYAXYSJJT4T1Dj6f23nWhK3d6mmnt8XEIsDVPsvF7kDVFLWf1tFVe/rxf/8L/X9R/9S63e/FM1W29oUuzotBlo2paqKQfKY5cqaNilXPrTUX7+MWVdnzsSYGCkNNTnFvpuGt+6dwfPEgzr3ktRDsSSuBlRraJdqBk/0OGtX6mtxxYwrL0km9izJpxKZsJd2Adh1CIs0vt0Mdb4ztuqjj7WAHGJgsIuVIQlPdqHLnfis570Ff3OQi+jM71bOoKSHgiuQQww2HkT45qk12/P+SVrV15xGQCIOBm6NsDaDYpLtFVvMdPhg4/dQtVcHTgVeDCi7Gehsc4O7mg0m6hXViqL0u7LhghU/E9sVGrolpvqb93Q/PBdqZ0Y6SAlDt+2vzWIDAsRahMN0Gc6Pbyj9SZaZYDAtvLjEQGZcfE6Aa+n4fqeJofvWqVgdGyCqmpcRKtYWVfeX5FKCjXFPUJCIwKWTgaHdkfaW1iPXfYAGxvh865Jw5g6ZMqHWtm6qpO7zM8zcN+ezh5MS9rBOhnbELMg1Lh5+R2CYeRtK02O7jsiOtbFJCXsSiYzYLAzmhyFmmeV5qcf6ei9n2lrdU+jNdrrIvOUKmkjU0V7EwgruTfUk1m0UXGwWB1p+NK2Ble/p+b4nh7e+o2O776t6vSeWkpoLh441w5VuHBB4CAqzM1qWkI0c3cIHkQtBVOaIX0ONeEr2vpfym29S/GusQdBekDPnbt9mGWaYwJ48I6aox8o31vXbJGp388jpOEJdHtyUAUbjRvCN+C+rLK5Bwa1xVinD35rzkFQVfDWUL3cjgOO1pU+fPLOX+N3ExkD5YnZ2taQEBYDqo28EXdBQSE6HFIAm+p1du5bQAvCAILhrmtJBDvbV70gDwVqFaH1EAaWgnoik+N75vr5RhPxF4amRQSrk5abylX1N65rVvTVzB30bi+OpQAH2rGfY3MbdBZVK02P7zsNIBvt+XDYh9IaOVSgUUZtGLugR1ITxa3x8NmAhxt+SC2X0t4gC6AmuhC0Vnkz1YxOBoTtk7ZAXeXZUdT1KVcjo9kSCHCDuA5VrmyJchHN/DTZQWBQeMWQcC7kIJkIJMkrecIg2hiRZ3itmknyKsVmMQG6AAKOElxY2ZN2psNbP3dV/NXX1+mD6XKsdq2aeqFSMbGIXo7CIa2qplBelirKNeWDLV3delFX3vgDVQ8/1MHd9zW9+18dxFcTYFYjhZL0CREOCQ1jMmoxdW2Neo4FiZas5lcx9G/xXwAO3MwBzi3Z3ouBO/Q8q44+1PjWr7S2dVNlqoMDM35iuT4Bh8KGLnQqJGt8fTZm4cWYaX503ykBZTNx+EQX94ihLHhX0PlP3PUbOuBMXICFIuQ6pKHuUTCI+JZA4Ag9r8mt2X5B2cqWOwSCeCAJur0lCIyLlGiYHmlxfN82Fqs9y12FbQNLQaXp6SNVk+OUr5FHiISjiCEtucsMUJV+ffclnfVXVc/3zdFNpLyw2G0CaJ005m9tJYyvdBlg7IiuHicBeSAshma2B61FNq/oOB+qacnADi+V7S24jFcTQbCUasEiiAuEozrT2dF9l+hEMMKQOjt5pP5irKzEY4RrOQzeGKxzG5Up+UBOE7Ek8CS8LuzRwrV0sNMABMZmogRMga2JDEFsY02P99Wrpl2SuRlb7CbzT5t4uT6kZvce0NnJXT387X/UYGVdxfUfqV00aoqNeA4xvXjMuBPV65JR1nTBvj/65lDgGnVxW/2Nl3Xlxh9Is3+hkzvv6ejOz1UffaBsum8DtLP+ISxFrsU8PF0lBlBsMLFZzJAdvf4N7fcv47GO9TKB8RKYzsR9vbOME0Sl1JN9nd75tVbf/DMVaxtasN62k3Hep78KxyWkzW2dF6sBRi0Maw8omHxklxUrx6ZGCggRPkRF6Prz8QqAPDkWS2hGgvPNjqGuIuT96htq+itukcl1xnXT8zB4oSo2pw/UTh9a9zSBQU1JxAgqgZcDIoPtoj87dgc9EsLIzIXzuY4IsSe0yNi44j5B1dltF5bq1IqLY2a8QcMgTo2yxZmJnENHCwzsZISZ59jmYV9LTq+jXVX5ijO9u+B18IBK+f3VPfVy2rjzgpNAZOBY5FrSTfJIOVICpQvahcYn+1qj2BCRrnjW0qkeFwRrRMAeLS/OJVgXh6JEBZJUSaO19LqwQZyoSGTu9ETV5ERls1gSmERngwk4Tofr2WthlG7rhUZFrvn+b3T3F7mu9/rKKc7ervhBXO9CSq5Di2robCwn+FXkEGGKQnpsUBMhzkPlK+vqjfa0sXZN6ze/o/b0liZ33tbhnbc1cV2YExPB0WDkcIH5fKYip/NAqBRIiGmxutl+695NYABeeiX5PfaGaUdr80CfZF+KrR3c1sDS9CgqI3bJut0NnngvoPkYPpFe8IObi9PbiNiX/Q8c44G7GkLUbey0vSOq74kbft1fzfEvqhbdANIxZuegQLi/ixoRm1KoLjaUbb0cm86YbiikgC6uosD3TNODO8oWJ67rathwf0vi4dazSN4sNDm8q1UIzGhbFdKSVSlTZRtaDbvBqsqNq1ocvKemOlHf1QdCrH9MPQpmYvhm1Znq04fKq0mUrDTScY3RL7xR5PmsbKopRo7SiU1CEXOpJi8Im4jb4KJGhIrIuJ14iHGXDOKUj0KsCbEwrg/TUrib1i2Iyswbo3JfebnmbOmGNiZ4Gj0F3PKUj9gxMWtcoBwfU5IM2azApB6nesaUVn08FrzjhbHdgzLxbGJ3MI9QwLqoj3V25+e61UgvfOcP1Xv5nysvStf9jX7hUSvYD8YWVZRq60IN3QaclsC5kGXqFyHplMrc03oo1NDVne9p5bUDndx+Rwcf/1Kzh7/RbE63zVyDMkmGVhUT1X22I6Xbkc/l+0UdBIizd4KuBPzx67iBXa+nGRUD776jq1deU96nKP6zX5FNDfKFwzG2NsFXp/tanNyzoREDH5KLB4Ndg92GjQJfVUi0z37SV3nGkv2lh1gc5zM7AXdijN8IksTlnMZqK9Q3CXeohetkswEadAfUdK6Thx+pt6AgUh1lFuy+thIWNAE1pZ5pfHDL6oaJT0O4eRABR6CmMLwij3YmZ7d/qaY6veC9OAeOESoREZaYUHnUiTL1XHaNDrtRkxTi3dBzpDAV7nQSG4M7IsGI4LPRlm0KwRiCQGKwtsmNjoo19ViD8JCiQMY8xDU0bG4SKM/6QxLIaaL97PQIu8401GWSF/PC8TbqEQPD2XEtny1hsCLVxBIS4fkhAMS9zyEQkmS3sTAKF7Z3ZWrmC/ULwvknmtz9uW6P72g47Wvnyosqdq4pz4nPwVFBAexEZlH7/Qpp0sQSpEH6zHItWCvsU1lfNQmdeav+YE8bq9e1dv0NTW79XIcf/Z2m999R287sqsVGwwuGFcXH4wnfyr+d9GKxvINVmol/i1wyR/zOTjRln5PgW+7AWrqt8alTL8AD+/Odc4PiCueuLL1o+lC4pr0FINgp6tcRIl54JNBA0E99wlf8AyK8x/yJ57C5+d+pchGi76S8rNTm3ivqDbajqFSkKto06wuw33DdfOocHexRT6KBOTrnkbuxaDQ/e6h2emy7TZYNl9Jdh6Q2zmIr2X3R7Uza6T31WjKSIQhGwTSD8yeFC3GhyfFDrS+mtpO5ZgEIwtqawCNFRDBff2VDNV4+KAsbBkJUkoNEXRZUDe5NDEkgfo1BE7f0YhL35k5NrcX8TPV0bJuSk0HTJuR67CwOHFzb0SwfOJuckFYQlxykVdf8HZjodDIvT40gNkpVzDU+uGfvHDNvXP8lrZIjevkcawfscvoTLWYOfkSF414Yo8vsVPXRiR797f+i3otvafOVH6nce029tRsiP4tOA0hobo1KgJ0TLaMmDIQBe52P2cUdam+RbFxz4l/KTeVbI62u7Wq094r23/4rHX34Nxo0x9Gmh57stjM9gZRpFb8tb7E/g5wDk7CVRecF4Gcm5XbB1PZt1Zztqzm4q2zlxShl8YyJFmwMSEiAPnHFptLJwQN7CWi/iWgZSU6IyJHFSx5L4O83TGCMoGHc84ZdTjgRF+gPnrJOjMeGUpZa37mWmrLH77ZlAAmQF4JD8e3JWM2CqmZRbCsidcHdoNxsVMLUQfR6NtHi7Fg5NXEGmSv0o3SZbltUAN8LZRR0oml9UKjlaJ/6gQLf9Vyz40MtZlOVXm0M8tFv6lz/J24db9FqtNtgvZg3kZlkWpej8JKlh5iLU9unrtSbnKpZ0GeZ0pERB4G9YzYdq6SXTm+w7ALhvYIER/mGlTVLCsHCTEJs2C1cM4YcpICTVfDO2wChqheanB1qiBH9E690HzY6d0hRwNQzcRtYjkLI+I3SraxUva/jD890/8EdDa5+Xxs3/8gEoT/cdHlQAJEVkUtFryZ2KwJRJMJY3vEobFsEDxgrHWepJJBnGnD9lTe0VzbaGDZ6+O5/1GI8Vh/J14T8E5P4Vh3wfgfsgczLsWOPBRB2PhgnIrhuMTnW8f4dbV9fuJ9e2pLL6578UDhi0q69xgFMzmM8e6De2YcqqkNn6VJ6kI2UEz5s6k8kZKmKSvjPesKTT/ySvy/rviQZI8I12IiJ8FGRL8/tYUAfnxMb0t9Ss/GqNHw5om5NL2jaVZkYUYOe7orThx+qR5V5kIrYGHsmwpOD4RAvUFlLfW/4I1WP3lf70u8r729GO9O8tHpWw00Rx2mdO9pVufeGqpMP1Szov8zqAltgHMscbvfG8MZW0Mz3lS+OnGhaKFzq5i42uC8sVdT5tkbb39HkXWqZUGumUlv0Ndx5WcrWw37mynNozkyYxLZGzdFvNagP1e/NnfyHjEBbi/nhh9ILbyojfoY+1TVpI8Q+VQ5KLPZe12H5gq7M71nVqnoraosNSw9IOTXN1f0kvHG1SovKVAH8WOXZbatWCyfzJE0+0ZYC7MYIDzGB0GRcjwIfAYSoP7yssPdarbZzDZqZVs8O1bz/WzW3/63qrevKXviuelfeUDa6pmz1hso+rYCHbrti25TDFly1K4pzYQW26QxDbtQ4xhkwISqYbgq7exoMX1df13X89r9XO7+lITWDOukOwmRmHYTdAYXglS3jHvJjf8LjSfCesfux377eLykgNdVVCvKd8sAYSEd8WqnPOdM7ag5/IzX/REW9qgWeS8dxPX3UdjjA4c2UvciNqtlE9aIyN3/6Zc/f0UDPT46LRWdyvKNHsvmRXgbDVYvIGPqi8ZorP4ekhj2iGuvs6F40TKfotwkBGOM4/+B0ti3g2mf71y5zOUKVwXhJoBtGxE5SMUtHrMi1sXNdD98vtHBT9yc3mBfBE2HvOdagrTU+PdY6haEKWo4gOaU4l2RrKIq++qOVqG4398OcFzTEU1JEcaUECksqlgLqSpPTExMNPyueakZDRb1tJ7WGCsA4LEhDm6jUhzclHxj5I/gPb1X0vDb6myhgr4PzgXxE8M7Vjk8u1P7t5noRBmnscFBz1c6SE+dYViV+JyFmzXnpGdCgajHRwf0P9fDgQE35a432XtPmtTe1ikq8sm3jNAbKPnEuvVyzmp5HWNuDgeREXuMehwDlFBKDEJO/VKtYXdfuaz9Qj9Il7+5TysuxUsj/5vgme3ivEsv3nb4df0J9/uyxerWoQDCbqiWwtP9s9TCgabyhXRjq0EKT02NVFAMycsRDu0BO3FpJWHh+yjV4iGxIXryfTzwQNKZC9G6dr2jz6k1lo1WbtXM3bgm3JleTg2FHcEWC3UdSfUJn7eCZHRW+uH+g6lapGh0f3NbG9Egju19x4xIpQE2SkIwcqJiPtLp7Q/vlSM2M7N5QFRJaeQbAGjiD0j7eNhofP9AatpJizb2Vw9DO7+TPUF4AD866W644BtZjzDWkTUlBkmMY5jvlAFsLqtFiSoU+7gOCRQQwXgPsPnh87Kq2K8GbJGCLFFGOlPfXnJNCXk6bDbRKTeOMWrgxGxuSIQQYzIlRWcw1PbyvoqU1RhAsDOod3Ls9xmgCBuA9pJCtHfsOFR0V1d5Bxo1gQ/CekzDCIEyBJNS/pj5Vc+ueHtz+z7pfrmtt76a2X3pLBU3cVjZtn+oPb3junG87EZHBMBiIIlYAXPXIOKhVxNBc+Y42FzNNCDzb/7XWqPRoYsgsOhuGp/TYn46EAhle37zkkgZiztKNKh3jbTmnONZ9Zb0Ws7Fmp0cardFp87Nf5xKMw9DNAlyHhNqzfa/rRWziZuEd8XqbpH32A76uXzsAdKDq4Ia9Il4OnVJD9rR7T4/CXuqm9XgUIqbB2n8Np32kenZgo6ezgBO6+/5WTdh8ycLu+ETC4GdqpqfqNTO1JE+CHJZ8AkUYB5uUzV2u7Dh4qdURlponwBTfQT1Qh00+Pyah8kzStvJeadWOMpquqIRQhbEZg245UuVWFRTL7luqCEkD/Y7HsJ4gwlz15MSFs0LCQBUBiaPg0mJ26EhuJDNfk0ZonoPxuBhpsLqj/GGmhUMYSg3WIWYojGFIRj1w0zngxLNrop4fiHwiaI6ly8emzhcgHFJJDDhUJuxZqMM2HPs0/jA6AijDVB6iOpHDciYwHjFpGtXn5geaTh/ogzu/VD3Y1tq113TlhVfV2/2B+qubNupi0K5MLAtLOOScQcAZO2r2vKJ27VDl7mvafPlH+ujokVZnH4T0YvqXiKBTTR6b2BPr+5x97ZDliWF1uNQdNrGl9vZ84t5dQxjpM15LCYbzIlR7ocXkxDVQjJvLp8QHxsLLHCb4axz4Bv8ypM5Im0bp0TBWuLsJgXlvrmL9qnorV9xAi51YYCvAjsTGwmUJPaorzQ7vi1IJlDugMqIFX1u82OThgfA1WRZtZ3ki3reDfa1enTouBRcx0oCJcSIU9CQq8pFGWzd0eHBL/Zo8oG78wTgCxgnQzKGpVI0fJjc4MUkdAjJxSkB68aSSQk9bmh+P1NB/mKTEPqogSZDnxnjQkopyi7MDu987bw9TcFGmbKEesTG08HB5AydqWQw0l2eA+VCDjStuq9pUPVUpYhizKdnk8TQC9QAtRnKMynPNTh6qR1pCCeE8Z5QdG+i2G9eFFy02FmOkCh0IH9AK9cuyjHuLRxxTENEgSibOMM5eT336NOvMfZmr8bHm79/R7Y/+WtnVH+r6zR+qf+331Fu7qqy/oQWPoJWKbVaU3EAlw51d2E5D187B1d9Ts31f7b0PLKkyXgv3S+KSDnQTimnE8PicEAk70zf7Ckny8TGwv1m42IPU0IGRgSfYI+tmHjSiwQvKvNNeffwm/nZOYDiJvCLEy9mZ4yAw+HUh7N21S13tGwdMN6KL78GBIQGduG1vl/leqyYvtbpzUzS3t3vUCZvUnk0LbskkOhqeLQq1qy8oG6zYpWkEBc+SSA9QQXRUqu5V9Lc1r+nbHS49RHdoV4STg2CNin5pNy9Jlvc+/JVWST60gff8PgwoODaOmUJaVKJOC6UzbPDk1NSyI6iLzHkhlsO1bU0zUgYajVy7ZRBSRBpk2FIghlNNjx9oOJ+buFrSs8cwkgzLdqaaIlT1zJWVQFaIOPN2salyqOH6VasS4GPWX3NJzi5ju4NNxEqxWReW7qrZiUrUija2HlPpUMzG7QRPG3G5zOO2XLk8M46F3RBbFyeZSQBsqLVVTCtRHi9jMJOhuRzBeqhn7UzNvNHJrb/RBw/f085r97X71p+pt3nTdXOQaJFgSI3AwI10BIwiNCBXuX5dK9e+Kz34N0tvEnstfmeEzOzi7Lpd8ry+P2WsxnGOm4o4wdZ7ua5UzU4lh1l89nwKC+/GsNi0uP/UTMJuQIBd56pKFO0CPllp+Ozbf/W/QgAhJgkMCf3TAQLnjOFIGcRgjbR+5aZ6g83odMjZKZYF3yWcaoEYPNzWznf+TLuv/8hFp4MCwZOTmtHBi6cu14V75bbxlGs7rshPuUtzZtO98Jaw0Wk+X+6+oGb1qjT7pdUg0/ckhwXUcDUH8jiFY3Gs+nhf+dWpm5ohbfF7yFNp7fJCKxu7emjJqXUEL+HxeGTCRRLNwvjWOOfovgbOK4MKhueE8He3ZWkWmh7tq1/PE4dKxlYIDOkkxYoTRfEWAbuCaFjKJBAbAmFYqpytCmwks4mllybV1HHBbaNgrFzjNhNxbwweYXnpELUjNLaGBOIikcVEvMZBdJK9xnsixeZgO3G9Exahk5NCuUJNW+1NNJ/c1vE7/069eqLtH/536m++ouk8U0mPLGcZQ9vCkwYUIP5Ihxs7L9lbhv0H4uJk2o5XMaBunzh+KEa4xIiY9vLrc/NhKThcgL3rFAM/i9Oqq4kq8uOekSbAnJIEg85MGDdYSFkwShMSAh5ZkDZIBWNYSjSdhPB8AKZbrScXMbgugGlon5lR/e2K1QakBpLWcgKuMBFWuF9JWAFp+1ajsnYn6SzYLKJfs41/sEg7k3p2M7vCn9EugOQSRqgBSB/ss+SJjToaJDbmylZ2lK/dkB7F2LuRm4An+ogxc0GbD5qlOev5ofrVQlkfYhhc2UbsTqoqShUkb+YrDqobudGanegmwuz3UJWIrsQGc5hsGnEvkCmKIdLFY6bp2SOt19QEjq0U14PfwKnvxEZaqboVbR8D8yAhval5IDS5WhCYaqw5RaYoWgaMXeMV75IVTqD02FYKcoZJulvbJ9+5JCQK9qlJC+K71yYRFyhIUpFiXUPq4UHgEXcs8QBSFnP2QMcf/Ez1yp6ufo9C6nuaGx6sKfFMQAFjNY3MKLEz0GBtSxMKXztY1eb2ZWRvR1s+aV/rpnmOwN2Rb+r9otDw5BgsqSdmZiU0BeIS/GiN58kLnviehagPsfXuc9i79V2i97qTl1SNRQ2A89PFw92pX/t7gg7LZWnswgA8PgdrsRcH2rj6qpHCRaspfwFpcaoSHIggLLYz+SmZK8/NLcyXqhWJfWQTU+OV9EbOdk0Si89sLgyEgfggfbi1IV1JyiCnx/Ep0LCB2naotZ2bLiUAOnYv1gNGYdwg0A1JoKndsvf04L4aLyyxPSHddOqURXM46+qWqow8kVJ912U5r/xumwYPopbMYqzF5DA4NJBzKghwilVHlZidHNgeZWRHJSOeCHiCZ67iv6JidUNVr6/hxlWnJVD5jo3j/YTMlwx57eJMJ49uWzqK+jDxHOrhcq/l2rkoGGUwUB2xn2SaLxrVTZQfxbDNvZuqVl3NNW9I6GRbUp+EOwVRYR7Ale1BWhSEh++QIgcVuH4w9yMkTPUAACAASURBVIQE5CL+i5apx+/9jZqjD5VVM4cvoAIjjXl/2QCcirVj+yoH7kZR1cyTLgYd0Y+5cecOXQBL/D/PnH+SqHZ74Ot8T+iTHnmO290YLHHb7hJc0tDiNNp72gHQnfn093MbjP199svFBrQo3/GRp1/8XB0FUk+heCYWVaNF2dfe9ouuV2KVAQm7i7DFcwJGsyHZrAhuySgKiYhXvIMIod2bQjk6l/tUgA53MfSA+5hqBJu0ugDhSLYg0/L+muv0Qvjs1k2IDZ9kUTlGKLqRAg67mGo+PnItFdfgYb3w5hifGAsiVRndKQcbLmtIp0piVEBSZmc7BW71hp5LJ8rrcRj2LcMxy6RCMNWmUjMfq51PldlQTdJjwIf7gSyEcuajHbXjqQpnbNN2FwiF3GGHPxNwFTva7j6S5mOnKvgeVj+CIC1hbDDHsaYtVfWpmRw9sRdWdUjAjEIBEBO8VFRd61UnmuOhglxACEECCGnoniZ6ncrCIRvHvJYGjO1kfZdHfaCze7/V+vabzvRmnN5asaoeJgTKzAmDvaU2kikj5onpdjE6S3j6qiTG+jOTjP0W837O/saEHxsUDAhUiHgftl4SAR8765NfUKDPKVE4/peW+seA0JG6DokD3z55x6/7COPpxrIETBzovuK2bfpbGuy+JFFcysgZ+ScWqZEtUq6Or7SRlc6CuFdtQ7e3xaoW17LZEhzgrrGhORbcDk4KmoEAbCOkIgZpHpoRsC4VGEm3rmnSX1c9o/k8XqyKZouRWJp0f4gNtCfDck//aWr/NrVqJ9whxXA3pB6CxYhPWVV/7apoJx91WeAhne2B7U8Z0JnmJw9Fpna3rCybN1ECZo/Ga4upSzlQIwZ1r0ORgGvmY/n6NbWnR6F60vGRsTJXxp+IpiWm2Yka6hpDfNirNrwyLgyvQD2kKJ4RRDXXvNjQ9ut/obWbf6Teyo7d/kH3UefTRkP9mh6q+vjvdOsX/17V4tApBJYEQwH0vUOl5zmVPfuxLiHRdMqNN9L8UMcQmO/Ml0WuA7G6eCVyvRJI6RhBi1znMBGMSR2iaFgXK/8kMjBHJLDnibgwmYsvRn7OVvkFgt5jYRl2oFba2Reve/pn5yKZonMhHzz3JOp5YxKmfb5Fl0/w/Z4HQHngS0RhIzkYMEHCCFr0bfXvjXZsYGXoIconaNHagkVHCLDtEA4ZRMRz92nBvkEJ7w8jBXuLSNAIrXZFQIhL5zmC+yXE4Z2xBCGDyBTK+6sq16+pPp24aHWMq3akLIPxtckjZp6JWjM+cqBaTo4QYzEjie1MWAyJloPNq3YVE6sibE+WiFhano/IM7cHiT5Ifqbncr7KVqUgDvRLGh9qUIdhGcnEoAgq4uC+bOOGqgeN27JQIyakuxT3kgyfEcFL1vZYgyLgjFcG2IHiLhXikSR2hyoC0malFsWmsk0C466qIuUipTvYIoJ6Qxb38FDZoztWZak8B6LjsfMLqdIwCtkzbfDY5sALQm2KF5JX1k5VoTpWpAFgn0k1fbqtDgAMdPKWoitoyGvsmXSSmV76zPndtWmOz9ebV9RDwtYafBM64InG2C8QxAtnBxyeMZmlimSRx+wzTxXj0bcJpOkeFncKThCfWZLHCc4znvYV/BzaMTfuVpENdS6+sc0w2q7skD29lbwc8bv9AQAS6aXhTo0KCi91leZdNyTu7QRH0+DYuCGVBOVF8sBb5ZwlOBTJj/BqV3pLKorpE+wdewPhYbX7Qo92bqq+f09VPRN9ApF9WE9sKhRGYlpBmBr1FhOND+9qeHWs3spaSBxw8iQpUDwgy4cqN66ZgCmnGFNiFq5KF9IFBtY5NWZqCAz5OPS4gQCGWIA3xKYTzTU52dd6jT0iJK8lM0IVQLpbu6Z2NHFBLVQmDOeQO5f3SK5dJCEXcKrHUaKBqF5zRJwLiWB7/YL4sKewwSAqMHfuy/pAYFx6w2N2GrRtH5mzwYogKkmNYjdAwLiefCF74kxigQeklhdkexbrD/EnWBEG0UzVEjC5iorF+GArMTYkMMs9NvpDnHyjhAcJKbm7iUz329Pfo5jXOco+/ayv+KjHeR7WESQ+EecLjw6mGmyPXz3qC4TnwqmPfbQEs8yzwU6Azu5EtSXkArjdZaZsPOHi792P38R7IGGH9kEAYzOwh9nItLJYITyc7gFJKjNRMdKHB4ItRNh+fXJb1GeNKFD0b4ykzPV8I8TMIb48uwxVCs8IyOC2FrnawZrduG5fDAFgk9aB7IFLufKyr4wcmf6v3FxsWBJjgofFATcpnN4kwpHGOJJxHbuDgUVtkCIa3QN57E30Ze6v096VeJsVkWjJi+UKFaixioSBl66JliIYNtez/kk1MyFpMPQS4DdJdpUEA863+thzcNpoc6aMPkgAPJ0ZLttI9sMgSOpBhmHQhdWT+oiQlKSB0Dvi+kiSgLhUms+nIeEgFeK5MvBjizOnRZtrQHR0fxiBcKkbJ9EJ3DOsT4aOJ2k5BqnEM0ais5Xf4wZ+GNPaaqHFfKyhqyRFwgfzsv0hMS+7pm0sJ6YngvkgPCZkHd1BOnKqg5dg+SeRq+X3b/xDIjKBG4yGESYi4yVP676kpsCCc579ctHvgLxXJKlJ1NJgJblJcDVLxelhQZy90s9+wld8hnkR4/J4P/kwNmF/tKGVDdq3rtk2EmelGiGOA8EvJGmyr0e/+neaH7yjppp49o5MvQBwg9XPAy4GiCUVMnBtRIVMFesa7H1P17/7U5WrV20ARnIJ+0ME32EzwfOQrV9Rf21X9fgjW+ZNMIwdjI+SlEl0t3elNsJjQ0FMj6cjAkR9E9QfXMaE7Bflitp8tCQc4AUwamjsPp+qnp2oEJ4A1jFyf3hfRpZyL2Jh6AtNNT0ievGwIe3ZzoKc0rO7ffs6PXRIjaCJ10ALEC9p6chyEJjp6YHtE93G9f70oJAjg+MjQeKNg4pkbs3aqibewgFdBC8yBozbKGvRqcDPyXvqDfrK+gPVFUwhGCXzYU0CFZhbSC5dBj5LjmRkGNB8zUITyIPUWSz3lAuuWRIMTxCEGOgjrTWzsT8jl5rAdATI0hvqabK/8zCD2iJRYtDn+BV78pv4643x2ION2cErw2ZkLTJiwMxEIMQYw5Ij5LGLn/iyVJFirS8+LJbFTOmJi56nr0HsGNH52DlWx/B9dGV928mNAIQi0uGGjkA1I5W5cW2icnr/V1o8+IXLOVLkOYgG9oBUnzZxpwgMC6OdA7lcEgKGVWjSrLttRnvze9LaleSVS/sY9YONb69Drl5/pP5oXTOMqIsI1oL7W65CRXBnJeq/zP1/Oj51Qqo7L8J8UUnc7paKe5ydqU8XgXKQgudANp/oZQv37iLZGCo1TWwB6LMRBzD6xb1aF5+Co4M8CXeMsFY9uKhc0foWeVDAqokAXQdnhspIVf6aJMfxsaJMOEgdHB/pwhLGRV7FPZMhnXYzi1kQN9bJS8rvWU9VTR4YF/K/cI0fYlUYfkiSUdPHbvIOWVKEb0dUmSZlPTxvYI56RZpD0VcxTMZbc/K0mSCA8XgfdVa7YcMw0iSWG/LipBJIn/M3hv5pry7K2lIuzMNE5tPOPj9eWFh0IA36be4U/Hww0iKbqcnmrlDPZkeaAbju5gZVRtxncT9rVOfP+co+oR/XVa18MFBFfRU4fdZTX7kmVa5xsaXtGz92DZgKdScP8RpuSABYXZca9Cq19ZGqw3dVnN3RqJ0GF2TzEIgVu9ZzCB4Id08wwQsCHFIMRlNPVNCw/fDXasd/KDUvS/mqNy8SBmHnbGIbHuG0/VfUv/pjnd35jcp6LleZy2iF2qieE9YOAuSODFavVlndUXP8gbLtV9Xrrbu2rMXwC+7UKKcQ8SVmEG0YJPEGqTnT7OAjl8l0FrIROqQRCAgSTHhVooxFuThQOz5QO6+U9XPNQfS8UO54FKkqrqi3VqnKgwBBUEhZIPiEhMpeS5eCuyoWZypduItnFQ5wdPO6FM/juBp3jmZLsY5IiLkymsLNzqS1KAIV2ecQYOKKaGJ/GgLIyqtqt3+gdvJIvcVceRX2Ltu0MqQfTLHIqbFuNK6HBLQ9pEGkxcLJoTWK0eCKy4wuLGZRCD06PJKHRcuOimjknFSDQ7WndzQiT4eUD9Yz1TA2FJflOtL2R/RbfmRThXbQHftG3tsyUBh40/uM/dAV/AqZzF7SdjZTnvddYiQbrjhyW9kobGSmr0n9f2ISmWMF4JSJs7NZy3Lk6FHIdNLE0mWpjquX5ok7fVNfIXadMa8TjeGgzAkq21/RYHVD5WDkUbtgkjk9RAJmiJET1jbX8QHNuMIdCd1EAgybzmdMLgVQwdFBZnTTyEeZqzo9cIkCeyMS2nKn4Jh8aixlbGztOjKUTF5+MzFHxCZ61AbKKGYElyQAbjGObo++nuebjweR6EbqrZxymhzzYSaCpkNFudOQfIjb9TmmoB5PzBdvAsgC4STR8igC7tw6BZi4MlOCDYjaIS5P7ZCI3B3aGkw1oYi4VRrmZ8UlPH1J1QDvOj7VxSYxDyS5anrsmB2RssCaUhSMMWN7siSUghuLga68+Lqz1Rc4K3K6QyL5BRJ3FRut3zFdd8qE6GQqytJ8B9NXna1o98U3XCDMbmc6OBLZjvcKmw8R2lwLM5icGMFsiO4An96D2HSweOLH5+orhuzHsdwENxFDhxtA6qkplLQ7kj4LOi3YPvnZk2EVQrxjM4Bsvb76wy0VOU230obx6sN54W0R3s1t2dLf9AupK8siCCzGFLkwllMoA7m66/8qKFAdBAN3Yo4RFImNedc0HJvqZP9WNN9ivoFpnp5nmQB+cb5WYGCIbPwECqQ6F7BajHXy8I65LwhpA6E5JnAGlrGwFG7KN7bd2tXpDEgiSBIV0I3Uhe6ZLBW1TsbH99XUZ8qzhdcjxHMkBpA9OLOngNERZOyykBljM9PZyUHEmbWuAJTMsiBb2mgQF9QOqvlz/uE9R3gj7VKnzs3JaMSXUUMFmY7aKdiCsDPxjueGe9UuED1+9LF6zTi5hLGeNI7jwf5MSAFPBiG5P3P0luROzJe6PI+wT0X8j1OWUooHOU41RnFKY5SbWrvyqsrNF1QhZbSNZkTjluyN8JJBNFkbYIJ9yQmYRF8TCoxxW6Wy9Ze1ev17yoZrWrAvLLFhSIe7ty6/aaFrdqzZww8jmM/2hVili8QmmEW3es/nu+1RJjBQXbY9TIf/wWTAcqQxKjJiGuSsvD/QYGXbrV+eNSunCgS1RXeF2PRdOCinq59dm7Hhlyym8ycYodKGfNZTvobfyQfy9G0gTY3CeqXW9l5Vb2U3WedQPZJXJUkxRk441OTQJRFsQGVT4bqtyCy+8DIVCU5m2nvhJz6aMEB48ZQ0dBq4rZbIVQzJ3Cj9Z5H4D/TcW7oYaLB+xUWcrI5yI6SvZFg0pzbCRWzK+IjaMITSIdbGCCEoRlXfnGvjReBXpAgEURM5TaePXDIh4jZiNKH68ZkXrApiQSnPhaYn+5H0yYjxmLDh7I5PZ3te7J2QzpickcudMc80P7onAvc4xtW8AlbxGWicP/98DJaU6hMd3H0nyifQCYAUFl9G5v/CmdHsU/eZXruqq2/8qdrVlzRpIgjO8TDcMhFubFdZ3igvc3eGJMmTayftUPXqDe2+8VNlLqQ0UGZ1h0spcBHr7oeTGT7Z1+Teb5blIgOHuvkEXL4Nf2F8XksLESFJBnPiM+EKIT1jb4LAWh4sBhpt7JynMn7GRF2PzeoE/IZVz/tuEAaBadroZNdtYmPFEobsom4zfMYTvuKf2LK4M9EfjUhIC0m7pbgTXK03iu6NIZHBrFD1IgM2OFel+vC2isVxRN06cjHE+fPhLyd+4RDSAZw3c0wIP8DB8KbgoVlMHroNq/DWeCFBPDgBo8YK31eNmFkMtXb1ZfcwQk2CdaMedTExSEqoe5ZNqkrV2ZlEcXG4rg2iIFAisIHlIdlY2gzB1CSNTpW0S6mi0ZprD6OmJO/K+cTiE7EoOaqAPUnnxYUgrtR8ocZwbM4LthskF88V/bqSqCszPbJhG9XPkg5zZtwQbKbrx3mWJrrmEVaRWuX1RLPju6qOHtkLBcHgMqt2TaUCVdIX5FKxruErP9XOG/9M+eZrGi8yTReV4UkZCWDYiETehaqm0WReaVY1OmtyLbbe1Nobf6nNN36iur/joD2ILP2v3cfcQZPkA1NLZ6Lm8CO1h+945E8Sl06K6d6fhOvz9f2TOMxOt4psVhN6kRkCdaVZw2KoYrQp+pA/6+U4GAhIMGeyjkv1RuturzlFhKa1xdPuAnHx2J6CeE87/6s6FtAwlzGjAucgMBjxVjbUX91VL19zPAgp9aChbSSeMJIG9oRaJw8o8H2gAiMwErNdrhgrLcDHVE26ugXx02zHMev2GYnokjgJm12caHxyT7TTcDN42yrCGNiFixOQRz7LaPtF1cW62skDDVIrDdh8SEo2p0fsCXNY0LzsSNnmVCroBRTSC+/O0klEJ3pdcQxCAFCiFS4pApA4CEEY8FFyED+YU6wr5/O1R4/y+VjVbCw6BzVIgKkNCB6s3IQtFjekliSjsKeqhRqkJeJoTIxCemQoDoaMgftijy8+xc0M68Ztc0iRePjRr3Rt+yX1ipVIGk0FoCIYMXbooi3UH+5o862/0GBloP33f6ZqfF/jybGa2dzBgrif2QfEN2WDodrhtoqVK9p57adaf+WH0mDHibEY4BxtjEHe0iMdDCoNilzN/EjHt36l/vxhSGppxB1BMRzSsef/7Rx/YRZWbTlkNTe0ee8FpE9CFIpS5dquc95oYJgQ41OnSRurQE4D3fKAiqLUcOe6Tu+tqK2PYzOkcVxUihhQ7NxPvf9X/kNnJgLFjBBEwBL12Su0sv2i8tGWQ86b1K8ZiMQGANGJ3KSDwFgT7ATzkyjfAHGAZPMydD9lGmn+vHVE2Fb4FHhFsN7J/sfaePEkqsu5OgbEIgLNUGpNOnpDN4Er10gb+MB2EjhI9/jzVaxV5JkW9Zlmx/fVv/KyVOzFeWmlvSY+Ajwo2Wk5yDSwqUgR2Lc9w6KxzzuXH+I5QXisnjBO6CRZy2fHKuepVISRH2kMshRwAmnNqFCFUv8iSmRSgzdvpjFGw5V5Oc7ZRI514UXSIi/q+HrmSIakcEAIF2c6vv0LXXn5TeVX31KtgSrbCDIXw4o9iHcLj2KufHVPozf+XC+98H0d3nvXtrXJ0V2rlQ4BsAG9r8FoVcOXfqz1nSsqN6+pV65r4Q2FbacO7wnGcegibVLIM5qdaHb7HR3feVuDhmTRZAz36M//cLwjOOdHn79P3n8wkm5oncGXA+xB8MA6aevIcvp6r+/dlCj4boZppam7+hPv7i3B9a7vmof3BXFysHND2eoVtccUvQ5EYEM5hNucD6RaDusTN/7aDngIGPFQe9hkDu1y4Sea2+ejVW9nzyD1dGJsEYeCAEwnw2PVZ48c2QoNsPHa7u8q5Q5Z7ElWk25mjxPXRCoMkUSanIU8w0A6P7EB08SNy+0NSmNwjEpPKggGfEFn+0OnBDAtu7XN+dFJ0vwILG7JEXqodnEqupgYx6FyF15IDH7BeeBGDoVZaH5GTtDEBlSfceE8bzM2GAFk2Dsgf04jWCRP0kRq8CaEWsh+AOa8HAHu+Fj2SKhlcPwJSZXNIgiR1wq3Px+SCpoIaWzxuFdw0hg+diK6W86O39ej936mXfpKjfB0rrlcBpYs7ATE90CrmjIazGWDXfX6m9pevartV8ZRbhSVzc/DmYH3sJCGO8qKUpSNsKwKRTXCgVCpWHtNDBR7Ya5q/109evdnasf7UbDdc+pU42Be30oJBtAne0zMPyYGLrCeyLp0wSxW9jTYftk5fZCWjrHGan3yb4HdArkFo6YN6bjj2kLl1deklSuqjt7T0FXbOR7czRuKjbuMkvzkjb+uI2Q7UywKYgd3ctWFrKdFtqqV3ZfUGyBSJ7nL3oRA8DD2IsafaXxw17YJU9vOWgDVTVz18bkgGaRkvsS9E8uNbyb47PSo6bI4ua/27EjajnKKZgiWXMJWZDcgHL9c0erOC5p9tKZmdqC+XRXhVQFzsI+BSBWbvmx1/Oi2tqsTt1VFlPcMcbs4HgMadk50o6A5Vp9GZwf3RIUbSzC2H3ElRKibJfOOzyFrYdcloveBNqqxNFhTTpIfW4HTkpoVFhRsR4UaXLn+ie4E+yp6uHYTQTZ80t5hjOaC3OiibEwYDeeHfWWYt8rm9zX5+Gc629jV2ms/tagurQTzQyV1jyX2KPQRyQf1rXQAIEmfvQajJM/oUAIiE/Yn5KnK2fSobnwLYEQ/rYhgLvDYHd3W0bt/pfn9XypvZ8vt0UkqHWHpvncQfa7flwQ+GBUCHGtlvhMLnOCGfbZUufGCss0bUjbAaHsOzk+ZJFlkNrzBgYP94vYrlPU3tXrlVZ09+qXqBYFnUOcsDGrLDNNwSX7Kvb+Wwyxm53pEf4TrLJpM/V0ksL3IJjZNgRaDMuFhglvZvbo40dmjW27hQXU7G1mdT9RYgkiEfTkXf19+CwTzdkwLFZ+h+BiAaxXVRPXxA+XzudpBipHhJMeShJRZwRmKFdeHeeSi0z3bHpw2QJdG5yMGMtiZWy/UjA8lyjdYHQNXIrGPNYR4IGkyJBdMMrGjbOXUkkhvMVbPrUiSFHEB7QK32FlBZRr6kZF9fXLfbUxMw9Jcbb6y3xiCEIgLkYcQZlqowvYxP1NW4dKGWIK63DeIGiQWQsDrPCognutHmPn1LAkSDHl29LH2f/N/qxisanSTdriVi2vBHMEIymRQlRDCwGvBAM0EczMfCAB354lhEsdlzdhSaoB/wYUd0iM2KyTcXm+m5vCWHrz9Vzp5/2+Uzx6qLBO5iuH7ed/uP6xfcA2YTUAq9jHGcYIis+G61nZvWpXEcxf1kB9nDE/CAAiHumB047YsOsljm9qkO97KtmYY9UBIDIz2XLBMnBkL+eRNv87vRGgCGsRuOKtJajHU+pXX1RvthScMnmTpJTYikhcBtSYm1ZHGBx/ZM9CNO5AV3fri/M4ByeaHIXf/wWRsL7Ys2BiWJPFeo7wZ6+zRHfd/tlSB8dARfKU3NhsdjwwctDfaVL66rba/4vhgPB08q9vDEFMbKataDRGu0yNXdeM4C940yCj8J24jpBr6FIExObVmZqeispxjYEE2MCkhVVrhRISDMTE/q5JZrdnkoVRPLNXVJJCqcN4TBgoau9E2BXiRn2OJsZo5wI72NxBTx7gwsmSrcfyLpUSTee86j8ET7shAcEiC5bj/SpmpPXhXd3/+b3T6zv+l3uRjZUQ926tUqMgGNsjS46iuIGi5CQ4IgiXKSaQ13jc8YpSEjbKmbk9SkUXPru68W+xuIu9OVD/4le7/4n/XwTv/h4rqkYYD5n8eItDtm2/ne7e7GH2auyXL2BFBYmAXpYq1a1q9elO9AqdJ2PieNWd2hksyevPzLHM9cm9GKrdvaLj7mo5P7iprJ24p6lNsQwDIySD3rKd8hb8buTA2JruQjblZX2ube+qVQx+PstedhAaVzhwPYy42vqtm/MAaOHOLSnaWc+xuBsni1Xl0PikVmuea6iTE8AHuQa3fqeNhNmdHKtenLv2I3cJeJnubonKdc4uKXBtbV3V4sKZqMjHyI51FjlFn5Qnu2jYTNWcPVbZTh6cTJAZih6TJOob9wMJCO5fPR+pZTI3MJBMa8TpiuSRjMVvP2/MgJId5nKqtjl0Qvm/DLFIBpH3mtIDOSGuVm+ctqDB3X70mOl1aeuCmEBjDFMZGO5CQfHhqgl6Cd3qzDQopqlEvrzXs1Rrvv637v2y0d3xX+esLrWzsKSu2HLvjUhnObMds1XEBmEWipU2o0qgCqLpNM1dJWQ7MANS9QeqEqFczN3qfPvi1Hrz3nzS9/0sN21MKo9reh9qJIfi5sEM+DrEv/C08eucMFK5mW7fvRNvBTPVgU1tX33RyLuEVMGzCWwzXz3hi4bW2Ky6MgUZYdNK2Vb+/oe1Xfl+n+x9rfvyuyiwFjLFWKd7Eu+IzHvBV/4TBkSDShvBw9y+i4NBAJe1B6rGaM6riU9KwAyAbHM4YSW713d+oXByHuxUi4d3PZobxnqsQFlfSZCGryDYJ/wzswA7uC0TPiRm1ZarJA7Wnt9SMVk3AQr+Nymg0nfcLlaY60XAlek+bqBSMm81euyyDRdi2UkkWtmZqDj5UM76tXoGlN9XetXEkquMxEufGQGWqMy1O7jhgzdJbjy6ISDshATJmeJav8YBidhYyHM9yrObgtnp9iqZTXY5UDAPJ4IR2dAlwLS1BTold+dj1VjC8cx/b8Lg3a5HoytIY7acn6HsZ+MOI6HACHDC6El8krebS/OR9PfrVR9LhHe298JZG136gbPWq3ad5O3AmOhnulaOok0eNesoQFlQqJHZs6z0ieh1G56xtJDwq79UP3tPJ3d/o8M4v1S4O1K/JPuf5cGCmACFiEozw/w+vbh6x7t2MkC9ndaF851VtvPgD9QYbltZtbLggXXfnP/leQEisG9vCGzdnM1h37w1VXHlLo71f6/TklupqoTJF9nlDPot8Pfm0r+K7N25CC1qfZgi2lSb3fqX26FHUQ/FGCHXABrxWquByHP/ov6pXHduwhdJHdTU2NnYE9lKHdDF0ntNx3FiQblmCkzVGBJ9rULYRxzF9pIP3/07Fo3tWebgHPZBBZ7YsxBqbblmPVZ987LKYIL/tNDwPIoRdxeoHT4SSTnT24AM1v/1/lENw2jKEFR7eA2HwmIDUEa+LBDp+8K5D/3NiORoaykEVglvRWIzXksZ2+ywZgovFWIcf/VzF4ak02LBODhcHnuZmCS7YsSjv2c4eafrgbdfLNRPoIqf9FB4L0hvE8dyEqh3nDE9TCsBmShlSJ1OLVIVhO/ZzT+/+ne4+ek/FOEI+/wAAGNJJREFUR29r4/p3tb77khMVs3JV2XAYjANvEeW8kJbSurg7AMWlajxMc3c9wGZ08vC2Th+8p/bhh9L0gcps5jQJMk2wL1F7w6p4Rv8r7DcdoNLEvnVvjD+YC0MH7rEG7IeesA+2+ZpW9r6rfPcNF3Z3jSO0F2s/nz3h3sls0tIhmUpePKrBLZlgltMyoxlr/P7f6OC//K+qH/5GRWEzY/AWdLUOwz77OV/Zr9AIpC4raxTKzqG4Ul2uar6QCtpqLMcY1eqZH8QF3j1qkV6YODp4eDf4aiXJegJkIALVsBs4JC1l15oQIzE4d4cpRmQrnxiP7UI0L503aobb0UMHl61tG2alPg+7BAl0qBeQR8Lzsx7n0fCr8EJiRYDzg9J4lFBJWOCT3orjRcqkalB8HJhkBMDhXWJOjBpPVTXVsLdQ4bpKER9DzhEAQpZh1E4SZ/5YdzliGESQFZUB6x519wotXKc3M8KzPXvUg0lCoi1B5CktxiryVGvHm4r6Nr6tE+wYcsQ1BtyCBYRtz0nvGGOpqogEZDtTeNK4g4WgLNeM44YaBLavjETd1V0N1q+7V3d/dehAxl5OzyYITe2WKTUG7/lC1fSR5tNTzU7uuTwotWvKXqM+tpp6pgJgqdbC6R50iKSsRuVyEf3hwE6FmNG382/sKFYQmxIcKRniyRB354xSxe4PtPsH/7OGL/7YtsIqkC6YcCIWYWJB4u9pOp3q/v37KssSiQ/eu0SpWPglRkLxhxpef03bt2/o4PDd4KomQKmwM7rEN/iiZohD68mupRoZqh0ehMWRSghnRXQi0kro/pAVc21IJDju/8Rz1FJhATiymM/9tk+dna81SvJ4Fqbjxny26BNQ7UnDfq4FIjaPdkwIEiIEIpV0RK2qI54D4mG7C/2IytLxSXBOjKecBseE8BCjQmb4KDtRr8IsD/ehDUcUxM5dPgHE7VlSybAy+bpYQgfkMfkl8WWaENCQ4LxvIJzOWAbH6WwwVplF0NyA7oxE4WPR8X6hMRn2mvAs9upaZU6LFx7AOZBGPjLnSJK0pd3KpgGTAMj1AXK2GR4hsw8LH7lVHgd4oRY3qHkQctzupH5ANI5Vzw91dnhbx/TwBnFIhtWaGUrTm5vAerBWPWfqNXMVLRXsMCa3yrHTMNSk1jEcMojNyNI6MbcuU/upG+RbcxAos7HAE4h17AIvQQ/7YF/bey9osPuypUC7/5H+U6rNsxw9vcnUqaQhUidhaXkRiNk2GuYLnd36uT7+2/9N2f7PtJGNHTbNwMAtNgEbic1MgATh247ydDmEGHIYAVm24FOI5LGdve2+NctxOdBvFwQgQp/1MkH8rBOe89/M65GxUvAm+Bf8Dqmz+9W6JaWNIvY/zPyuNVz0KGSGwT3y6WzsdqxlpnG2qeKFP9UrP/nX0vbrmqqv0vZOCHp4DdvU3fHTJJinYre5m6laxC4wgJXdG7r2ynfUG2xrViMRRFUryj7aRAb1c7Qp9otcZV5aXAq2FNGAQVxYMUhLqBvP+fpdDu9bDgHH5GAr+pT/3/LpefjgUsQRhfRs6TP9EuJgndJ9EAgQy4LwQIiQOhEGMIjbnuQQjp4Wvb7ownH15g/UW92ylmBTgiW7iOcihOFZLxMYHoea1NG7UKa5uEuxp7TjtjZu/r7WX/59TfNN1+BAd7ddwuoBD0WMzNVCgDAGOGYmfOuQkxwbQlK/0P2oYnb5uoTAJQT+4RCAuDz5wv7XGWoxCWDXI/DSaT4+OREZ7C14WPHAgu0Lsv7p7VVolm9p6+ZPNHzx96TBlgUCXPh2PFDL6IK98cnnX/yOwHPh+zmRsQ7GL4hcWMybTNnaDe2+/icq976nqQZa9Arr/Oj96KdQUTxSHi6BbxnWkE5I4o5JbjGR4azutwtDuPx4CYFLCHwBCARehaQSXrfuYrALKcX/fRCcC2IClpr4pOBUp9vkFOfKNe+NNLzxA229+SfKVnbduYHgSl6gLv8pwJXEpu5xT30vkCx8YUJ2DGZ2KxJxymCo5NWQNk/pgoHyvbe0/caJHkweanr6sVYzUv/Je6HodGUCY6Mk4pcnE8FfjM8mGrsawsPy1BFdHryEwCUEPjcEbNw2nuEtDALSqUuhlQRhiLCT89sSxsAvaBt4XnEiUFJkOm+Vb7+sq9/7p8q3XlPtPuoEshI2AQ5j44maR49Hg53f++Kn1CIcyhd2EStLJooxMFtKOIsCQ7g0SSF4+Qfaff2nmg9fUrVYWHqh0LTFNZS6JBWdu3eDcAYp6x7Pt4vSU3f88v0SApcQ+CIQQEL55CvUIKfIkCbjsIyOCIUcA247+pu/bU+ns0bN+iva++5fanDtTVXZqmpXtUxBDKYLGIwhXdQF+uRTnzxShGOKw6GuOGbCDr1ogYp1mOGQSEagEz7wcmVbW6//VKeLvopfv63FvFJeYPQtnRvDJXQCdJKUJ29aGRQTSSYBJCb45JAuv19C4BICnxsCNthG0CIYjKaQtBlTkU6agRp0vyOJdLYbHDp4isHrbPWatt7651p57U/Vy+gKGurQMiUImuWYr6iX7EoAQTY+dbiOLuh+TWNNRuawl5A3Q8i83Xmu8oXpt297zLXv/JlWb/xIzWBHsxqDbWQqcz/nBnU9Y7oHeMCM6NzWc+Gny4+XELiEwBeEAIGfIY/wFzvok+JM9/08ly4eEccp2VrlI82LbW299sfaevOP1RvuuaICwgUeYUwe3JtAVGslzvQI582zhptRd7QbYMg8yD08PGJcLNkQuccjUh0UqFiVDVVu3dDqD/8nDV74c6m/5TB74g44D9c1xmHfnYFhgOZZKasZna4rVvSsQV7+fgmBSwg8HQIXTRs+w6U6gtBgxIXRQxY6qQaigYbh32jN2+vrpBlp/Y1/qq3v/VNloz1XBegVGHyj4HcYicPu4gSuiKVMicFPH1d3lNjpZLyJUHS+QF5MsxhJ8pnHBaaRcYhG5KTY7X5fV7+/qvvtXJNbf6tSR2rJhaH2B94lUhBSYiFSEMSHCE7eHZzTjeTy/RIClxD4B0EA4oEqFHpBuI1shsDRYpsoJ4TtBLyjDAhGiyIvdZbt6vobP9HOW3+hbP3FaAHTI/I8sqWjugDDQlRwlqc1FSfJWvD47CEXTv7jUoiBSQsXWCCKK23rJUoXQsQfkuegjJQRJNN1Q9nuG7r64/9B98qhxu//n8qaU+c24c9y8zAXqiJBKPKduDHPcv/fFAn42cO8/PUSApcQeBoEkETASyQZXkFoQmoBj2mDi1bhRE3w3DWGclXZQIss19Zb/0o7r/5A+e7ratuRjcEYhLGvOJXF6axxb3fuoIMH1XVIKnYLm6eN6vwYvmd/g6TwouE6A063DPGGvyHWpCJFyVBL4z4yfooVFbuv6voP/5n280bH7/21iupEg4IK+HMTT0suiG8QrwSMc4J2PqDLT5cQuITA54cANpfAXCQMDLwky/IpMNp1dFyzuLI9pc0Hmiyk3soLuvLKd7T6/f/GBembZiQ6bZEcbtwn5805ZHxLeXvJEcSdkWBsc33GUIuubSQhxGSl0u83hoefPIgPLurO6kz6WhAfSggwhKgiP28GKrZe1e6P/7Xqwa5Of/sf1I5vq3StGSpXRokA0ylKxxoIRBc+Y4SXP19C4BICnwqBEAXs3jE+QgxSYG5QCvCaBFryBZtc46pQb/Omtt76S6299kO1K9ds0KUdTXSyIOzEFlgXL4sHhz028D4IV3iCg8h86uBQwwK/UxTcBbkFssitOmnjyZsE6cGmMlVV58ryvuZtT/2NV3T9h0MdFoWO3vtrzY8/cjtWZywZDhcHFUN+8t6X3y8hcAmBLwYBRAAXAAiBY3kxdXMXVaN5k6vK11XuvqErb/65Vl75I/WGG5q0pYosyt2TeV442x3zR/Iik43eSS6WDnD4hA3n88gGbtIBKSFjIUQeboyNBZuM7b9Rh4QUAN8RKSc15vNVpfU6RLGiKFzhv+zv2iI9WL+m/d/8B1WP3pZm0VDMUg/0rMYq7dyCJTAuP1xC4BICXwwCgepcg/nBhS1s4ggvUet2LpS/XQz2NLzxI+195y80pGNITvmKUiVGkraKgumuFx0lRbOG6pVxv1DCQhgIjYNk5xCQnjVaExgbdRKVckJUR72SgOG3jtrYF45NBummdfEjVxujOtuCYB4s1n31yi2NXvq+XlzNNf51T6d3ptLswK5szse/Ti0a12F51igvf7+EwCUEngoB8/xkcenMGJwYEkhoTYPBiq68+RMNXv8zZRuvqM03XCCscXXAqJNUlIGPNeXqWqnvflgEvITEQiEqPi1fOHyWhGF59BMfetPptBvjJ378PAeqLOpPUNQJqtkF+tD6JIKAGrWzQx198P/q8Ld/pfbRLzSaP1LZztXPiZdJrmsblqGe4c2Kavb0ccYCjl2IIjddtgUeKFzdACCMW56tDV5BFc8pe8yi85aFBsmxNO0LRac/z3wvz7mEwEUIwOUvvpbfHgvvsFCRTnsMTZWnkgcu3+pdGXfo4la63Y0s8dQXeONwktAI0D5qlZrnQ03yPRVXf6ydN36q9Re/71KneJsYMrUMGEn8feqdv9BBh5yk0JPHK9p9odt88mQICwPuDMIB10DyOEbPn1JXX/uu9jaHevTbFZ3e+nvNJvc1X0zUz2hcT+Y10TtNuL5sEgpXGXcOES3iZroFNbW28bkjFN3YooTEkoAsDy+Xvjvid6QwG7gv3y/h4JydL7gfHttN518u7qtg9ew/8OJxQtHRIceMcUbysHbv5PoRP/ZYyEl3EQSpc++CgTSnJxu6KVVuvqrrL/5YG6/9gbK1F9QbDjRz+RQkFa4LhSqkkPNxf9mfwmX0O9w1Z7KmXHET9/xJALCY1lL6cai2yZXtDLS3/qLWX/yx9t/5Tzp99JHy01+bsNCYy6U+cS852pBkqrDRuCQjlD6JZMEDguCEN4pLLhCQi5+7w0HzOrkl2ZNw6yU56/LdHO0SHl9sPyw30hM41LkyoqYxP3Yb8fET8QKZSIBG7NFunyKdU2O6eBxFLdlYYkmSUEYFSVdu0kJDNSsvaP2FH2rr1T/UYPdV9forUuFioMm2ynW2sjok5Vyif3xcX9a331lFItXAwT62Nku1JZGAEgSmyFstFpV6eRk+9nquvJ24rcXpvfc1ffff6uxoX/PpYVS8bxcqem3qXhAUPYAaIiCUvgMKdISCOfHqFjDeO4Jzkdacr14aHyLi4yd8WXC9vM8/Kgiwn9h33ftnTx4U7wiQ7Z+WQuIaaAe/28aJe5m6zQ0ND2GoFIjiMRyL2JRxlSsfjqIT697r2n71J8r33ox8ov6a5tQQzjFfJKeKu1kEBjkIlpY0X8LrK1ORXIPXOl1QVKrB2/8ERXb1+p6ycuA4mqohhQDbzIqK9ZvaWL+ptasvaHD/Ix3d+bXmj95TdXpHvfo02XOiFg12ls5dDpCh7NG4jFjoeC6chCAh22VY7ERvOrLTEZcwhAWB4bfONvMlwPjyFv8IIdBZBWPqsa/4/In4rguMjI8OaDOD5E+kznCdNSQaA7KByYyugwDYhNCjo0TPFegcE09O4N7vabj9gnZe/qFWrr6u3nAnMqFzOnpS66VTiXgObYgjcgazgztmng/5K1m931mCAWEZYwA0gGXAWOQD+Qt3wAPjKfcQ5ID2IFFRc5QdS/VczeSBpg/e09GtX2q6/4Ha8b568zMVGU+gxUYdWZ2pMn63KF2B8qS6XhBFz0kLkOMucSSVE0xqnNt78JlVv3y/hMMX3AdhjAUD2F3de4cPF3A2EZj0tvyh7voqkVbDHToPbmdboeZ1Q3koCuvTjXNF+WBVg7UdjVbXNfjuf6sBnS2Hu6p6Q7XFyP3Ym2UlA/y6yeMDzcqi5W3UiQkzw3Iwv8OHT5NgvgQC09m5Q3WhIh7IGgidq+6hQlGer1YPcYwWE3QUtCRDW5Fj0bzckgQtR+dnqo7u6/jebzW+947q49vS5KH7MNO2M8+QVLh/lJCgyVqX2sAkLxY1DngFSUv0JNqXXABkeL26jXH5/jiiXMLjmfBIfbEeY1AX9tezPkaVlkgldC1s5wQGvWp7pWZNpjofqelvqrdyVf2tG1rbeVmb115WtrGtun/NKlMv6zv8jcJRDgHhFhaCiNCF+EVwPy1jbON0GQai679aFelLIDBswsT8IStuw8kRJAaTFXuI3PScXj8peKcCEHkhAnroJ9w21JIB3PSlobfxsVupNvvva7z/kSYPP1YzPlSzONZ8eqKqoscyouQ4JXKFisSReHr49/3Ff5JEk0SdjuD0ntH/6Pz6y0+XEHgKBNizTjakRALS8fl7p5Y/5arloVoDq0jYZKi7RNwsTex65UgqVpSPdlwXd3XvFa1feUXZ5nX1BmvqZSM3kptmq2GzoU82qIidhoZ9YAetRfAWuXULicdgF838UmIz9V4sdS2H8w/+8JVJMJ3bDfQNIQ+wBtGJv92YUUEgnhEhHJyBizojbac+RclNSJO99BAbGnXNp6pPHmpycE/jo7uanTzUfHqmldktVdVM1WKmpp67v5OlKC3Uw+azHFUnwnqgtr7EyBLh6YZ5+X4JgS8IgU8LcwiLbLpZYmydxNI9YpGtqOhjpF0VEbdVuapidUcr2zfUX7+izd0X1RuuSXiDkPp7pWvnmhW7Ni59ytnDSCZgFTue/51mcYHMuYsA303OLpiau9F88XeM0RCX7sVn4mD29/dTZ8ful3/gO1MJFE0NzsM8ZYkxfugmA3VlamnijjvpbOndw+M70kVlsJVqC/oLZ8rLRvloTxt7N7VezUSTci1mqh++o2o21uTsRDMkm9mZewnTArTXzKLxCwB1QFOWbEVJbSLuAZULW3GqqXH5HvaDSzh8PjhECcnYv+dodo7UeIl4gfQUWcPoiiSBmYD4ltXhnorBqkbrOyrW95StbUv9jXAvZ0PjAW5mnBt4knwfvCdE1OOl7VDHTL3DRDSKc8Z5/ilM0mlANiif/7a80Rf6cJG4dBfa7Z6+nI+v+/ULvgd5wfYRJfQAcufxAawB3rgp8SyoQ5ZVljpKGLbwRrkOHlKOdUeuobNkyDpkiLp+TLGqrFiRBpuq64WK9asq6D4JEfHJtVoMXDUNzSvNZ5MkxSRLvSF6DtZl3EeSaTqSd/keEuUlHD4bDklsMMKboV6kMpYREgbAJLNCWcH/vkgCgsiIXt8QIf6TYkNvMWyUHaPGJc0ONk4kZGCvo97gZQKPLEEkVLZEET2QwM3znR5Ej+EhcYUExPMvnvEFkT+d3qlH3dUXic7vTGAYNv8uDjOMSjyO7QlQAEgA2jphMmrHgKKY1VIS8oQTweJqq1VBZGhvWYV2qV4vpBugHKU3eRabIRYBqYR7Dm0TSgvDvd02JZ7MX3pWR5LD5fslHIjo+mL7IPZTKm0NEjxBYDoWG/iR8MQtgWIPWgLCbpIYr+0jruQP3aCqXGQ2gwHQkYjvgpmnPZzwpXtOpNBgzwzzQGDB+X7nk3m7/4CTmCK+/Bdj5//vTmBa4lo6wPKJ0puWPQIICQAxBYxOiWj2sF5DFEJlikkbjHEqc/fBjjaFEdg2WR+HgmeqqwAQ5ipefONTZcs5tJ/FN7WJ+3o88ZG/SFvRMyZaNyBaXn4niOsSDp9nHwi3L/sRwsL2f5LAeB9yPEkpaes5Op2Ss0WhBtXH6g9VDEIyidMgG0FJTFgSk+ZBBNrF/rU5d1kIzs+3LYahnFtDuQukEyrVoUOQ0zSgL/ntyyMwCbEZvuFMpK2BHUidaIElkSAoMZPO0LQU4pJk0VFi4GoQOnguwMOVQTDiHuh6UeeXxU2rawt64ijIMB5LWvh0iu+TDFMQLO4ZiemX75dwCIT9vHAwOwtcTxuW3RXStHdp91tHKrwhl7xT1SIYpHEncX2uY2/H/u42ME1WQ9onjyheHQHheRzrHsZ7SEvxibPjd1DAz2KUfPkSX4wXwhKveP/dJRjiALpbpgHz1tUITfBM2Q/nIAhCAoAWCTAM6AKQLGnYpBWcAUkHYmBRkiWMbOpwMyOO8dTzpLCI6I3Qau7sOyXKznCXjMUcgk3lUV++X8LBBOLz7gf2Fa/4mxCBfZxwoTvi944JXjifCrXxCqJBnVteIclQQSC5nzvfT5c9zUmoUknFoTKlDcodwrl2dhAqTu2Uvw4XLAAlx4Yf+Dv8gbBcfIX0QqWH7EtQkS7eOYGZxzHPeE+Fqroi4YHqAWJbw7vBMfVumQB20g27RQHu6KodPbO0F+Lk+QQhOgyIyF9eEI4IleZAHIuFXA7b3qXux8v3ANIlHD43HDqv6HIbe6OapS33WPrQyRsXj6Me+ZVyC84lAHZv+g3JxrgR5IHzzaATgVjSFB+HC3dOF3CGxvfdI8LCBDM2S/2SCEzc/el/f+dAu6ff9vLoJQQuIfCPCQIX1aP5fK6TkxNngv/uKtI/JihezvUSApcQ+FQIdNJX986J/x+jyr4sfF8JyAAAAABJRU5ErkJggg==;" parent="1" vertex="1">
                    <mxGeometry x="51" y="170" width="70" height="44.5" as="geometry"/>
                </mxCell>
                <mxCell id="178" value="Developers" style="outlineConnect=0;fontColor=#232F3E;gradientColor=none;strokeColor=#232F3E;fillColor=#ffffff;dashed=0;verticalLabelPosition=bottom;verticalAlign=top;align=center;html=1;fontSize=12;fontStyle=0;aspect=fixed;shape=mxgraph.aws4.resourceIcon;resIcon=mxgraph.aws4.users;" parent="1" vertex="1">
                    <mxGeometry x="631" y="30" width="50" height="50" as="geometry"/>
                </mxCell>
                <mxCell id="180" value="" style="endArrow=classic;startArrow=classic;html=1;fontSize=9;entryX=0.5;entryY=0;entryDx=0;entryDy=0;exitX=0.782;exitY=0.033;exitDx=0;exitDy=0;exitPerimeter=0;" parent="1" source="8" target="56" edge="1">
                    <mxGeometry width="50" height="50" relative="1" as="geometry">
                        <mxPoint x="374.70000000000005" y="216" as="sourcePoint"/>
                        <mxPoint x="375" y="156" as="targetPoint"/>
                        <Array as="points">
                            <mxPoint x="650" y="110"/>
                        </Array>
                    </mxGeometry>
                </mxCell>
                <mxCell id="182" value="" style="endArrow=classic;html=1;fontSize=9;" parent="1" edge="1">
                    <mxGeometry width="50" height="50" relative="1" as="geometry">
                        <mxPoint x="653" y="110" as="sourcePoint"/>
                        <mxPoint x="653" y="140" as="targetPoint"/>
                    </mxGeometry>
                </mxCell>
                <mxCell id="183" value="" style="endArrow=classic;html=1;fontSize=9;entryX=0.5;entryY=1;entryDx=0;entryDy=0;" parent="1" target="8" edge="1">
                    <mxGeometry width="50" height="50" relative="1" as="geometry">
                        <mxPoint x="535" y="240" as="sourcePoint"/>
                        <mxPoint x="585" y="190" as="targetPoint"/>
                    </mxGeometry>
                </mxCell>
                <mxCell id="185" value="" style="rounded=0;whiteSpace=wrap;html=1;" vertex="1" parent="1">
                    <mxGeometry x="132.5" y="320" width="120" height="80" as="geometry"/>
                </mxCell>
                <mxCell id="186" value="" style="rounded=0;whiteSpace=wrap;html=1;" vertex="1" parent="1">
                    <mxGeometry x="487.5" y="321" width="120" height="79" as="geometry"/>
                </mxCell>
                <mxCell id="131" value="NAT Gateway" style="outlineConnect=0;dashed=0;verticalLabelPosition=bottom;verticalAlign=top;align=center;html=1;shape=mxgraph.aws3.vpc_nat_gateway;fillColor=#F58536;gradientColor=none;" parent="1" vertex="1">
                    <mxGeometry x="522" y="332" width="45" height="42" as="geometry"/>
                </mxCell>
                <mxCell id="136" style="edgeStyle=entityRelationEdgeStyle;rounded=0;orthogonalLoop=1;jettySize=auto;html=1;exitX=0.5;exitY=0;exitDx=0;exitDy=0;exitPerimeter=0;" parent="1" source="131" target="66" edge="1">
                    <mxGeometry relative="1" as="geometry"/>
                </mxCell>
                <mxCell id="130" value="NAT Gateway" style="outlineConnect=0;dashed=0;verticalLabelPosition=bottom;verticalAlign=top;align=center;html=1;shape=mxgraph.aws3.vpc_nat_gateway;fillColor=#F58536;gradientColor=none;" parent="1" vertex="1">
                    <mxGeometry x="170" y="331" width="45" height="42" as="geometry"/>
                </mxCell>
                <mxCell id="135" style="edgeStyle=entityRelationEdgeStyle;rounded=0;orthogonalLoop=1;jettySize=auto;html=1;exitX=0.5;exitY=0;exitDx=0;exitDy=0;exitPerimeter=0;" parent="1" source="130" target="66" edge="1">
                    <mxGeometry relative="1" as="geometry"/>
                </mxCell>
                <mxCell id="133" style="edgeStyle=orthogonalEdgeStyle;rounded=0;orthogonalLoop=1;jettySize=auto;html=1;exitX=0.75;exitY=0;exitDx=0;exitDy=0;" parent="1" source="124" edge="1">
                    <mxGeometry relative="1" as="geometry">
                        <mxPoint x="540" y="400" as="targetPoint"/>
                    </mxGeometry>
                </mxCell>
                <mxCell id="153" value="" style="edgeStyle=segmentEdgeStyle;endArrow=classic;html=1;fontSize=9;entryX=0.153;entryY=0.231;entryDx=0;entryDy=0;entryPerimeter=0;exitX=0.5;exitY=1;exitDx=0;exitDy=0;exitPerimeter=0;" parent="1" source="69" target="44" edge="1">
                    <mxGeometry width="50" height="50" relative="1" as="geometry">
                        <mxPoint x="347" y="424" as="sourcePoint"/>
                        <mxPoint x="397" y="374" as="targetPoint"/>
                        <Array as="points">
                            <mxPoint x="365" y="400"/>
                            <mxPoint x="480" y="400"/>
                        </Array>
                    </mxGeometry>
                </mxCell>
                <mxCell id="154" value="" style="edgeStyle=segmentEdgeStyle;endArrow=classic;html=1;fontSize=9;exitX=0.5;exitY=1;exitDx=0;exitDy=0;exitPerimeter=0;entryX=0.795;entryY=0.231;entryDx=0;entryDy=0;entryPerimeter=0;" parent="1" target="43" edge="1">
                    <mxGeometry width="50" height="50" relative="1" as="geometry">
                        <mxPoint x="363.4" y="374" as="sourcePoint"/>
                        <mxPoint x="250" y="426" as="targetPoint"/>
                        <Array as="points">
                            <mxPoint x="363" y="400"/>
                            <mxPoint x="261" y="400"/>
                        </Array>
                    </mxGeometry>
                </mxCell>
                <mxCell id="177" value="" style="shape=image;verticalLabelPosition=bottom;labelBackgroundColor=#ffffff;verticalAlign=top;aspect=fixed;imageAspect=0;image=data:image/png,iVBORw0KGgoAAAANSUhEUgAAAIAAAAB5CAYAAADxoykaAAAgAElEQVR4Ae29+Zdd13Xn973Dm2pCTZhBgCBBUBQoUqKpwbZky73cbqfb6dWr8wfmx2Rl5YfE7qTTjtRetmy3JWqwJIqDSJAgCWIq1Piq3nSnrM/e59R7BYESgVKTpphHou4b7r3nnD1PZ99kNBo1+hRfiWobvVEaZpGEo08r/h6n+OBkG7WVNNNv63CbtKmV2teVpFRVwn1TJY3s+zQppKZRmT44XqKmSTnTzvfZ1bILw1z5xc+RmuTo/Bu7TuF8Dv77dBSfYDwv0XTucY2f5DH/JAf7OGNNwZEYKKeE8VFXVwonPnBCY+gC3I6kTE0S8JLUqiEEuyIipD5ym0PEcw5Uc0iofOHX+BUPDGvn+nf+lnP9bv4t79NDAvmU8a9PnQAag0BiyAFATgARKbOAfCi4JZV2kjG44Wp6LzDK/eE2P9Y2jqHDfuN7B0GTcIYjKkmaGani3/ErlAYR+SszuqjDjKOkmiI9nscxDWf5vaTKacpOyWZP/MTff+oE4Owb1m0sOoXBDDMZd05/+XXvQJ4JaUeYIT9KATgvEFnjx1n10SSz3BolwlQm+W1TNUmQToHqOByda20qwmYZKdM+OGEflQi/bi3//X/71AmgkXNABKAfK8NOEvQr30XOQ/faK3BiEjk42AFTeMNt03OdQ+uA/XC/JlWmid3OpES8t5FOVBc+kPF/IBpsB5CYNMFSMBqZIjfO9VfQ10Ruj0cGwkb59F6fOgEARHuBbANkIxBvxpF9ngUOrOaINXGduFEXbuAK5PAa7sv5EZGcG7najTgliTAWp8plSjQQGqiH+PiWOSEhAt0FFcEv/pq+Sw+JzE9mQpFaWWMklHjlp3v81AngcPmHRtmhIWA/IW55AUYQYMzHdwZIRDE2QAIuD8Wug5jrHBkgJzNrnM+1ncsfkOzeQaI6yaZiJqCM67gX/+pAEHEyPoZ7EcxplusPpdmhfTDlcmwNX4/PL5CGffdp/PkXQAC1A9iEqnO/A+Io4o8Ap+E8vjlk95l3JpztnvEaR1b8xHH6DV7G9C7xHGwFl0j1IYYO3xwZF4r066e/QwyRCOIdp8cgK8zecFU3/e2Tf/fpE0DSmEvmUjLa1AG1BiRjfSWGcbfn4WJ8fL6r6tzwab9PcWBWf10jHRrh6gcTQdyyBmlgyWxC9DH3Rbo0SlMkA0Ycvj8GH0hB9Acpg/8o1IZ/m6pwrAURYPeNeHQqZQbhm4B8xmuiVJixB+J1n+DxUycA4xZbcATOlK+juAfkTe1Ih19TsGhIapSkmSGuqrneqEKpsV+lFLjXhbIkU5pmqhoIBumRKE0S1XVApOmP2tREWjVyrneXD/uAO9eoDggExAciqWrGYC5BhoT7RvxBVtBLoA0lZgRWTkxGBApjxSs++eOnTwCHBpIbaYDgkJHtjXOe0NHhVQNVgB0+G0JBSuA1CMDcu6ZwYijh0kxp0lL0OlKQWdUq0kRZijGIb16a7LYIYpKrAq9JZhIDKeLjIR2MJJVmiaqK+zLHRgkE1RTBTkGAZDajOCb2jEcnGQbKQMrEVX06x0+dACJYCY64UHVJYLA3tyuGZ+BAuM9hBtzsX9l39YCVXhVSWfqxOFA5Gqgc7Ws8KTWpc/VWzmhu/ayUdVU3ldIsI0gslYX2t+5qsrepXtao3W4r7S0oaXeU5x218papA4gIwmOGlamnVElChNEmarZAmmSuZkzCIKFALKqNN40ZsiCee5gk+3Twfjjqp04AwM4kNlMyrB/O7fBNFgIvnJBVpbmIrkMT1YPbqsdD1fs7Gm9vaP/+hkZ7myqHO1IxVFOOVaRt7dbzOvXFr+vi0oqaubZquDFN1YZw9gfafOdnuvP6K1psDtRJKnV7c0o6c+osrWl+9Yxay6eVzC8r6S0p6S6o1eqa+1ilpc3fVRnEAVFgR7AYX5vJpuDvG+Oz1BRJAhFHOXa43E/0zadPAPBCFIMWpTsKEBCd1rUywqdwUD1RM9jTZPe+Bv09Dd55RQc7mxrsbSorx2oj7OtCaTlU0kxMBST5gkb7mcbnr9rn2tzJRlVdCkOR+MB4b1P9m29rcR5JMtDYPM1U/aSjO2lHdd5Te/GkFk5f0tz6Oc2dPK/20qq6i6suHZJUdc0sUynLlIQxIFrIIhK5Kw+ndaRCXPonivWZwT51AnBQ+IyiscQnAEaQJjd3bKJmtKdy+46Gd97V7odva3/jPU0OdtRDb9eVFppaGYDHeysrZUmttOV2A7G+3Z0dLQ5HaszCS5QzQIPB11KWtjQZ1+rv7ipfWlPbMoUQB2qiULus1BQH0mhHg43r2lVq5y2tn1Fy5iktr59V+9QTSufXlaZdlWiVJDcbQE0VModu9YNwbAF3fu3TDDo++bf/Aggg6HxXlsYvhpuAoMnwQPv3PtTW+2+o/8EbqrY/ULfYUbc5UI+IIcnAFLFbqylh20xZjrFXm+eAD1hMxtrv91UUpZ2L6DWNbG4f+j3XZFxof2dH1dkluxZLP09TsxVyLMByrLQZK81yFXWi8c6B+js3tfXhe2ovrKl36rKWzl3V0rmn1Fs9qzzPVJrLCJc78jE8UT0sDbfS7YLoDn7yyGfEYxNAY6I5UQoeEYMm1HDVSmNuom1NmqkwyZ6qDfSryoCM9c3v7mrBlVLeTKTyQM3eHZW339LwrVdUbbyv1vZdnawrJS2EfHSfUqUN7hwcJwM6lnhTDQ1RpXIVSUt7k1Ib+3u6mKUW+c+wzius9lRVVkt1qTJPtX1woN39oeYW2yZ5qmpk7mONlMngWgR4ZdTTbhx0lw7uqDm4rerez1S92dFg/bRaTzyn/MkvqnPqspL2sppsziRCQfQSQjff0MPLeA9mL5hHgSfSKEtzNVVqEqQK2U6g5NHP4A2ZTWGm5LEo59gEEHUYehW6NjFugRfPmDE7gioZFnSTmOcDENCRNfK6rtXKE+VlpRQXatzX8NY72njrn9V//zXlw/tqVwNz1ZKsjelsFjTiO8G1y1yMYlcTK/BQAOByboO79/o7OhgUyjo9pVkq/HczLO3SxiRGmne0Pyq0t3+gUyd6KoqJ8iwPSLdVBEBHSzUAP09UoyJCoGrn7m3d3thU94ObWjx/Vae/8JKyE2fU6i6ZuuHqOsQuLHgFA6BqIGAQDwHH8GOKOwsAXUr6BGbfH7WXwgQf6XBsAjAOVGqLgpObBGMNHY4PjBuNtiPax8IgBnxmj+mDrzwtlJSlVOyr3PxQO2/+WBtv/0z1wYa69cSIIjMR31ZpETwCObhjLsYN0YjyYHkjUbIkt7FB/sG40N2tHaXzq1o79YRana7GTMycM/z2zFy9ldMX1Vo6rQ/ubOjsqRWdQI0QrUNiBUMVoW0vzAeI16oRKiVtN+ZQO90sU1uNys0b2rl/U/s3XtPpZ17S4pUXla6cU9pZsjgiktNg0bR9CPOCHTaszQihIo5xOKSFp2McAZZyI/J4KuTYBOBoADSxWAKqdGEZAeZUTZg1U5qnqqtaVVMaF+b1gblw/Xde1Z3XXlFx92316pHaGcCulOQeq4dLEJUg38WmR/VilAAGNI4K8yBYVKWpdvt9be8NdOHat3X+ySvKspaSkvGJBkJHJIcSnT7/pC48+xV9+Mr/pZ29Ay2uLykxmwEOdCTwFwRAE26w1qpqJEXb4wEVFF4hlww9rUYq7g/04e6G2jeva+2Zl3Ti0nNqrZ6RsCWKWmrNKTOZ5hKsQgVkEELA/HRoYyyfjEMWmP/qWTMXfIy3xyYA0/kGyEq5lc5BAOi6wri0oUgPLjNp1aiuxkYg7QwalorrP9b9t17T/es/VTLc0UJaKUsLNVVtBltt4bjaOJzVJgmEwK0zc7cYq8GVs1iBx/CRLMyraBpt7fZVqK2rL7yshbXTZgiigqz+J8GGKEytzK+s6KkvvaR7r/+T7m/t6uTSnHp4FdjrjDubrYyAbVJ18lx1Waokkpi2LLZgc5OvD0Julbsa3fyRbm9c1/7NL+nstW8ox07I5jQ2Lp+iMY0sbouFNJz6Ym1h1A4QoKWhZogzTutRjscmAB+sOQxxulbyaTM3R0yMvZfKVCrLG9V797Xx4Xua/OCvtLtxW91mol47UVOM1aATc7gKSgfBIbSbNGZsAgREKIipjRUx/Ii6+eiJIS7XcFTr7taueicv6sKVa0rac6oqpIpzDpIEaoKg0rkFnb18RZ2Vk9rcfleD4rQ6rUxZtCuwXwJkbUgz6Eg11EqyXDl6veYcDwJZMgmiKCu1cwgl0bjYVv+dH6q/eVenn72tlWdfVHftshFyWSWCVzzPUbkdgL0TJIGbfs7zBhObzaw98Chon57rEJt+fuR3qUrz1+OFtSqjWndx0qDDahUEZ4wrStWbN7X7s7/V7b/931TefU8LzVidpFQ5Hprl22r3zGaoq8oNrApb0a12ON40LuFUQr+B+0GO+9eookyTJNVmv6/9otG5qy9q7fyTKrHcEdcWrbMr7NwSIstaWj93USefek77pbSzvy83bJ247RoEO6FfhDbEx3V5W2WdqiwhehNRBgqijHmrZbEJ9EUBgSaZuirVbN3Q9s/+Wnt/979ocvctNaNNZck45BiRYkhQ7gV6/J9bUu5CRiHhaihC/vGOxyYA10mRN2B59IAXXzKlEqu2qdWGezVWdf993X7lv+rWK3+tXv9DtdNSaT3By1Ke53ZuaYh1Y5LEDgGeLO1YAWdpGT2XLKYrifxZ5C1IiwbZIA3LRvd3+mrmTuj8019Qb2VNJRk9soKmq3FHayltqapTjceV5ldO6skvvKiqtaTbG1sqKkSzi2fnOsDl63PAsTZi/3gjxBPM/bFLyDRWZWmqyCqJUopIKwtALea1WoO72n3nFb36N/+7Bu/+VBrvqKux8tqzjoZO83RmEevEwDe8Mw9h9ufHeO/reIwL4yWH5RDRaDH9zOQAFGIt9QROM1L54Zu6/ff/h/Zf/1vNVfvqZrUm5PThIrjLSNpjCm0IAjEfLH+EXYWYTXPVKYEe9/+N6xHTBnzSs25E7Q3G2tg/0NzqWT37wktmnJl+rSpzt8A9IVvUDV4GhpuqVM8+/zXNn3xKO/u1dvcnqpNcdVKpSirVGYFegk8TiUxjMN6MKGrE1NQiN9VnMEElOLT4TsQUMIBtnlK++bauf+8vtf3zv1e9v2EZSbuWJUF8nAt0LJPoBGkJp5oqpxnGiwh5xOOxCcDStCkaqrb8OpY+os5wgpCsJsrqkYbvvqp3/uE/qX/jn9Wr+sqakVKAYa+oyzAYjbb9aO85oTaRe3S5AAcQBd1be3IHaBc13L+j/qjRxWdf0OL6KWdkuCv1wItFCwki4Z5iaaRuGC6sndTFZ5/XsG5rY2tPSatr9ggzRCUxF+IDXgdg39p3UfK5r+tSAnqO/+I6IRonHP9mbryr9v5t3frxd3XvR3+jeu+uBcOSGiKx+JPlK7BdPNbgcQwLGAXp5Hd6vL+/BQJoq8CtYsI5rlmtsmrMNcrKSp0G5P9Ut/7pr1Td+oXaeaka6kfcEzQ3gc0RYnBCQGSW4V9FtNCkMCqB8xDGuFtOKLiYjgxET6Y6y7R3MNTde1uaO3Fazz3/kpJOz20IkEw4NphzECnuGIAtiNmT0++19OWXX1b3xAnd29zW/v4AM0N52jbnTg1qCgInFtFWWrthGsHPHP2fxzf53lE+i/bp2T3V6lUjdfu3tPHT7+r2K/+Pqq0byrOJqnJi8zbXFQHVlGog4CBtkV7HfR2fAIB7QjClbZMFPXmWSeVQaTLR+MZr+vCH31V577oWkpGyemLWPTrS8/FuXvlEIue4DeGI9yXy+yH3HIoCIope4WNEU5EtrFWODrTYyfTk6RWdX+6ovHtD9XBPraxRVbnU4TxEPy8CPllTqBruqLrzrk7NSZfPraublZoM98xzwONITR1IJc6DSRPfI8A80cdRJ3vkwq0jn71LijCafxX+Itq7aaq5tNJC1dfW63+vWz/+jqqdW2qhcqx0zNyDEGoHRrgtIax85G6P/iE57t5ARGir1VGJeERf1406KXryQMWtN/X+P/ylqjtvK29GaiHKQ4jVxDf6320s87cNZLZDh4WAbjD9kIz5oWpwP97kRtpyXssSFWWhssqlDjn9Be23VnT65X+jM9e+rknSVZK31ZTUFRCWzS19nGuiOz/9R23+8/+rxWpXw/62knKonKBUq2UAh2gb5DK6t/LsowWUsAusXAzp4guKXMpKrPrHvJSIIM5xKk4rbCTCwYWa3HcpHKTzWn3uWzr78p8pXbmgEXWPSWK5jqqsTNW22m1VeBbhPvHOj3o8fhwgqY2rCNgQyybdklRDVVs3deMH39Hk5htaygsV1dgSOZ12x6xjdHBZFDJF9wizdmBCGvATUiSxyKKFbbmPFYzWWmwlKid9FZMDpa2xNO6bwZcjBbCuDZF+vqV5qlJ5OVSzfUN1saP5TlvCsLc/jEG5mPMwyEhCXaBVCYX5H0U+hML101oAm14Q34dLTskuFgKhk/FAnRbXDbTx+j9JaVtnv/qv1V06o0q5uZrYWNCY1UBO6ejwdo/65tgEACAI07byjurJyKJ41fZd3fn+d1TcfENd8m9NpXYLFVFpUoK0lgp0fgsrKeh9mzkrcg7i49FyiZAYQfyZYED/JeZmEvhxqxM/nRRuo3GBiG9bjIJ8P7kCtzEaNUirDF/eK4bNyJi4i5hkmJW4iohZkjOIfg8XW5jHDAfmzeici+3gMQh3ziIKDskh2DB87368Ey8fQ9VxmqisSmWtjqmjVl1pSQPtvP59dTpzWn3+D5WdOKcCSZDlNmrdTILUPB4KA0nHST/6EZ8aXcoC2rhV44HuvfWqtt59Q91yGCgaD4HERqqs3TKAYNVGY+zoqExp9p//aqIuKtl4NPt9RggmjcqiUpZ3lGdd5LsSEkNkGiGsEC7myNggAslhOYZWrklVWraQUyEkK+a0mj88G9BNjNkJMdbzcZZPJ1oosyA9NFZmCJvi16C/LbpIBBNX0+naCK6WummlfLKnD37+A+19cF3NeKQW7nIpVSUpY8aZvf9RKH7cTwRljRITrFpexPCdxZwHLcSJfg/x9gZdS6o11NxbtS06bKym2tfkF9/V8JW/1FLRF8nUpCQz11KdjCx820DFyi3n7ZZ8dAXjlF0ixE/xeMg18YtwNMZGJ/PGcumI0FJVMvFqBxCWdgOoQCHzz4JxFaqFzXap1EKsY5Q0uF+I7rEXcbJis0jZg+CRD//LzqI4oaPuHd/O2gHxLJNCIZNowq7peowiBNAsa15TryAtaKLe/i/V//7/qvlOrfzJF9VKF1S3erZWrKMSWjJ3OLUweQ4F4emklUcrmV/Det2WgvApnvEo51GZNZ2jvYPCyN8T7ZpSGnBwFHFnDJNcxWioTl6r3PhAN179oarJ2MKgZhQaILih388HCUie3vaBsT9PHwHCDCAooDEJ5PIR6TDa39X7r76ieuue8hYJKnAcsBD2KxwKRUBnRGl/7MODZoedEoakIt4oiPx2k0a/0rSdYcGYyxjMY9MUcTB0jNphlXZRwTu3dfOnf6/J7h1lRM3Mx2cxvpAaeWBVNOhB1+MmUj9PuH7oWoEmm1KmbqR9AxHg/VEBVUw0+uAN3X/tB1YQm1SFu9Jm8FpMNMRIPGBGAgl5ZDaHHRnY4x9wf3xBNAgQ/8ynQFV8cUg/vDESilmu2ehWpg5GUDnU7hs/0vY7P1EvQddXltPmOiM0uxmiP6gZu/90InFCn88jgSOkLEACaaAEZoPRSHihmhr16oHuv/mKdt/5hUUKUayUjhl6DMoeH3ByijhzeJt0MBPoV2HOiPbiJMNT/CJ+H10eDCZzg8iPczITRVcNVN25obuv/5MWih3zm9GflmjhHocUx66YKQH47X91Qg8M/zv/MUY3DfoxvnGoESAMytcateqxssF93X/9H1XtfCikAH5GlNURd64+4HfMU5fuEdbc1v+5i8qH6Ts7K9IDX7uYttApe+SxWC3YwUWNJScQXc3+fd176ycq73+gjgorpiSwUZZjM24iBmMK07t3xG///+PhdnHDIHAn3e1oMXlAPiCVFcz20lKT26+r//ZP1JQDmcH3INsSSIvU8FDwRhz7j6l5AabVzfIIYiheGSxe81ddKYFIMnRsusTyL2+/qd3r/2y7aXCECLVCKC101+FE2NhJXt1JG+s4Umoc6fN8nIWFdR1xzjR+pdrJ6gfNWivUGW9p+5c/UrnxoYWvPRYIcx5F7BEiOJQoUQQcIiZKgAh+bgKiUUOz4jkEQtAj5kKxsXKsdDLU+K0fKj24pxYpSzKBVhFDAchkVuWboeNG39GJxpE/v8cA8wgAcz8xCBHfaFoPbFEjwZnYXOPND7Rx/ReqB9serzB1HG8AjmYx7iid/nr0HZ6vf/MgBfHZEO405gEPnwzXQAA7N9/S1o2fqpcWyqzc2imLO8aJh5sbATwwrY8IBB2d4O/6J7fWWSXQcS8scq9JSgsWkeoG6nhqVD032n3356o3b4RiVODt9RRGTriGVnXsHthRGAbu58DuKTsyfNQA8ezgPFrdHHV0nI9BaGHXSs14T1vv/Nz34JWjw2IIj5hxNlPhH6+Y0p2VKuGnz/1hFk7gISItpLytCpqIJrLVrC8zAJvdWyrf+WepKmzPhNlswNICQZAVATBnuUhQDwN1Go0yG9jEvvGvWZAgjp02VK8wQFlT6QtyK1V331f/xqs+nhmMUK9HCzkHVM+im0l49Gn67dFY/8Om97v/nbEIoh5OD0wHZx4ah1WITlJIZA2rEgtX5+W+Dj58Q+P+llpJaVlYuNhQEUrJvCprRu4GqT61zaYsGqx+t/wj2O1S8u0hJctmTVUTNcVImzdeV/vgvol6rwJiEczQQ5HcYzaCaEMdkTLcfWZycdDP2zHEXh4a6g5JqJSklGUBEfMY4aXaKjTevqO92+9JJdVVrj6gIaSFme8RvL9GBJii9yrUWc6cwUKSqSSql0htKl2bieqduzq486569YFlzCwegGAILwgByqbYwcJZtv/vqEQw6fJrJhbv9bt+RFaavDT4RZUJLiKDeAmbQdTK7dwDo5vJZLCv/Q/fVj3c9V3UZjX61nQoxQSK5QkMfaHVnXt2BldcTjNCzNhDz0SR4OFFTkL7WyGm3YiJFdq9/a4mO/fUJiWJ0LDJT0UY37EU11sRhVw7JTLOiaPFMz6fx8imD189bfAaikX4LwSFrIiVTS2qNdq4oXpv0zEVmNDZz0TBrLS3AUxFzDBrilqIjOhI4TwQBddTPMHuafavocRr1Qd76t+6oXqyb3lyMm+krizWj+kRbp7M1sphbc6i2zyOkBZ9+Lo/N9/GmIgv2CuLPC8Q9gDkbKfDC2DrGJnTKSTZXU0Optj60NriwMC+8RgksBnXA0vc23FLkAgjE6KzLNBhbGbGDXAuNfeQilnrrhWIhEqU7U1rwYIrwjlxyxKIj82QTANZivUo1x/BqhHBkW8+1x+ibDRERS5ie9tkZJxvtY+EhEwzYJwj4lNVB9sa7myZbQYADQ/h+sPUjsH64ZImzymIAJUNhRqUSUc9hPBPlIc6P9t2hf7f/KWau79Qm736tE6x+gFq1GNePxGVvL/2ZVauuzuV7eatlYX6Asq1PJGfGwU31uYFpwZqZqZsxMAjJkJGhNHnaxY0toapMb7zUiwonkZQ1inUgEbSBI/Ed/i0CLBYabj3LKiovq0yZVb96/cxfcz8YnDMgjQ+P7jMtqZbDgc4lqH5E1vaqFjGQ6bQhOmj7XNR199i72PdaMKGSuNrP9YPwM42nLAafqagJvhXtW2Ll9brPRV33lYz2lXWXlSadFXU7GHAZXdvDKKipMzkAhVOjGf4IjobcAWgfKEACEueaQFw4AWn0yZlrOHellXikvE7rMP7tdj+9T+S0QKxXojhfi6FlmzBIkqRsgmE3wEs6VGr/gL5VHV5s4jDEQKCPGEd1JGxBHvsZnUQIhHicWIwGETCt3U7LKaJGoP+jEg1+WjDYueAM/eAgq8GEVu4G2L1VjEeqg3EWpc40tYo6nDuj/kG2Bz099SMyb0ASjbHEJFlIVFCe6bQToD4ISiYnUJTP42fmLTrILdM3SXEH4XG0UvNqK+9+3eUUNpNSxAAGDplPOb8LXbgDRFIcGKI0tTRDRNr5ADPZxCB9+wx2wTdhzFclmILNq9IyEfmEUTf4V56RGYo7HRPxStjIIQYaLG1MhN2DQcTyo0qz2QCPEOjqTwkF9VQUm4cSTPKUpXBxaUMdRHUJrLRgxelZCAf+HmDjAeI+MgCfvMH5rbf39VoMNA8MhHCpjTvUP4b2o3JbKMpMAF+dmurEgoigC9M/PpP06EjJVWqhwPryAWf+rnAKJz/uEeAQr8+4/SWBuNKdzd3tLU3UJV1VYWGjSwMS4b+Al6dSz2fI+WhyA8LMOQZspjydK2e64DsXcaBVlbq3ctNKZp7Zpx9KFlMeIZiCx+gpAkl0pEt4mVhkitpL9jOos29gXYPRt5oGsI2v8y9IyMjkPG4cAvXuYopND7om9rzVYCTKY6mqw7cYr9yZioiDOb+xSiUAYxrw1XYAV4oUqsYHqgcjNSzztkWvvKBbDIuQVzMhAl8jO993EQlHJ62NW4yfXhvR0WV6XSR6dTKnHpGtJVZunVJ9S778L1DRt2MDBPRg6GC9/Bl7q0v2pZjYh/OZJbeomYKHL5jnwLqB0T7rmDuxr3dlnDxaRKA5fJbOzcdb/ZS3tVIbW33S926v6etjbu6dP6UFhapMx4rqYjwsQ8gt8hfzXY2m28Mnj36EdupnRUqDratJ6JyuN86ZzmTGpExV7eJ3Epk4r7y3MwKI/0p4CLyIyDhs6aaaHLQV2q9d50mLDZtzYoiZT3G0aQOG0oC0bW6mlSptnb2tD+caDBY1un1E1penFOaFib2vSrOJuUEGEQ183VkxZshiMYAACAASURBVJnHo3O0f/J12hqZrgHIUBlPtqMbbP7V9J7uzvq3RgbewilrG2LHZaKNnb5ubezp/u7QKpRHRaOG7WfU1VJQCgEbqaW2ufNBWB+ZxMf4QIyARqbjg12JvRd513csQ+SszRiYA2o1qK9guHJ7a6aDEQMe3D9E1Hoq0sfHqkXEFZrsbZm1T+NGuxvGWaCkjzHXh5/CnkIA2GLLVWM7hwyLaaaDotLb79/W5v5AZ06taH15QQt511yepB7ZtnD25tncWcPhXFi4U7zFIxxXR8Z3iYGh6J4P8sS43gwn1uU+9BRBsV7Sb+NalF7hbNbMtDOodWtjU/fu7WhEyiTN1EJKGW0FdYUEstir1/IAZ7MDoip4nCPkVNUqhwPDUdoJzG3IZ65x8TPzN6nj35tvYDxhEIENgQPf+AkuKPiq0Gh4YN/bwxXYJ2ckEwc4At+P/YFOIOMSoyhX0ppT025UgBRar7D3Pm9rc3es/t5Nba4s6InT61o/MSe2apKcapnHMFVZvzpwXEFgBkOIr9PKo7kgGEysJJpH9nVQFS747Ru/CdtBzI1MNahS3b51z7h+MObMtiVrmqR0QzVtq0w6xOzUyVtG21As+wttU03YeWSANwLmByb58Y7YFdaU0gIERl3GwGzRcyXFvF3q8c4RzP0dx7m7TLC/R/6QGDFDyOnso2+RAi4q7e4faDDx3b8VGULrpD0DYB/hkf66OGTvXZuezdorKpWtOQ1r3BrvwN22/gG57mzsqd8f6uzJNevktTi3pKzqm5sIzLDkfQt3Ze9tuVi86HX2Dlq2DHXAf2QuHdZkPG1vv3Uyw5e3jQHemoaYhTV2cIOzACBZm1YO2t3b0y9vbam/u6+yogIK3U6AplRhQbREu+NSN7f21aFdTEVDqUxVWVh+n72GNKhwREWEPdoxbYYaZrm6OwM9DRFkubXEJ1xs62DcGP0zggYqQJ31EJVA5FlgBsDEl78zUIF8DDQlevOtd7Tz6uuao9MHAQ6TEuZKBHqKdPXxjyABeGPcjZtUSxev6pmv/6nKX7yquzdvqltWtvEU5GatBY3KUjc+uKvtnV2dO3tO59fa1l2EOIWFUK10ysV/3PsPoA3YbPBOc9PbuGpZw9Yy+gt7PACg0esnMSsRhRkVQ6YJiMcjSTva2Rvq1sZ9bW3taKeZV5qwydtL3pI808FwpNbSsi5fu6b19ZN67ZXvabJ7zzaeEL0jDZ5mjW8IrSGAx3+lyUijdE7L+QV9lR5F2BgQge0XcKaYvTvkZS/bhEs31CgUTJS6+e/6z61hL/CsRGuW/rDQzjixrh40YYCIEqJchwLl4yM+KhmaJgKQTLkOKuobWvofv/0XuvK1P9Pf/fV/1ns/+r7q0Z5ydunYdrJMWbag3YNC/eu3tX2/1sVLT2pxfs6MINurF/x6qmiYJm6meTOoLJQy+t22fKHovH0dgTFauhC9MzUIySNeycfT/qXVEgbdvc1d3b67oZ3+UE3aUdUg8hO18lLjYqRJ2dHKU8/pS3/8Z/raH3xT7735ql75wX9TyW4fiK/0OeRs7zIXd0Y3R+Q80jHVpJG6o7BzCyPDeBxvw6UZHg+qzW28sDzOaURnN1gQVxAzFc73GFK0AfBtexnGDme3VNC4IaMyzd0x2pdYpy579Ivpj0f6TFAESUKxCGMknXllvRM6df60/sOZy3rjC1/WT7/3Hd1884fKm0ItGksQTCEyq0R3d/a0e/CWzp5e1aUL563tTF001pmrLidBPbCb1wEDZxgNmPrycLchHeuG+jvAwd5/JB9b2lJC213rNfjBh3e0udPXpELvtq3JNIGwSVlag4ze6hk99/If6cU//BOdufwFJZ2Oms671q6ekZxp2mJ+tJxB69JCJ3oZj3Pk2QeNusroz8AeAuCIsWk2CsiOyPf1W1kZaApE5g/cQQpE2UDpkb33qCDVQIhX4/TEw4zG5zVaBOrlVljMgacf8ZgT2kW8hgkQ3WO3kZKW8sUVXfuTf6tLX3xRr/7gv+qH3/1P2rn5S833eJCDP/KlEJtApfdubVqDx3OnV3Vy5YQ9JsYWWU+80xi5iyyESUzFeww/SVqqqrFpRBJflnShDhubBKlUNHr/vVu6t93X/rhW0bTU6vTsfLa3026+zlo6+/zv6eU//R/09IsvqT2/bI0oCQ52ugtGKDSONhpMatS0xX/MI7CYQwCjs66jJmLoNxzZ9hrKNQ5b9WVBOgNWDB0wZb2WDvcEBiMYN9C4AQhGAmD4Q3eEG6AW3CgaTgqNEJFJbuJrQiesuIDgNUTJ8XGP1bhQjiNLAiPtmHXsrRsSTUgUZakWz1/SN/7tf9SFK8/oh3/zn/XWj/9Bo4MddTIaUOZG8ezj39g70P7BQNurBzp/elWrCwu2dxFDyw0i3w5uXUdDMsWWbdZg5m3eaU2Vz2s4KnVva9MQf39nX0XStZZw7DgeV40TqRL11s/r6//qz3XtD76lxTPnVLbaGlJowY1pSNWdt0aVo5qt6qmqsRuoGNqGW8Y+xgs1NOTRN6AQfx6VnGIIosL8aSbRqJ8dyZZMCNuaqplIMGVwmNKNBMFW5FarZS7aiTNP6GC/b5nAdp6rmsBVs7d99JU0rVzleKxOmmpSNlo4fUFph4Kn0lzAqsTqTlS3FvTEl76u1QuXdf7ZF/Tq976je+++oaToezyA/gRlpqESfbg51N7BbZ09uapTK/PSvG/vxpXNMtrNuW4024UdNyyB4suso3HVtc2Yd9D19zZM3ENAcBAqpZ13NJiUai+t6erzL+mLf/ofdfnKM0rmFzSeTCyplVsXM8Rwqtb8sp556ZsabDwlej/Q1Zy2dtgzeBcJ9sUxXtaZJc21/sQllXnLA9q+sEMxD6mZAiBuY+Y62Vvb6KzkYDwwzc8COdHcAwsiID94Yd2W1vOnf/+O0pKQJr39wAvJlXheOP0RD6RIMNEy6wWcqJ5f1MKpM5oA9KzjcVv0p5WY8ajnUlk5VP/dN/Xj731Xb/3j/63+3p6aBEB6s4RWlqiZ7KvXjHXpwppWLz6rS3/8P2n92jeUtBZVpTwyxjOKdA/XhHtOtPHqD/WL//I/W3+De3t9JZ1Fs6YRer0803g8Nv///NUX9JU/+nM9/XtfVXLyKes7iI6n64nlLGoSWJn1GiapVA8PlODW8oJLTYpG6eq6+RHBNnN6rSSnt0GjzsKSSnMD+Rljhp7DLtHJ+mHf0PKO35BGaZ0ob1nAwO0/pBbZP68aQfqDfI8M1q15nbhwTRWyBh8zK+xmHdvvPzOfR3w7bzqsVo0xYD40bd5CPz5rCok3IuMerCbLdrXm1X3mK/rKhee08vzX9P2//Y4+ePUH6g73NK+xepNCc+1M6ytrOrm0wAgWzRTPBrBKJ8wGNyYxnHhOASyCp7GSV+qttDWvjnYG++onLQ3SXHdLae7MVT33+3+ql7/1Zzp16VkVZlsPzLbAdaRdrRVwYhjTJCvPNFDbupRBuM4rMBrxAsCYqbSsIzj5CEKIqvkjBC29FOlSyr3wBkg60kCTZxwQaIq2FZKHlz8t3cfC+M6n4VM35xjPjcBYVBicgwZjg8wXAQY8Br+36dZHRPrs6UTzzFJFxEKMpKTDCRiHuHBxZnYeXUCsP7/U6/X0wksv6erFc7r+42f007/5SxX33tO51XUtLy1oqddWnlUat0NLdnN1/e78Rd5BXEgyXqSfO3M9rVx8QksnC23tHejW1q7yUvri81/TC9/8c5197itKF0+psM2Z5PvZqEEVCnDBFvZKHaxwxDOBHzOiLcgEyPG48BpYLw+fCBLUOpU8hAgOgTELten7goaVZlWi1sgv8Fu06bh3vEF4a8iFkbyOIXeRP72hpT9BCeTKzTDwwYt1z6Cdq/vW1M8AvUig0zs82jvrGcgczc70RWCJ231TbyvvaVSe38ekc9S174c3j6NRZ/mErj57WXN7X9LeO9JiS+qQFYNg00TjZqLCxC7+v6uJBK8AkehWsE2aZM2kGamnsRbmcvXmTmhlZUmjbE6XX/6Klq8+rbTX8VxE0hG6vtXkhmhDo+VbIGAW1HLCsjoAtnJ7xW0w/byaCVVlawhIMvH8EfCbwePsGTyPgTUW9CPm4RuMTiWSc7ED1iKBjk6HbGBuurEC6GAihPt66JDrzTjgFtZOlalTRUMJVaWcsKOJGB/D1uw385ECUn/j90ayIYJlTZkoZfJHu6CzEEcmGeAdPtOQyiY3UjMeqrz3rjbe/aWGd36pZueWTnQa4cAxT1LMlXXhnrO1kW9giuZ1mrXDQyNp9z5Sal1ACc5gSPNsIPblt7TQztXLE9194yfa2drU8uXndeLcFWVLa5Z5k3pmeDWZxQLNHUZSGa9XPPHsQEWoovJJBDAzERo+0fyR94/4gni5jubcE9paLZ1RuzUfojgw5oMUE/IEYfsZSIJoc6MIU06IWljdDyzCPtKsmadrNpXGe/eV7G14tYxRtBW8PeLUHzjd5gnUaRnXUZX11F4/q1arpwlzSMOTO0PqEoO0toaO17X14TsavPF9S4UmxZ46GW1c6aiJv+7dNaybJs2mTZXwhBAPBCEJyBHgIvFoWRbrNg/Sw6t0LDJITWHRqDM50Hjvrm5/8Ib2Tl/UqSvX1D59QdmpF6zQo7TWLv6cH7O14casVv/tV3X39R8oGe8bDHnKFRFG5y7iEjPPHQxMF5nvo4+uuvgdET3urOj81/9c8+eumBtN78MqCZ3RkHScZnWMHhp2O8/xkDMhq6yJo3G6pYOdgoihM81qPNL999/Sxs/+Tp1q364mrGp7B/1ej/XXjDpi7gRUWj1lq0/q6te+rWz1nIUyaYRgsXqqbYZ9Hdy9qfvXX9XezZ+r3NvUatHXPGXTLX/+kE2C4AfcYb52qI8zHcx+OdS1G5ZmbVSFx8NzP4/UKoYh3cWAAGDh+YOdNFGLTuTjUuMP9nT99ltaXD+j/JltnT53Ua1Tp5TkHRP9FR3IifJA1KMtjW6/qWywpRZRz9hsKzTHTlIeFMV8IMCPOjq9RBT5kUAdqehU47kzatGPgYqpYOdgm0Hgs70GgA1Fvx4W9nvmrsU9DGw5APcknWq4gr6+HNq0gylV3b+uvOLJea7NYrepx8K+EWaQf1WtQUNYk/yUxXmVljz4uVC9v6Xyg19q4+2fa+/2DSWTPdPTaTpR0slV0b0bDibSh2GV0K6WSh1vAUeExzJ+YceScSjDsu8RGUjPnWA1Y7njL8Gl2B4YeeVkYpLIahXVaI5egsWBJreua7Cxq/HSqk48+ayWL39R2alLStuLqiwzxVRIdZfWPZUOqiaBTLT6Dh5rn2cqww1EsrO+5WP2aGYd8tDEth/5XSpxl+fnlXToNubJ7KgA3Pg0WW6dwgydRAPNqEMBNLSvBxLQOvInSCY+eVjfOKAKlaa9Xle9rFSXYozQdoyy7uO8LAwMgVHua+UV+MsTNcNtJaORNt59XXvvvabxrTfVmuypSzCnKZSY7QCVd60+3kHDvINytHWZcW7INLFrASDw7iIUJjVxiHokLh89ERbE9eZWkX+g2NO7pUFkdVEJXqdYtSq2VNzf0b3dO7r/7mtavPAFnXrmBbXOXlLD42IINJnXxLPtCqWWgKcCCo4lcAMiHJkffUTQO6NEaPuxUpFI3cVFZd05e3AXRA2BQwTucYQcj6m5ACXXCYbb8PAUF3VQH2LFDWNPkRpy+YLHoiwsmk9bjekGTgy9sKjxcQjAiA+dBT0TzKhGqu/fUHnjF7r1zlvav/Ouus1Qcxavd8lgpG8AqZTSEzj49qZPEXB4EVafH4jBEAqWvQKIkvOanTb2n4t+SuN40pmLfBeTBifMHJMqIbVKTD9WTGHhJ221eBBW3Ve53Vd/75YObvxEC088q/VLl6XBjpVdmbtMtLIemWtbMZAXlP1a8OGiknPg6SM013RLGMLm4VuVRmmq5ZU1Jd2uPRDDPKYwR1+f87cZ9IfhZ+dw1pd7/I+3UeQ4MRgk7Fr0ksfb0+685lZOa7J3h/SCdeQ0nfaxjZepZDmUMNYo2TOKnc68Jnsb2vhv/0X9/p6q4b4W2xighVJ7NAzS2ZWWSy2kBkaOcxFciwQAfUdeNhg8AwE4gcff0bv8s5cpV95FV87n67ESEIae9t8jT/K4eEbMk4l1vs3ZtLk31O7rmzq48XPN9SjYG1g8wIiA8RHVNTECWs87Z/sEfvUvv6OG/NpgxFHfENTbOO+qs7SipEUtGEThcQgkHupmCgkP6DEa37nnVzsBMOzREx+cCEDP1Oouqrd6Tv3337AdQyYjD4WTf+LKuKSPc+Qhz/QRLsj1FwfWnXNUDNVuEuUd7IGJBYd8J0ycfpgfZeHp0MZzIgD1UY/53jjzs83982Uj3hyJliiz99a7yBABh1GUAO941TG04VVTyChXHbZGa+MGURFanRIgw3esaXZl+yiG/aHa9lAp3E9UF7rVbYwInwehPfsZOQXXY9Ai1C3BE0/gVnMnRBraUow2Z+ZOitlRHNnFSsR+Jc5AWTgUaUhDx0EJR6dl39lXiYn/9tJJVdmcmmRsfQKCaolTevQj7qSJbDfGcp4TCFdZlIb5kC3wGR65udkeQXlDvjPTdmt6evbh1VMqN0JhdxBb4g7JH2xbJtTBxnWg9ldfYaeRec2AGwPU1Yf5YeQr7Am5E/VyvAl0PuWjbNxwtWSPryXQ8QC8GYuvolCyz3CzRUkxTeBwJyKkQGflorLFk9YXmUCWBezMfInupt+PpdvYAOoQDr71zyJiLMPgePjjA3OznECmueVTyhdWlB7cVs6zdAL4ABaXPuqxTihkgIBzYz7bOWPRMWLZLBirnhu72RONVtvKZpj1uPoskmI+w4LvBrAZIjKAIxpRHeHxskiSJlcKMbBH0oiAOxL4ivBC3QQ6iwtFh1Iwgm4mcGq1h97PhzM9yuul7CCNpA11E3UZWuujCg67s05XcJQmnGAs5sa4qEK3Xq0auL16Wcnculv5cKsN6tqfjzZV41Inbt8CGNZEQghi8ld4A/DjP1w90qT4zWCJcO3ySXWWT2tEBWfoaMX1cdKPerQ9gKa1ieDUKksSN05Grvd47xN2Xc08nRh8fBDDP2yV6T9HlVFIQBv5cT4f5Wm/u0PABwq/ExybyUtwaVwbcHCLgsBk2NPA6YFtySmQN7FiEYxRHgxNLMXCz9QDOjExXuT0eJz9ztfESlwNQES2IkuSVdZ5vbt6zh6KgQowqJjIDraCXRnxGmA2s1RgkfuiouiDMxxoaBC7V7guGlbp0ormTl/Q5gc/UcHj1A8J6MidP/YHq8ux5wMCqFaIz9OPiM9UsnArYg4maE2/+c29Zi/mt6OEsN+4JuxztDUYMu1Gtjo34EAC90A6lFJaqkonatjtnPIdC4egfDR7JjJEAMD4MsyrSSkN4yTfv58SSMJpotQLRJPkMZ1PfYi3ebdaRfot2XWzY/hYD/416RyIHvJ0WDRaWFpVfeqMSxamhHtrdoDbNxFuPleuZNKRAVziRwMgrJKD+5BxEtyUiZvUYfDOvBbXzqg9N38InHjuYx1r6vdAfAAiGEsJwPBkLlw8N2gMIaYG0H8PGenwOxAXqT3oWEOWEwBXOlIhde4N66JmCBGDLCRdBFIcx8HuIgBvKeh9IoMWPwgpfgJIVlnsCSez1ENFMoUf/KPeEM+JOXycKKo9qNIseiSIV/kwKzaedJZXtLS6Zq3jrDCE7xH3AU4W4rb3RATi+jlCKKypJgrqFMpTuoCh7xfHyHEgUqrJcnC/CH/k6mn+/DXlq1e1P5joRDL0zhVkpXjqBfEBxDjGnMExYgZ9y/3Rg85dxkxpYU/s8rIcnxxztSqdsKPWGQ4LPSLEj6YiDr+aQVoY0hDN81gN0e5KUZZtUs/+cA0Ag6uRNjwFjHyaq5TI7D5wSPaE/YM+LKlgSlWMLRUfuRC5zInaxT3RRpt+mBsyzaSTX207hLzXgbua2DFQelawcTZTk9cqigO1WqWGVa7B/JM6+9SfSO1Fe0byFDZuOwFDQ3kYL0LH1xYGjaxinBBEQ0TXLHtbrRmzDTooaXe1cvaiyqzn25GQJrWnickdWIUq9enYDzYLH5AFRprAmHN1M53M5/FdhI8jHwi4SgAP/EZ7GNzQydgDSHgDkFL7xJqyM08cG2SpBzn8Pr+KEDqDQqtOrXTmMDHU6WrpiWekE+esMth2vZL9ynnmDedCfsE6D61kXG47N/oyeSJm4J5jL+OzewNvCeuiLXIpq8GYx/4pKm8mkbVRiRRC0JS3rRMXv6B0+eRvDCT9JsikvoN0xsK1K6A/n5RbnrAx0yMQgiTIla6d09z5q+6fEqmqCamSgiQJgxonynUoT1xGRjlluoF7zoiH3zTT39nfHc6oRd5NicBkgAWO0JjYi9S0HExqtdcuaP3yc6IPwXFf3hzAefyIuH7Yjd0t8wcnpr1lrTz1gtLeouees1zFBI72/e/g3rJOpsCdoFgcSgChRtDCCj4eNtDn6DvPSbh8RBoEtrPiU0ruYThqGukzxHOMx/miTl75srK1s2oyL3Q5DrgC+fktPJyKCJ/SouEv6H/Osq1ioDHvaen8U1p56ks6qNgikprbZjX3BG8IoiAZgm9uhGHDYG2bZzvzwKXjLOGzfa2FmYOgjPaArcgEAIZr5c85THINKEw5dUWLT35JSTZn2/WOu3p3sx9yF5+ThbeMb7GezUCBIlLfF88WrtazX1ey+oTGbDKgvNbCq2TJ3LVyVUJILwSYzKNA9HO/I/T3kFn87n/lEEA24o151mGqBrzez+L/JHqyea08/WVlK+dNDR8hmMcElY3vLgfeEBQXkYKV7i9/x2/+FDHCtTReouwqO3VFCxevaZy0bAdtQoIZhWWEwIJ8OUgXt2e5pykB2674mPP+HboM+HiZGrw1fYXvKWBMM9F7YOHsFa1cfE5Jb9ngj3F+3FdwisNtuF/8Z/bZ1EizUiJ8aAI2Yb+AhVIWTunUsy8pX7sgdtiZ0ViMLXDEqZHCPYbPOMQB3DeeBieOu4xff737425zTkPfv/6aT+rXlCCbQQmmAFruHpv6pBg3kW1ZqxdO6tRzv6f89EUVPL3cPLMpfh53vpHdZ653qqJngHNtFNcgPhSK+vBWHVw2bbVOP6mzz39Dw/aSJg1PEvc8N0aj+fuWp/ch0DksOIaWZwb+XL6lWJWnr1o1RupwsSwlO33J8aeZhk2m5Ssvqn3hWSW006FQFma0KqrjgS1lsKkuAfm/SlXT3xnM8+mUhmOd4hImeU8nrnxFy898XRN1Vactc1ksHh6SKNEZIE1K0NDv6cR2vCX89q8+GmH87d9/9o6OyNz8P5pkUGrXolSMNjJlof2J1D17RevXvqps/azV/3v5XCa2TR739RAJwC2tDGFKCiGxMh2M0F+INVqcOlO6fE5nr31D6dpF7ReZlPVUFug2z9CZbsHNsVZtceb/Mglgus7//u+oNeSFyG+xS5qmUzSqEPv8O5r01nXuS3+o/PSTFpTnkTEWZ+PPb8UGiJY497Ob+oTs45H1R6S5J++GIc4+1muqMumqdepJnf/ytzVZPKsJe+Kytjd6NA/ChT6bE32DIuN9BP0dGfeT/3BoM3wCQ3tqybetUxpfEVJPe6qTjor2Ca1f+yN1n35RSXtehW2XD7WBxAcsYXK8SX4kBkxkWw4J9w165F8gAswB2hYHK49NQrRSSfIFzT39os6/+McaZQsaN3T6YoI+jLk5BIA+0vk83mI+i1cDGav5Y4dPMbLIH+G0vaat+UvP68wL31TaO2mNKRD97Ckkk2fZ2bix9BgL96RwECU2mXAzQ3mQ0NY+htofC/CQGaSVCl01UzNIKJWmkQN9hJLOslaufUNrV7+sstUz6UB9enQIedq21eJ8RFb3GGv57Vwa3IRPTAqwB8K2hzXK2cSalBry3MVLz+nM7/2J+fx1Q3u5lmUqKTLxh0FVFh087qIDa87exljWkoGzfqkVTnKabRr1mjj0e6yXtwggqdKso2RuWSe/9LJWz10KN/aaeujMwr//QlX/J4b0GXBTHII5ZTuwklSTYqwTp07rqZe/qezkBdFI2x55H7Z2ZewnDNVFrba70zO3e+S3OOWHtoQLeL9paGNv4huS4Dn1/kI2eIMIPpNfxmomCAhnj5tE7c6ymjMvauVfndLW9/5P7d34qRaKXc2HejiKPSAExqP8y6zuIF2og7f2tWyzxs6MzY6sYGM6B0bmd29RQ9dutl2RvcxVVLkOJo1qNnE0lQ6alnplR+sJ2zmwXytvokSbuBZ5dnbu5NqbZLozXtJ+RQOFSi0V6mbjsOfQs5wN9QKUniN+4VzrOQAUp/IzDYUBVO6wQZX9+taJxUR3LrqeNE1uaXPVu7a9m2TadpmpOvNVnfyDf6f8qZc0qNvWPANPjfkgnHxjK2V6uI8RHo9/9NKVx7/eizbNb5hSI1mrPGsrmV/WlZe+qffKkUbvv6pWM7RGDfbgY/zYPPMGURAC5yNRrJ6usn0Hnqp+WJQsihDbtWHGEJrRApBqVJQTffD+TfUHQ7M3tquWFr/4r2XyKJRhUUHDvv6KXT7WRHKi7e1tvfnazzVf7Vql0PJcW89euRDrqxxKUJ3ZQNGVjeGsQw7xah9zkmq12rlt7PDyr0yTCW1qcuV5prKYWDHsuJA1x8xXzumZr39b7YtXVBSNlcU3dIDiZUvG9HbdyTR+G69jE4DbB55AIl9gDEFpfZqr1VlWdvoZPfmted38p4723vqhFpNKbWrujPPZHDFnRiYSobTyKYiBnTtQVfQ8fKkeKQsmpQEY2wPEg0h/oAQqKu90VWZt7Yz3rVHzAa3cLBVBL3+/t9X3ZLk66tkmTlTxuKzVpx0uhZwqtbTYs3q7ROw9jERnIsSIwp3lSPhM2InAYx5eiVxTPGuuG4mxTFmbNXg/EwAADJZJREFUZs50W6UOEcuoq3HaUnniKV391l+o9cQXVGcLSto9FcQFWHpInoF0VDFGoIfsQ8nbMShhSraPexPkErEAQygl0cHd43Eodaoin1e2fkkXvvFvtHrtD3SQL2mYtLz5IqqlmFi2y70FqpAdkA8GYyLyHcg+bcsoWAkfu2KhZcau1W6xXWrZCUG5CrWsCs6qcVE9hFhbqIfauNM7fPgTSqwPMrX8ea6llTWTEozGfCwX8iDrWXQ0lrlFQp1mQEKVq1n6KDfauVDVgwuHxNuq5tU+d01Xv/Xv1XriOSWdFZV0SysQ+zP2GH5YNFAj98/Q5OOi79gSwPYr2OYS38dPnbxJKQtwICsza7SYrT+ps1/7d0rnl3X/1X9QMbijebqEtqDmwqxD2qpAQDV7DrF22e0bFu0LBIQuFSxMzWbOpmNqxGsQ2WJWScVQK4sdzWW1htY0smO8SUEmyATw7BampNuMKuwLdiDZrmS3aebauVaWFr3iyYxdT2HbuCyQe2FzHFbLxr0HU6yYjUPYO5TVsxQ2mlJiXxUT+771hT/Wxa/8vu0qbhK8gEyJzYvxWB/hd+oW+R8F4CqBr5FAtkf2cbHvmZljXG26n8JIEIMudOp2oRCNy9Q5PJ1TfuKMTn/l21pYXNbNH31X/f6GutW2lVAb1VgpkSdAiHjZooGnbWBwrrfw5EzNvj20GssIKWT6nfMrLfQ6Wl6a172DvvaLsXXR4oa2O4boJCHpEEih0ycygqrdg8lE3azR0uKiujR0BA1GzCS6kDH++RDN/MZ8uN6MVsxByMRllXUhJXYfWtQQNBuUmdqLZ3X2yWd0+vf/Qvki2T3fIMuTR9g1xMZb617yEPSYikEKGHNEcfCQEz/GV8eWAPZIU0M/D0GiCgiVFTYoGhjgDHBCnXxPSe+UFq5+TU8truj6qz+S3vue736FK7PKwqDgBWSYjjW/MfUGztFjAXvW9RIKHFl5NaI7SiN4I60mWltf1fn5C2qX8+qeWPV29JxHl1MGaWqzpHleAb12OgsntPbkF7Xa9LW22KjLViu8ETNJAbitxJCNZOJfIrazQyZBBRmxYJcYhszIc+TTVDfXsOmodeay1q79vrpXvigtndEElWTbzidqtSkdx5+ikTXteBkUIvOxTSLYiHwBUxzPFUhGo9GxSMiigTY/d1OIEPICJEwckcwuWBpOmpyg63dND9+hmkFfo5/8lW6+/ZpGm7c030rUTia2/Ql14I0MvM4deDpfhYqioIvjPkA4Dg8CrqGAgpr8euGMzn/j3ys/c1XNwik13UWJwlXcqXJikoedz6iVtJmo2t9Wsn9fg/df08aP/1qt/Xv+RI2wf9I4nf6CRoC+TitsDY+Dc95n9S4RbBzAkHc1pNVie1lrV76iU9e+oez0ZSX5vMbpnKuTLGxVo6+Q1VtQV+HqyAB65I9RgwtD+3vkx0f6cGwJkLv1Zn69U5J36OC917ih0wl3OknwXECXGgvS4rx6X/0PunDmBW28+YoOPnhN9WDDGj7bKgKnG/UTPg4BEycF+vzR8RLCI3LgMYWQKbH9CZPRWP3tHa1dOyWaOfHoFraeITlpMWubXqxhpFc52WaXTqPxm30l1Sg8z4di1/BiUQwK9/OW3oD05TKV4lxKCb0/As/L42kzT0P65OzTOvfcN7Ry5UWlC2t+LfMmlkAJMDEShsEGYjV4KwZE36gynUNQhVZtHSf2+MdjE8CDQ9tEqQYKJWTT331rNb+zQNt4QoOm3knNPbOiJ06d0+jG09p868c6uHvdmiq1aKxskpoScqqRDCJmUSMiMeLADhyJ2rFNLdgOmEpIgGas7VvvamXzttK1y4Y0F/3uCcBp7EqCKHyDSKJ6b1u7t99XNdpXx2wS7w6Cgjfj0ZDPPDyDR1CHpZrxSmCKOaZtq5HcrzO110/r3JUva/HKl5WunVfTPqEJ6oLG26wp2A9+R+4KhHxvAJ+MB2y0+Avw42z/S7DpOK9jE4CpaOZDdw1mEvagk/ZFJHokD3TBwS6+YWXrQEoSie1fpdQ6cV5zL5xS54kvaOedV7V5/ScabNxQu9wPzwYM+QZSpbhIdAQjmGJlc1FLY6DRFwhuZOdrpbJ/W+XGe+qcvGQbNOkiArLgUtu0SfzAiMxL3opb76na3XBFlrv7yLIc3E4E6HSIgevyNuqNDuf0Niadm2m/TCw9vnTpms588avKVs8omV9RgU8RNsSQ2DE9D+ws3Q6C+S8QtBGGAdTWYuBzejd8G8gRRrw5xuvYBGAS0VEfpuHWu+lLWxwLDC5UmKztxwsl0DQ4zFodDQFqlai7dkmry+s68cRljW9f18bbP9N4564G/R21KlrTtJWzobOeWK0UiRGMphgzMsHD/gnC0zRhG2xp+9Y7Ov30S0rmCML4NKmDZJMLxEjhihHk5EBbN99SM8Yz4Xce7eJlcEbCVucYF2WWg5Vnsa2u5mldeVf54rrOXKJh1AtK1y8qnVsTXcMmBqhU1sfYuoS6wUwfIVSlY960nL+3mYW3DBnmbWrChIRLusMfHpMIjk0AcUu0SQLDdaRimsiwSIwbpmlTN4r1z3AV8Xzv5GXGLh25EPvZnPLTzyhbu6iLT7+k4Z0PtPX+W9q//Y7GO3eU0yWsyYWKoFGiIQndy2ZNxrGUKe5po7yaaO/O+1rd3VR7bs366Zo5isdCMD33BEwvkybbH+pg6wZvlHXaIjxh1rw9X9j7ANM+jjnSnJnXbj6nzvKaOqvntHj2aa1fuqp0aV1qzYktdERyOZN+I+b/B68Glwlj1XIKJgSQltzRQ99QavTyzPgNrA7MkG6JbcSBcI63u+rYBOCE5waav2eCYNzQb0RgoctIwigD+82dGPrcepSNwhLiQa2wYaRrD0LOWouaXzip3oUrqjdvaXDnPQ023tdg47Z2du9L9cBauuSEgE1PhzapcHfTqJ1KB3ub6t95T6tr59XK6d/vUTikBaK9TcfwaqDh/Zsq9u6rY8kbopu5RrYzmhZsXv9Ar+yyyZQtrGtp9ZQ1Zzxx8pw6Zy8rnV9l+7SqjM6G5DWINTANZwIijlYAgjFryAZUFjww0IFjJwKHJH/d8/HPXoQDbMPF09Me+92xCQBRysRjhM5n4sgPPO/EwFfBOGT6XhPCgxT96eVW4QDQwuKQLEnStkfDZUlX6XxL6dwJLZ1/WovjgSa7O9rb2lS9eVMHO/c13Lyp8WBLaT0Wu+d4vExCTx4mVB5o5/03tHzxirKVi9YJxJo1A342s6IOtu9q5723VfX7ylsdjSeJaja/dlqW4q6zrtoLy1pYO6u51bOiMUNneV2ptYz1J5IhUBoifTFeF7ShG69gk1A59Ap3u49vPYsNzcgJl56Hej3YURG7kQAc/RiRMeQcz3j047EJYDqkTy9O0gVfpFSOWDBezxZ0gl3KL2ZBmzXvutCQH0OsJEpCYATDCaMy7XXVmV/TybNPq+4/pfXJQM3gvprBluq9e6p37qna3VQzPtB4eCDSszvbd1X3t5UuXbBm04aEjCef8LyAsZr9XQ2272nlxIrm8kRL3SW1ltaVL68qPXFSyeKKbYOjKRPPEcCH5xkFPO6WwBLrSFrwM5FPEON5EQo4CPJ45xb6CRC48Xr5spqoHbDtDOSbcQEMBMLLFY3JCSBlKuLwd/uR7x7/dexA0OMP/du5cqbHjRl4VldXYhTytHFvOVMUNJ1Krb18u9PzECpcaA9s8kjlaDTWcDi0SbU7HYvgYemTK8BdJC8RXxYIAjnGyZHI46+freNnngA8WmIsY64Z3kdULxEVFoqNSRksdnx1c7AxQr0VjaniSBSW/HEbwh5tT8jXrFRHerzv78Lxt6gCPh1wRM50QxJRHDp/ufa34JE9UCH48k4MaCPnXBPZFmBywcAqSBNHAnFTfIr4Wa73CKAL6U9n9ccf9TNPAFEcAwpLoGJqmGh24DhhkO4NSCRAZNFC/8x7i1IEiWD3mCGIWSTPjnV80P/LuMNnnwBmVHCwoQ2yMe5A/0FP5+JVuKqAZw3puJ3BnzfDjO/tfu4mmnGHkRbGgBhmX78LBPGZJwAQ4oi3Ny66zUBzVHm/An9v3Azqg/GGcRcMBjvBEUrAxw2+We73O6AmPODE53if+Ntn8fiZJwDPyIF8j89HHvXSMkcJjBu51zjfsOeuFdKB3+K/aAxyCvZCJIaI3N8Fro9r4fiZJwDKrfwVdPns6ma49BBxuOAhHoGIx42Mv81yN4j3x8w4p8+eE4eIRBU/fxaPn303MCroEDL5+EiIhBOv+Gxb83EVj3r8/wDYsr5q8hJOJAAAAABJRU5ErkJggg==;" parent="1" vertex="1">
                    <mxGeometry x="348" y="375.55" width="40.32" height="38.11" as="geometry"/>
                </mxCell>
                <mxCell id="193" value="ALB" style="text;html=1;strokeColor=none;fillColor=none;align=center;verticalAlign=middle;whiteSpace=wrap;rounded=0;" vertex="1" parent="1">
                    <mxGeometry x="372" y="301" width="44" height="20" as="geometry"/>
                </mxCell>
                <mxCell id="202" value="Router" style="text;html=1;strokeColor=none;fillColor=none;align=center;verticalAlign=middle;whiteSpace=wrap;rounded=0;" vertex="1" parent="1">
                    <mxGeometry x="347" y="410" width="44" height="20" as="geometry"/>
                </mxCell>
            </root>
        </mxGraphModel>
    </diagram>
</mxfile>